%TF.GenerationSoftware,KiCad,Pcbnew,9.0.7*%
%TF.CreationDate,2026-01-24T16:21:03+00:00*%
%TF.ProjectId,pcb,7063622e-6b69-4636-9164-5f7063625858,rev?*%
%TF.SameCoordinates,Original*%
%TF.FileFunction,Copper,L1,Top*%
%TF.FilePolarity,Positive*%
%FSLAX46Y46*%
G04 Gerber Fmt 4.6, Leading zero omitted, Abs format (unit mm)*
G04 Created by KiCad (PCBNEW 9.0.7) date 2026-01-24 16:21:03*
%MOMM*%
%LPD*%
G01*
G04 APERTURE LIST*
G04 Aperture macros list*
%AMRoundRect*
0 Rectangle with rounded corners*
0 $1 Rounding radius*
0 $2 $3 $4 $5 $6 $7 $8 $9 X,Y pos of 4 corners*
0 Add a 4 corners polygon primitive as box body*
4,1,4,$2,$3,$4,$5,$6,$7,$8,$9,$2,$3,0*
0 Add four circle primitives for the rounded corners*
1,1,$1+$1,$2,$3*
1,1,$1+$1,$4,$5*
1,1,$1+$1,$6,$7*
1,1,$1+$1,$8,$9*
0 Add four rect primitives between the rounded corners*
20,1,$1+$1,$2,$3,$4,$5,0*
20,1,$1+$1,$4,$5,$6,$7,0*
20,1,$1+$1,$6,$7,$8,$9,0*
20,1,$1+$1,$8,$9,$2,$3,0*%
%AMFreePoly0*
4,1,37,0.800000,0.796148,0.878414,0.796148,1.032228,0.765552,1.177117,0.705537,1.307515,0.618408,1.418408,0.507515,1.505537,0.377117,1.565552,0.232228,1.596148,0.078414,1.596148,-0.078414,1.565552,-0.232228,1.505537,-0.377117,1.418408,-0.507515,1.307515,-0.618408,1.177117,-0.705537,1.032228,-0.765552,0.878414,-0.796148,0.800000,-0.796148,0.800000,-0.800000,-1.400000,-0.800000,
-1.403843,-0.796157,-1.439018,-0.796157,-1.511114,-0.766294,-1.566294,-0.711114,-1.596157,-0.639018,-1.596157,-0.603843,-1.600000,-0.600000,-1.600000,0.600000,-1.596157,0.603843,-1.596157,0.639018,-1.566294,0.711114,-1.511114,0.766294,-1.439018,0.796157,-1.403843,0.796157,-1.400000,0.800000,0.800000,0.800000,0.800000,0.796148,0.800000,0.796148,$1*%
%AMFreePoly1*
4,1,37,1.403843,0.796157,1.439018,0.796157,1.511114,0.766294,1.566294,0.711114,1.596157,0.639018,1.596157,0.603843,1.600000,0.600000,1.600000,-0.600000,1.596157,-0.603843,1.596157,-0.639018,1.566294,-0.711114,1.511114,-0.766294,1.439018,-0.796157,1.403843,-0.796157,1.400000,-0.800000,-0.800000,-0.800000,-0.800000,-0.796148,-0.878414,-0.796148,-1.032228,-0.765552,-1.177117,-0.705537,
-1.307515,-0.618408,-1.418408,-0.507515,-1.505537,-0.377117,-1.565552,-0.232228,-1.596148,-0.078414,-1.596148,0.078414,-1.565552,0.232228,-1.505537,0.377117,-1.418408,0.507515,-1.307515,0.618408,-1.177117,0.705537,-1.032228,0.765552,-0.878414,0.796148,-0.800000,0.796148,-0.800000,0.800000,1.400000,0.800000,1.403843,0.796157,1.403843,0.796157,$1*%
%AMFreePoly2*
4,1,37,0.603843,0.796157,0.639018,0.796157,0.711114,0.766294,0.766294,0.711114,0.796157,0.639018,0.796157,0.603843,0.800000,0.600000,0.800000,-0.600000,0.796157,-0.603843,0.796157,-0.639018,0.766294,-0.711114,0.711114,-0.766294,0.639018,-0.796157,0.603843,-0.796157,0.600000,-0.800000,0.000000,-0.800000,0.000000,-0.796148,-0.078414,-0.796148,-0.232228,-0.765552,-0.377117,-0.705537,
-0.507515,-0.618408,-0.618408,-0.507515,-0.705537,-0.377117,-0.765552,-0.232228,-0.796148,-0.078414,-0.796148,0.078414,-0.765552,0.232228,-0.705537,0.377117,-0.618408,0.507515,-0.507515,0.618408,-0.377117,0.705537,-0.232228,0.765552,-0.078414,0.796148,0.000000,0.796148,0.000000,0.800000,0.600000,0.800000,0.603843,0.796157,0.603843,0.796157,$1*%
%AMFreePoly3*
4,1,37,0.000000,0.796148,0.078414,0.796148,0.232228,0.765552,0.377117,0.705537,0.507515,0.618408,0.618408,0.507515,0.705537,0.377117,0.765552,0.232228,0.796148,0.078414,0.796148,-0.078414,0.765552,-0.232228,0.705537,-0.377117,0.618408,-0.507515,0.507515,-0.618408,0.377117,-0.705537,0.232228,-0.765552,0.078414,-0.796148,0.000000,-0.796148,0.000000,-0.800000,-0.600000,-0.800000,
-0.603843,-0.796157,-0.639018,-0.796157,-0.711114,-0.766294,-0.766294,-0.711114,-0.796157,-0.639018,-0.796157,-0.603843,-0.800000,-0.600000,-0.800000,0.600000,-0.796157,0.603843,-0.796157,0.639018,-0.766294,0.711114,-0.711114,0.766294,-0.639018,0.796157,-0.603843,0.796157,-0.600000,0.800000,0.000000,0.800000,0.000000,0.796148,0.000000,0.796148,$1*%
G04 Aperture macros list end*
%TA.AperFunction,SMDPad,CuDef*%
%ADD10R,1.600000X0.850000*%
%TD*%
%TA.AperFunction,ComponentPad*%
%ADD11C,3.600000*%
%TD*%
%TA.AperFunction,SMDPad,CuDef*%
%ADD12RoundRect,0.225000X-0.375000X0.225000X-0.375000X-0.225000X0.375000X-0.225000X0.375000X0.225000X0*%
%TD*%
%TA.AperFunction,SMDPad,CuDef*%
%ADD13FreePoly0,0.000000*%
%TD*%
%TA.AperFunction,ComponentPad*%
%ADD14RoundRect,0.200000X-0.600000X-0.600000X0.600000X-0.600000X0.600000X0.600000X-0.600000X0.600000X0*%
%TD*%
%TA.AperFunction,SMDPad,CuDef*%
%ADD15RoundRect,0.800000X-0.800000X-0.000010X0.800000X-0.000010X0.800000X0.000010X-0.800000X0.000010X0*%
%TD*%
%TA.AperFunction,ComponentPad*%
%ADD16C,1.600000*%
%TD*%
%TA.AperFunction,SMDPad,CuDef*%
%ADD17FreePoly1,0.000000*%
%TD*%
%TA.AperFunction,ComponentPad*%
%ADD18FreePoly2,0.000000*%
%TD*%
%TA.AperFunction,ComponentPad*%
%ADD19FreePoly3,0.000000*%
%TD*%
%TA.AperFunction,ComponentPad*%
%ADD20R,1.700000X1.700000*%
%TD*%
%TA.AperFunction,ComponentPad*%
%ADD21C,1.700000*%
%TD*%
%TA.AperFunction,ComponentPad*%
%ADD22R,2.000000X2.000000*%
%TD*%
%TA.AperFunction,ComponentPad*%
%ADD23C,2.000000*%
%TD*%
%TA.AperFunction,ComponentPad*%
%ADD24R,3.200000X2.000000*%
%TD*%
%TA.AperFunction,ComponentPad*%
%ADD25RoundRect,0.250000X-0.550000X-0.550000X0.550000X-0.550000X0.550000X0.550000X-0.550000X0.550000X0*%
%TD*%
%TA.AperFunction,ComponentPad*%
%ADD26O,1.700000X1.700000*%
%TD*%
%TA.AperFunction,ViaPad*%
%ADD27C,0.600000*%
%TD*%
%TA.AperFunction,Conductor*%
%ADD28C,0.200000*%
%TD*%
G04 APERTURE END LIST*
D10*
%TO.P,e23,1,VDD*%
%TO.N,+5V*%
X231612500Y-56275000D03*
%TO.P,e23,2,DOUT*%
%TO.N,Net-(e23-DOUT)*%
X231612500Y-58025000D03*
%TO.P,e23,3,VSS*%
%TO.N,GND*%
X235112500Y-58025000D03*
%TO.P,e23,4,DIN*%
%TO.N,Net-(e22-DOUT)*%
X235112500Y-56275000D03*
%TD*%
D11*
%TO.P,SW49,1,1*%
%TO.N,Net-(D49-A)*%
X277177500Y-68897500D03*
%TO.P,SW49,2,2*%
%TO.N,c11*%
X283527500Y-66357500D03*
%TD*%
D12*
%TO.P,D22,1,K*%
%TO.N,r2*%
X223725000Y-41887500D03*
%TO.P,D22,2,A*%
%TO.N,Net-(D22-A)*%
X223725000Y-45187500D03*
%TD*%
D11*
%TO.P,SW77,1,1*%
%TO.N,Net-(D77-A)*%
X291465000Y-106997500D03*
%TO.P,SW77,2,2*%
%TO.N,c11*%
X297815000Y-104457500D03*
%TD*%
D10*
%TO.P,e25,1,VDD*%
%TO.N,+5V*%
X269712500Y-56275000D03*
%TO.P,e25,2,DOUT*%
%TO.N,Net-(e25-DOUT)*%
X269712500Y-58025000D03*
%TO.P,e25,3,VSS*%
%TO.N,GND*%
X273212500Y-58025000D03*
%TO.P,e25,4,DIN*%
%TO.N,Net-(e24-DOUT)*%
X273212500Y-56275000D03*
%TD*%
%TO.P,e36,1,VDD*%
%TO.N,+5V*%
X203037500Y-75325000D03*
%TO.P,e36,2,DOUT*%
%TO.N,Net-(e36-DOUT)*%
X203037500Y-77075000D03*
%TO.P,e36,3,VSS*%
%TO.N,GND*%
X206537500Y-77075000D03*
%TO.P,e36,4,DIN*%
%TO.N,Net-(e35-DOUT)*%
X206537500Y-75325000D03*
%TD*%
D12*
%TO.P,D72,1,K*%
%TO.N,r4*%
X376225000Y-79387500D03*
%TO.P,D72,2,A*%
%TO.N,Net-(D72-A)*%
X376225000Y-82687500D03*
%TD*%
D13*
%TO.P,A1,1,GPIO0*%
%TO.N,unconnected-(A1-GPIO0-Pad1)*%
X45713750Y-17780000D03*
D14*
X46513750Y-17780000D03*
D15*
%TO.P,A1,2,GPIO1*%
%TO.N,unconnected-(A1-GPIO1-Pad2)*%
X45713750Y-20320000D03*
D16*
X46513750Y-20320000D03*
D17*
%TO.P,A1,3,GND*%
%TO.N,GND*%
X45713750Y-22860000D03*
D18*
X46513750Y-22860000D03*
D15*
%TO.P,A1,4,GPIO2*%
%TO.N,sda*%
X45713750Y-25400000D03*
D16*
X46513750Y-25400000D03*
D15*
%TO.P,A1,5,GPIO3*%
%TO.N,scl*%
X45713750Y-27940000D03*
D16*
X46513750Y-27940000D03*
D15*
%TO.P,A1,6,GPIO4*%
%TO.N,a*%
X45713750Y-30480000D03*
D16*
X46513750Y-30480000D03*
D15*
%TO.P,A1,7,GPIO5*%
%TO.N,b*%
X45713750Y-33020000D03*
D16*
X46513750Y-33020000D03*
D17*
%TO.P,A1,8,GND*%
%TO.N,GND*%
X45713750Y-35560000D03*
D18*
X46513750Y-35560000D03*
D15*
%TO.P,A1,9,GPIO6*%
%TO.N,unconnected-(A1-GPIO6-Pad9)*%
X45713750Y-38100000D03*
D16*
X46513750Y-38100000D03*
D15*
%TO.P,A1,10,GPIO7*%
%TO.N,unconnected-(A1-GPIO7-Pad10)*%
X45713750Y-40640000D03*
D16*
X46513750Y-40640000D03*
D15*
%TO.P,A1,11,GPIO8*%
%TO.N,unconnected-(A1-GPIO8-Pad11)*%
X45713750Y-43180000D03*
D16*
X46513750Y-43180000D03*
D15*
%TO.P,A1,12,GPIO9*%
%TO.N,unconnected-(A1-GPIO9-Pad12)*%
X45713750Y-45720000D03*
D16*
X46513750Y-45720000D03*
D17*
%TO.P,A1,13,GND*%
%TO.N,GND*%
X45713750Y-48260000D03*
D18*
X46513750Y-48260000D03*
D15*
%TO.P,A1,14,GPIO10*%
%TO.N,unconnected-(A1-GPIO10-Pad14)*%
X45713750Y-50800000D03*
D16*
X46513750Y-50800000D03*
D15*
%TO.P,A1,15,GPIO11*%
%TO.N,unconnected-(A1-GPIO11-Pad15)*%
X45713750Y-53340000D03*
D16*
X46513750Y-53340000D03*
D15*
%TO.P,A1,16,GPIO12*%
%TO.N,unconnected-(A1-GPIO12-Pad16)*%
X45713750Y-55880000D03*
D16*
X46513750Y-55880000D03*
D15*
%TO.P,A1,17,GPIO13*%
%TO.N,unconnected-(A1-GPIO13-Pad17)*%
X45713750Y-58420000D03*
D16*
X46513750Y-58420000D03*
D17*
%TO.P,A1,18,GND*%
%TO.N,GND*%
X45713750Y-60960000D03*
D18*
X46513750Y-60960000D03*
D15*
%TO.P,A1,19,GPIO14*%
%TO.N,unconnected-(A1-GPIO14-Pad19)*%
X45713750Y-63500000D03*
D16*
X46513750Y-63500000D03*
D15*
%TO.P,A1,20,GPIO15*%
%TO.N,unconnected-(A1-GPIO15-Pad20)*%
X45713750Y-66040000D03*
D16*
X46513750Y-66040000D03*
%TO.P,A1,21,GPIO16*%
%TO.N,r1*%
X64293750Y-66040000D03*
D15*
X65093750Y-66040000D03*
D16*
%TO.P,A1,22,GPIO17*%
%TO.N,r2*%
X64293750Y-63500000D03*
D15*
X65093750Y-63500000D03*
D19*
%TO.P,A1,23,GND*%
%TO.N,GND*%
X64293750Y-60960000D03*
D13*
X65093750Y-60960000D03*
D16*
%TO.P,A1,24,GPIO18*%
%TO.N,r3*%
X64293750Y-58420000D03*
D15*
X65093750Y-58420000D03*
D16*
%TO.P,A1,25,GPIO19*%
%TO.N,r4*%
X64293750Y-55880000D03*
D15*
X65093750Y-55880000D03*
D16*
%TO.P,A1,26,GPIO20*%
%TO.N,r5*%
X64293750Y-53340000D03*
D15*
X65093750Y-53340000D03*
D16*
%TO.P,A1,27,GPIO21*%
%TO.N,r6*%
X64293750Y-50800000D03*
D15*
X65093750Y-50800000D03*
D19*
%TO.P,A1,28,GND*%
%TO.N,GND*%
X64293750Y-48260000D03*
D13*
X65093750Y-48260000D03*
D16*
%TO.P,A1,29,GPIO22*%
%TO.N,reSwitch*%
X64293750Y-45720000D03*
D15*
X65093750Y-45720000D03*
D16*
%TO.P,A1,30,RUN*%
%TO.N,unconnected-(A1-RUN-Pad30)*%
X64293750Y-43180000D03*
D15*
X65093750Y-43180000D03*
D16*
%TO.P,A1,31,GPIO26_ADC0*%
%TO.N,unconnected-(A1-GPIO26_ADC0-Pad31)*%
X64293750Y-40640000D03*
D15*
X65093750Y-40640000D03*
D16*
%TO.P,A1,32,GPIO27_ADC1*%
%TO.N,unconnected-(A1-GPIO27_ADC1-Pad32)*%
X64293750Y-38100000D03*
D15*
X65093750Y-38100000D03*
D19*
%TO.P,A1,33,AGND*%
%TO.N,unconnected-(A1-AGND-Pad33)*%
X64293750Y-35560000D03*
D13*
X65093750Y-35560000D03*
D16*
%TO.P,A1,34,GPIO28_ADC2*%
%TO.N,unconnected-(A1-GPIO28_ADC2-Pad34)*%
X64293750Y-33020000D03*
D15*
X65093750Y-33020000D03*
D16*
%TO.P,A1,35,ADC_VREF*%
%TO.N,unconnected-(A1-ADC_VREF-Pad35)*%
X64293750Y-30480000D03*
D15*
X65093750Y-30480000D03*
D16*
%TO.P,A1,36,3V3*%
%TO.N,+3.3V*%
X64293750Y-27940000D03*
D15*
X65093750Y-27940000D03*
D16*
%TO.P,A1,37,3V3_EN*%
%TO.N,unconnected-(A1-3V3_EN-Pad37)*%
X64293750Y-25400000D03*
D15*
X65093750Y-25400000D03*
D19*
%TO.P,A1,38,GND*%
%TO.N,GND*%
X64293750Y-22860000D03*
D13*
X65093750Y-22860000D03*
D16*
%TO.P,A1,39,VSYS*%
%TO.N,unconnected-(A1-VSYS-Pad39)*%
X64293750Y-20320000D03*
D15*
X65093750Y-20320000D03*
D16*
%TO.P,A1,40,VBUS*%
%TO.N,unconnected-(A1-VBUS-Pad40)*%
X64293750Y-17780000D03*
D15*
X65093750Y-17780000D03*
%TD*%
D12*
%TO.P,D12,1,K*%
%TO.N,r1*%
X328725000Y-18387500D03*
%TO.P,D12,2,A*%
%TO.N,Net-(D12-A)*%
X328725000Y-21687500D03*
%TD*%
D10*
%TO.P,e50,1,VDD*%
%TO.N,+5V*%
X188750000Y-94375000D03*
%TO.P,e50,2,DOUT*%
%TO.N,Net-(e50-DOUT)*%
X188750000Y-96125000D03*
%TO.P,e50,3,VSS*%
%TO.N,GND*%
X192250000Y-96125000D03*
%TO.P,e50,4,DIN*%
%TO.N,Net-(e49-DOUT)*%
X192250000Y-94375000D03*
%TD*%
D12*
%TO.P,D70,1,K*%
%TO.N,r3*%
X376225000Y-60387500D03*
%TO.P,D70,2,A*%
%TO.N,Net-(D70-A)*%
X376225000Y-63687500D03*
%TD*%
%TO.P,D30,1,K*%
%TO.N,r4*%
X104725000Y-79887500D03*
%TO.P,D30,2,A*%
%TO.N,Net-(D30-A)*%
X104725000Y-83187500D03*
%TD*%
%TO.P,D28,1,K*%
%TO.N,r2*%
X352725000Y-39562500D03*
%TO.P,D28,2,A*%
%TO.N,Net-(D28-A)*%
X352725000Y-42862500D03*
%TD*%
D10*
%TO.P,e81,1,VDD*%
%TO.N,+5V*%
X364962500Y-132475000D03*
%TO.P,e81,2,DOUT*%
%TO.N,unconnected-(e81-DOUT-Pad2)*%
X364962500Y-134225000D03*
%TO.P,e81,3,VSS*%
%TO.N,GND*%
X368462500Y-134225000D03*
%TO.P,e81,4,DIN*%
%TO.N,Net-(e80-DOUT)*%
X368462500Y-132475000D03*
%TD*%
D11*
%TO.P,SW85,1,1*%
%TO.N,Net-(D85-A)*%
X362902500Y-106997500D03*
%TO.P,SW85,2,2*%
%TO.N,c15*%
X369252500Y-104457500D03*
%TD*%
%TO.P,SW22,1,1*%
%TO.N,Net-(D22-A)*%
X210502500Y-49847500D03*
%TO.P,SW22,2,2*%
%TO.N,c8*%
X216852500Y-47307500D03*
%TD*%
D12*
%TO.P,D35,1,K*%
%TO.N,r3*%
X157225000Y-60887500D03*
%TO.P,D35,2,A*%
%TO.N,Net-(D35-A)*%
X157225000Y-64187500D03*
%TD*%
%TO.P,D23,1,K*%
%TO.N,r2*%
X242725000Y-41887500D03*
%TO.P,D23,2,A*%
%TO.N,Net-(D23-A)*%
X242725000Y-45187500D03*
%TD*%
D10*
%TO.P,e64,1,VDD*%
%TO.N,+5V*%
X198275000Y-113425000D03*
%TO.P,e64,2,DOUT*%
%TO.N,Net-(e64-DOUT)*%
X198275000Y-115175000D03*
%TO.P,e64,3,VSS*%
%TO.N,GND*%
X201775000Y-115175000D03*
%TO.P,e64,4,DIN*%
%TO.N,Net-(e63-DOUT)*%
X201775000Y-113425000D03*
%TD*%
D12*
%TO.P,D41,1,K*%
%TO.N,r3*%
X214225000Y-60887500D03*
%TO.P,D41,2,A*%
%TO.N,Net-(D41-A)*%
X214225000Y-64187500D03*
%TD*%
%TO.P,D25,1,K*%
%TO.N,r2*%
X280725000Y-41887500D03*
%TO.P,D25,2,A*%
%TO.N,Net-(D25-A)*%
X280725000Y-45187500D03*
%TD*%
D11*
%TO.P,SW8,1,1*%
%TO.N,Net-(D8-A)*%
X234315000Y-26035000D03*
%TO.P,SW8,2,2*%
%TO.N,c8*%
X240665000Y-23495000D03*
%TD*%
D12*
%TO.P,D3,1,K*%
%TO.N,r1*%
X147725000Y-18387500D03*
%TO.P,D3,2,A*%
%TO.N,Net-(D3-A)*%
X147725000Y-21687500D03*
%TD*%
D11*
%TO.P,SW52,1,1*%
%TO.N,Net-(D52-A)*%
X300990000Y-87947500D03*
%TO.P,SW52,2,2*%
%TO.N,c12*%
X307340000Y-85407500D03*
%TD*%
%TO.P,SW39,1,1*%
%TO.N,Net-(D39-A)*%
X181927500Y-68897500D03*
%TO.P,SW39,2,2*%
%TO.N,c6*%
X188277500Y-66357500D03*
%TD*%
%TO.P,SW25,1,1*%
%TO.N,Net-(D25-A)*%
X267652500Y-49847500D03*
%TO.P,SW25,2,2*%
%TO.N,c11*%
X274002500Y-47307500D03*
%TD*%
D10*
%TO.P,e6,1,VDD*%
%TO.N,+5V*%
X198275000Y-32462500D03*
%TO.P,e6,2,DOUT*%
%TO.N,Net-(e6-DOUT)*%
X198275000Y-34212500D03*
%TO.P,e6,3,VSS*%
%TO.N,GND*%
X201775000Y-34212500D03*
%TO.P,e6,4,DIN*%
%TO.N,Net-(e5-DOUT)*%
X201775000Y-32462500D03*
%TD*%
D12*
%TO.P,D19,1,K*%
%TO.N,r2*%
X166725000Y-41887500D03*
%TO.P,D19,2,A*%
%TO.N,Net-(D19-A)*%
X166725000Y-45187500D03*
%TD*%
D11*
%TO.P,SW65,1,1*%
%TO.N,Net-(D65-A)*%
X177165000Y-106997500D03*
%TO.P,SW65,2,2*%
%TO.N,c5*%
X183515000Y-104457500D03*
%TD*%
D12*
%TO.P,D68,1,K*%
%TO.N,r2*%
X376225000Y-41887500D03*
%TO.P,D68,2,A*%
%TO.N,Net-(D68-A)*%
X376225000Y-45187500D03*
%TD*%
D11*
%TO.P,SW55,1,1*%
%TO.N,Net-(D55-A)*%
X339090000Y-68897500D03*
%TO.P,SW55,2,2*%
%TO.N,c14*%
X345440000Y-66357500D03*
%TD*%
%TO.P,SW41,1,1*%
%TO.N,Net-(D41-A)*%
X200977500Y-68897500D03*
%TO.P,SW41,2,2*%
%TO.N,c7*%
X207327500Y-66357500D03*
%TD*%
D10*
%TO.P,e46,1,VDD*%
%TO.N,+5V*%
X112550000Y-94375000D03*
%TO.P,e46,2,DOUT*%
%TO.N,Net-(e46-DOUT)*%
X112550000Y-96125000D03*
%TO.P,e46,3,VSS*%
%TO.N,GND*%
X116050000Y-96125000D03*
%TO.P,e46,4,DIN*%
%TO.N,Net-(e45-DOUT)*%
X116050000Y-94375000D03*
%TD*%
D12*
%TO.P,D67,1,K*%
%TO.N,r5*%
X209725000Y-98887500D03*
%TO.P,D67,2,A*%
%TO.N,Net-(D67-A)*%
X209725000Y-102187500D03*
%TD*%
D10*
%TO.P,e31,1,VDD*%
%TO.N,+5V*%
X107787500Y-75325000D03*
%TO.P,e31,2,DOUT*%
%TO.N,Net-(e31-DOUT)*%
X107787500Y-77075000D03*
%TO.P,e31,3,VSS*%
%TO.N,GND*%
X111287500Y-77075000D03*
%TO.P,e31,4,DIN*%
%TO.N,Net-(e30-DOUT)*%
X111287500Y-75325000D03*
%TD*%
D12*
%TO.P,D42,1,K*%
%TO.N,r4*%
X219225000Y-79887500D03*
%TO.P,D42,2,A*%
%TO.N,Net-(D42-A)*%
X219225000Y-83187500D03*
%TD*%
%TO.P,D37,1,K*%
%TO.N,r3*%
X176225000Y-60887500D03*
%TO.P,D37,2,A*%
%TO.N,Net-(D37-A)*%
X176225000Y-64187500D03*
%TD*%
D11*
%TO.P,SW50,1,1*%
%TO.N,Net-(D50-A)*%
X281940000Y-87947500D03*
%TO.P,SW50,2,2*%
%TO.N,c11*%
X288290000Y-85407500D03*
%TD*%
%TO.P,SW76,1,1*%
%TO.N,Net-(D76-A)*%
X293846250Y-126047500D03*
%TO.P,SW76,2,2*%
%TO.N,c10*%
X300196250Y-123507500D03*
%TD*%
D10*
%TO.P,e5,1,VDD*%
%TO.N,+5V*%
X174462500Y-32462500D03*
%TO.P,e5,2,DOUT*%
%TO.N,Net-(e5-DOUT)*%
X174462500Y-34212500D03*
%TO.P,e5,3,VSS*%
%TO.N,GND*%
X177962500Y-34212500D03*
%TO.P,e5,4,DIN*%
%TO.N,Net-(e4-DOUT)*%
X177962500Y-32462500D03*
%TD*%
D12*
%TO.P,D57,1,K*%
%TO.N,r5*%
X114225000Y-98887500D03*
%TO.P,D57,2,A*%
%TO.N,Net-(D57-A)*%
X114225000Y-102187500D03*
%TD*%
%TO.P,D4,1,K*%
%TO.N,r1*%
X166725000Y-18387500D03*
%TO.P,D4,2,A*%
%TO.N,Net-(D4-A)*%
X166725000Y-21687500D03*
%TD*%
%TO.P,D20,1,K*%
%TO.N,r2*%
X185725000Y-41887500D03*
%TO.P,D20,2,A*%
%TO.N,Net-(D20-A)*%
X185725000Y-45187500D03*
%TD*%
D11*
%TO.P,SW79,1,1*%
%TO.N,Net-(D79-A)*%
X317658750Y-106997500D03*
%TO.P,SW79,2,2*%
%TO.N,c12*%
X324008750Y-104457500D03*
%TD*%
D10*
%TO.P,e41,1,VDD*%
%TO.N,+5V*%
X298287500Y-75325000D03*
%TO.P,e41,2,DOUT*%
%TO.N,Net-(e41-DOUT)*%
X298287500Y-77075000D03*
%TO.P,e41,3,VSS*%
%TO.N,GND*%
X301787500Y-77075000D03*
%TO.P,e41,4,DIN*%
%TO.N,Net-(e40-DOUT)*%
X301787500Y-75325000D03*
%TD*%
D11*
%TO.P,SW36,1,1*%
%TO.N,Net-(D36-A)*%
X148590000Y-87947500D03*
%TO.P,SW36,2,2*%
%TO.N,c4*%
X154940000Y-85407500D03*
%TD*%
%TO.P,SW10,1,1*%
%TO.N,Net-(D10-A)*%
X277177500Y-26035000D03*
%TO.P,SW10,2,2*%
%TO.N,c10*%
X283527500Y-23495000D03*
%TD*%
D10*
%TO.P,e58,1,VDD*%
%TO.N,+5V*%
X364962500Y-94375000D03*
%TO.P,e58,2,DOUT*%
%TO.N,Net-(e58-DOUT)*%
X364962500Y-96125000D03*
%TO.P,e58,3,VSS*%
%TO.N,GND*%
X368462500Y-96125000D03*
%TO.P,e58,4,DIN*%
%TO.N,Net-(e57-DOUT)*%
X368462500Y-94375000D03*
%TD*%
%TO.P,e65,1,VDD*%
%TO.N,+5V*%
X217325000Y-113425000D03*
%TO.P,e65,2,DOUT*%
%TO.N,Net-(e65-DOUT)*%
X217325000Y-115175000D03*
%TO.P,e65,3,VSS*%
%TO.N,GND*%
X220825000Y-115175000D03*
%TO.P,e65,4,DIN*%
%TO.N,Net-(e64-DOUT)*%
X220825000Y-113425000D03*
%TD*%
%TO.P,e8,1,VDD*%
%TO.N,+5V*%
X236375000Y-32462500D03*
%TO.P,e8,2,DOUT*%
%TO.N,Net-(e8-DOUT)*%
X236375000Y-34212500D03*
%TO.P,e8,3,VSS*%
%TO.N,GND*%
X239875000Y-34212500D03*
%TO.P,e8,4,DIN*%
%TO.N,Net-(e7-DOUT)*%
X239875000Y-32462500D03*
%TD*%
%TO.P,e9,1,VDD*%
%TO.N,+5V*%
X255425000Y-32462500D03*
%TO.P,e9,2,DOUT*%
%TO.N,Net-(e10-DIN)*%
X255425000Y-34212500D03*
%TO.P,e9,3,VSS*%
%TO.N,GND*%
X258925000Y-34212500D03*
%TO.P,e9,4,DIN*%
%TO.N,Net-(e8-DOUT)*%
X258925000Y-32462500D03*
%TD*%
D12*
%TO.P,D49,1,K*%
%TO.N,r3*%
X290725000Y-60887500D03*
%TO.P,D49,2,A*%
%TO.N,Net-(D49-A)*%
X290725000Y-64187500D03*
%TD*%
%TO.P,D77,1,K*%
%TO.N,r5*%
X304725000Y-98887500D03*
%TO.P,D77,2,A*%
%TO.N,Net-(D77-A)*%
X304725000Y-102187500D03*
%TD*%
D10*
%TO.P,e29,1,VDD*%
%TO.N,+5V*%
X364962500Y-56275000D03*
%TO.P,e29,2,DOUT*%
%TO.N,Net-(e29-DOUT)*%
X364962500Y-58025000D03*
%TO.P,e29,3,VSS*%
%TO.N,GND*%
X368462500Y-58025000D03*
%TO.P,e29,4,DIN*%
%TO.N,Net-(e28-DOUT)*%
X368462500Y-56275000D03*
%TD*%
D12*
%TO.P,D76,1,K*%
%TO.N,r6*%
X309725000Y-117887500D03*
%TO.P,D76,2,A*%
%TO.N,Net-(D76-A)*%
X309725000Y-121187500D03*
%TD*%
D11*
%TO.P,SW82,1,1*%
%TO.N,Net-(D82-A)*%
X343852500Y-126047500D03*
%TO.P,SW82,2,2*%
%TO.N,c13*%
X350202500Y-123507500D03*
%TD*%
D12*
%TO.P,D18,1,K*%
%TO.N,r2*%
X147725000Y-41887500D03*
%TO.P,D18,2,A*%
%TO.N,Net-(D18-A)*%
X147725000Y-45187500D03*
%TD*%
D10*
%TO.P,e22,1,VDD*%
%TO.N,+5V*%
X212562500Y-56275000D03*
%TO.P,e22,2,DOUT*%
%TO.N,Net-(e22-DOUT)*%
X212562500Y-58025000D03*
%TO.P,e22,3,VSS*%
%TO.N,GND*%
X216062500Y-58025000D03*
%TO.P,e22,4,DIN*%
%TO.N,Net-(e21-DOUT)*%
X216062500Y-56275000D03*
%TD*%
D20*
%TO.P,J2,1,Pin_1*%
%TO.N,+3.3V*%
X46480000Y-119250000D03*
D21*
%TO.P,J2,2,Pin_2*%
%TO.N,GND*%
X46480000Y-121790000D03*
%TO.P,J2,3,Pin_3*%
%TO.N,+5V*%
X46480000Y-124330000D03*
%TD*%
D10*
%TO.P,e12,1,VDD*%
%TO.N,+5V*%
X317337500Y-32462500D03*
%TO.P,e12,2,DOUT*%
%TO.N,Net-(e12-DOUT)*%
X317337500Y-34212500D03*
%TO.P,e12,3,VSS*%
%TO.N,GND*%
X320837500Y-34212500D03*
%TO.P,e12,4,DIN*%
%TO.N,Net-(e11-DOUT)*%
X320837500Y-32462500D03*
%TD*%
D22*
%TO.P,SW14,A,A*%
%TO.N,a*%
X355940000Y-25200000D03*
D23*
%TO.P,SW14,B,B*%
%TO.N,b*%
X355940000Y-30200000D03*
%TO.P,SW14,C,C*%
%TO.N,GND*%
X355940000Y-27700000D03*
D24*
%TO.P,SW14,MP*%
%TO.N,N/C*%
X363440000Y-22100000D03*
X363440000Y-33300000D03*
D23*
%TO.P,SW14,S1,S1*%
%TO.N,GND*%
X370440000Y-30200000D03*
%TO.P,SW14,S2,S2*%
%TO.N,reSwitch*%
X370440000Y-25200000D03*
%TD*%
D11*
%TO.P,SW86,1,1*%
%TO.N,Net-(D86-A)*%
X362902500Y-126047500D03*
%TO.P,SW86,2,2*%
%TO.N,c15*%
X369252500Y-123507500D03*
%TD*%
D10*
%TO.P,e53,1,VDD*%
%TO.N,+5V*%
X245900000Y-94375000D03*
%TO.P,e53,2,DOUT*%
%TO.N,Net-(e53-DOUT)*%
X245900000Y-96125000D03*
%TO.P,e53,3,VSS*%
%TO.N,GND*%
X249400000Y-96125000D03*
%TO.P,e53,4,DIN*%
%TO.N,Net-(e52-DOUT)*%
X249400000Y-94375000D03*
%TD*%
%TO.P,e38,1,VDD*%
%TO.N,+5V*%
X241137500Y-75325000D03*
%TO.P,e38,2,DOUT*%
%TO.N,Net-(e38-DOUT)*%
X241137500Y-77075000D03*
%TO.P,e38,3,VSS*%
%TO.N,GND*%
X244637500Y-77075000D03*
%TO.P,e38,4,DIN*%
%TO.N,Net-(e37-DOUT)*%
X244637500Y-75325000D03*
%TD*%
%TO.P,e56,1,VDD*%
%TO.N,+5V*%
X303050000Y-94375000D03*
%TO.P,e56,2,DOUT*%
%TO.N,Net-(e56-DOUT)*%
X303050000Y-96125000D03*
%TO.P,e56,3,VSS*%
%TO.N,GND*%
X306550000Y-96125000D03*
%TO.P,e56,4,DIN*%
%TO.N,Net-(e55-DOUT)*%
X306550000Y-94375000D03*
%TD*%
D11*
%TO.P,SW63,1,1*%
%TO.N,Net-(D63-A)*%
X158115000Y-106997500D03*
%TO.P,SW63,2,2*%
%TO.N,c4*%
X164465000Y-104457500D03*
%TD*%
D12*
%TO.P,D63,1,K*%
%TO.N,r5*%
X171225000Y-98887500D03*
%TO.P,D63,2,A*%
%TO.N,Net-(D63-A)*%
X171225000Y-102187500D03*
%TD*%
D10*
%TO.P,e11,1,VDD*%
%TO.N,+5V*%
X298287500Y-32462500D03*
%TO.P,e11,2,DOUT*%
%TO.N,Net-(e11-DOUT)*%
X298287500Y-34212500D03*
%TO.P,e11,3,VSS*%
%TO.N,GND*%
X301787500Y-34212500D03*
%TO.P,e11,4,DIN*%
%TO.N,Net-(e10-DOUT)*%
X301787500Y-32462500D03*
%TD*%
D12*
%TO.P,D53,1,K*%
%TO.N,r3*%
X328725000Y-65025000D03*
%TO.P,D53,2,A*%
%TO.N,Net-(D53-A)*%
X328725000Y-68325000D03*
%TD*%
%TO.P,D2,1,K*%
%TO.N,r1*%
X128725000Y-18387500D03*
%TO.P,D2,2,A*%
%TO.N,Net-(D2-A)*%
X128725000Y-21687500D03*
%TD*%
D10*
%TO.P,e40,1,VDD*%
%TO.N,+5V*%
X279237500Y-75325000D03*
%TO.P,e40,2,DOUT*%
%TO.N,Net-(e40-DOUT)*%
X279237500Y-77075000D03*
%TO.P,e40,3,VSS*%
%TO.N,GND*%
X282737500Y-77075000D03*
%TO.P,e40,4,DIN*%
%TO.N,Net-(e39-DOUT)*%
X282737500Y-75325000D03*
%TD*%
D11*
%TO.P,SW2,1,1*%
%TO.N,Net-(D2-A)*%
X115252500Y-26035000D03*
%TO.P,SW2,2,2*%
%TO.N,c2*%
X121602500Y-23495000D03*
%TD*%
D10*
%TO.P,e21,1,VDD*%
%TO.N,+5V*%
X193512500Y-56275000D03*
%TO.P,e21,2,DOUT*%
%TO.N,Net-(e21-DOUT)*%
X193512500Y-58025000D03*
%TO.P,e21,3,VSS*%
%TO.N,GND*%
X197012500Y-58025000D03*
%TO.P,e21,4,DIN*%
%TO.N,Net-(e20-DOUT)*%
X197012500Y-56275000D03*
%TD*%
D11*
%TO.P,SW45,1,1*%
%TO.N,Net-(D45-A)*%
X239077500Y-68897500D03*
%TO.P,SW45,2,2*%
%TO.N,c9*%
X245427500Y-66357500D03*
%TD*%
D12*
%TO.P,D10,1,K*%
%TO.N,r1*%
X290725000Y-18387500D03*
%TO.P,D10,2,A*%
%TO.N,Net-(D10-A)*%
X290725000Y-21687500D03*
%TD*%
D10*
%TO.P,e19,1,VDD*%
%TO.N,+5V*%
X155412500Y-56275000D03*
%TO.P,e19,2,DOUT*%
%TO.N,Net-(e19-DOUT)*%
X155412500Y-58025000D03*
%TO.P,e19,3,VSS*%
%TO.N,GND*%
X158912500Y-58025000D03*
%TO.P,e19,4,DIN*%
%TO.N,Net-(e18-DOUT)*%
X158912500Y-56275000D03*
%TD*%
D12*
%TO.P,D71,1,K*%
%TO.N,r5*%
X247725000Y-98887500D03*
%TO.P,D71,2,A*%
%TO.N,Net-(D71-A)*%
X247725000Y-102187500D03*
%TD*%
%TO.P,D34,1,K*%
%TO.N,r4*%
X142725000Y-79887500D03*
%TO.P,D34,2,A*%
%TO.N,Net-(D34-A)*%
X142725000Y-83187500D03*
%TD*%
%TO.P,D62,1,K*%
%TO.N,r6*%
X142725000Y-117887500D03*
%TO.P,D62,2,A*%
%TO.N,Net-(D62-A)*%
X142725000Y-121187500D03*
%TD*%
%TO.P,D74,1,K*%
%TO.N,r6*%
X285725000Y-117887500D03*
%TO.P,D74,2,A*%
%TO.N,Net-(D74-A)*%
X285725000Y-121187500D03*
%TD*%
D10*
%TO.P,e4,1,VDD*%
%TO.N,+5V*%
X155412500Y-32462500D03*
%TO.P,e4,2,DOUT*%
%TO.N,Net-(e4-DOUT)*%
X155412500Y-34212500D03*
%TO.P,e4,3,VSS*%
%TO.N,GND*%
X158912500Y-34212500D03*
%TO.P,e4,4,DIN*%
%TO.N,Net-(e3-DOUT)*%
X158912500Y-32462500D03*
%TD*%
%TO.P,e48,1,VDD*%
%TO.N,+5V*%
X150650000Y-94375000D03*
%TO.P,e48,2,DOUT*%
%TO.N,Net-(e48-DOUT)*%
X150650000Y-96125000D03*
%TO.P,e48,3,VSS*%
%TO.N,GND*%
X154150000Y-96125000D03*
%TO.P,e48,4,DIN*%
%TO.N,Net-(e47-DOUT)*%
X154150000Y-94375000D03*
%TD*%
D11*
%TO.P,SW31,1,1*%
%TO.N,Net-(D31-A)*%
X105727500Y-68897500D03*
%TO.P,SW31,2,2*%
%TO.N,c2*%
X112077500Y-66357500D03*
%TD*%
D12*
%TO.P,D26,1,K*%
%TO.N,r2*%
X300225000Y-41887500D03*
%TO.P,D26,2,A*%
%TO.N,Net-(D26-A)*%
X300225000Y-45187500D03*
%TD*%
D11*
%TO.P,SW40,1,1*%
%TO.N,Net-(D40-A)*%
X186690000Y-87947500D03*
%TO.P,SW40,2,2*%
%TO.N,c6*%
X193040000Y-85407500D03*
%TD*%
%TO.P,SW67,1,1*%
%TO.N,Net-(D67-A)*%
X196215000Y-106997500D03*
%TO.P,SW67,2,2*%
%TO.N,c6*%
X202565000Y-104457500D03*
%TD*%
D12*
%TO.P,D52,1,K*%
%TO.N,r4*%
X314225000Y-79887500D03*
%TO.P,D52,2,A*%
%TO.N,Net-(D52-A)*%
X314225000Y-83187500D03*
%TD*%
D11*
%TO.P,SW26,1,1*%
%TO.N,Net-(D26-A)*%
X286702500Y-49847500D03*
%TO.P,SW26,2,2*%
%TO.N,c12*%
X293052500Y-47307500D03*
%TD*%
D10*
%TO.P,e54,1,VDD*%
%TO.N,+5V*%
X264950000Y-94375000D03*
%TO.P,e54,2,DOUT*%
%TO.N,Net-(e54-DOUT)*%
X264950000Y-96125000D03*
%TO.P,e54,3,VSS*%
%TO.N,GND*%
X268450000Y-96125000D03*
%TO.P,e54,4,DIN*%
%TO.N,Net-(e53-DOUT)*%
X268450000Y-94375000D03*
%TD*%
D11*
%TO.P,SW7,1,1*%
%TO.N,Net-(D7-A)*%
X215265000Y-26035000D03*
%TO.P,SW7,2,2*%
%TO.N,c7*%
X221615000Y-23495000D03*
%TD*%
D10*
%TO.P,e73,1,VDD*%
%TO.N,+5V*%
X81593750Y-132475000D03*
%TO.P,e73,2,DOUT*%
%TO.N,Net-(e73-DOUT)*%
X81593750Y-134225000D03*
%TO.P,e73,3,VSS*%
%TO.N,GND*%
X85093750Y-134225000D03*
%TO.P,e73,4,DIN*%
%TO.N,Net-(e72-DOUT)*%
X85093750Y-132475000D03*
%TD*%
D11*
%TO.P,SW75,1,1*%
%TO.N,Net-(D75-A)*%
X272415000Y-106997500D03*
%TO.P,SW75,2,2*%
%TO.N,c10*%
X278765000Y-104457500D03*
%TD*%
D10*
%TO.P,e43,1,VDD*%
%TO.N,+5V*%
X341150000Y-75325000D03*
%TO.P,e43,2,DOUT*%
%TO.N,Net-(e43-DOUT)*%
X341150000Y-77075000D03*
%TO.P,e43,3,VSS*%
%TO.N,GND*%
X344650000Y-77075000D03*
%TO.P,e43,4,DIN*%
%TO.N,Net-(e42-DOUT)*%
X344650000Y-75325000D03*
%TD*%
D12*
%TO.P,D38,1,K*%
%TO.N,r4*%
X180725000Y-79887500D03*
%TO.P,D38,2,A*%
%TO.N,Net-(D38-A)*%
X180725000Y-83187500D03*
%TD*%
D11*
%TO.P,SW9,1,1*%
%TO.N,Net-(D9-A)*%
X253365000Y-26035000D03*
%TO.P,SW9,2,2*%
%TO.N,c9*%
X259715000Y-23495000D03*
%TD*%
D12*
%TO.P,D61,1,K*%
%TO.N,r5*%
X152225000Y-98887500D03*
%TO.P,D61,2,A*%
%TO.N,Net-(D61-A)*%
X152225000Y-102187500D03*
%TD*%
D10*
%TO.P,e39,1,VDD*%
%TO.N,+5V*%
X260187500Y-75325000D03*
%TO.P,e39,2,DOUT*%
%TO.N,Net-(e39-DOUT)*%
X260187500Y-77075000D03*
%TO.P,e39,3,VSS*%
%TO.N,GND*%
X263687500Y-77075000D03*
%TO.P,e39,4,DIN*%
%TO.N,Net-(e38-DOUT)*%
X263687500Y-75325000D03*
%TD*%
%TO.P,e20,1,VDD*%
%TO.N,+5V*%
X174462500Y-56275000D03*
%TO.P,e20,2,DOUT*%
%TO.N,Net-(e20-DOUT)*%
X174462500Y-58025000D03*
%TO.P,e20,3,VSS*%
%TO.N,GND*%
X177962500Y-58025000D03*
%TO.P,e20,4,DIN*%
%TO.N,Net-(e19-DOUT)*%
X177962500Y-56275000D03*
%TD*%
%TO.P,e44,1,VDD*%
%TO.N,+5V*%
X364962500Y-75325000D03*
%TO.P,e44,2,DOUT*%
%TO.N,Net-(e44-DOUT)*%
X364962500Y-77075000D03*
%TO.P,e44,3,VSS*%
%TO.N,GND*%
X368462500Y-77075000D03*
%TO.P,e44,4,DIN*%
%TO.N,Net-(e43-DOUT)*%
X368462500Y-75325000D03*
%TD*%
D11*
%TO.P,SW57,1,1*%
%TO.N,Net-(D57-A)*%
X89058750Y-106997500D03*
%TO.P,SW57,2,2*%
%TO.N,c1*%
X95408750Y-104457500D03*
%TD*%
%TO.P,SW23,1,1*%
%TO.N,Net-(D23-A)*%
X229552500Y-49847500D03*
%TO.P,SW23,2,2*%
%TO.N,c9*%
X235902500Y-47307500D03*
%TD*%
D10*
%TO.P,e69,1,VDD*%
%TO.N,+5V*%
X293525000Y-113425000D03*
%TO.P,e69,2,DOUT*%
%TO.N,Net-(e69-DOUT)*%
X293525000Y-115175000D03*
%TO.P,e69,3,VSS*%
%TO.N,GND*%
X297025000Y-115175000D03*
%TO.P,e69,4,DIN*%
%TO.N,Net-(e68-DOUT)*%
X297025000Y-113425000D03*
%TD*%
D12*
%TO.P,D82,1,K*%
%TO.N,r6*%
X357225000Y-117887500D03*
%TO.P,D82,2,A*%
%TO.N,Net-(D82-A)*%
X357225000Y-121187500D03*
%TD*%
D10*
%TO.P,e63,1,VDD*%
%TO.N,+5V*%
X179225000Y-113425000D03*
%TO.P,e63,2,DOUT*%
%TO.N,Net-(e63-DOUT)*%
X179225000Y-115175000D03*
%TO.P,e63,3,VSS*%
%TO.N,GND*%
X182725000Y-115175000D03*
%TO.P,e63,4,DIN*%
%TO.N,Net-(e62-DOUT)*%
X182725000Y-113425000D03*
%TD*%
D12*
%TO.P,D27,1,K*%
%TO.N,r2*%
X319225000Y-41887500D03*
%TO.P,D27,2,A*%
%TO.N,Net-(D27-A)*%
X319225000Y-45187500D03*
%TD*%
%TO.P,D80,1,K*%
%TO.N,r6*%
X338225000Y-117887500D03*
%TO.P,D80,2,A*%
%TO.N,Net-(D80-A)*%
X338225000Y-121187500D03*
%TD*%
%TO.P,D43,1,K*%
%TO.N,r3*%
X233225000Y-60887500D03*
%TO.P,D43,2,A*%
%TO.N,Net-(D43-A)*%
X233225000Y-64187500D03*
%TD*%
%TO.P,D1,1,K*%
%TO.N,r1*%
X90725000Y-18387500D03*
%TO.P,D1,2,A*%
%TO.N,Net-(D1-A)*%
X90725000Y-21687500D03*
%TD*%
%TO.P,D75,1,K*%
%TO.N,r5*%
X285725000Y-98887500D03*
%TO.P,D75,2,A*%
%TO.N,Net-(D75-A)*%
X285725000Y-102187500D03*
%TD*%
D11*
%TO.P,SW72,1,1*%
%TO.N,Net-(D72-A)*%
X362902500Y-87947500D03*
%TO.P,SW72,2,2*%
%TO.N,c15*%
X369252500Y-85407500D03*
%TD*%
%TO.P,SW58,1,1*%
%TO.N,Net-(D58-A)*%
X79533750Y-126047500D03*
%TO.P,SW58,2,2*%
%TO.N,c1*%
X85883750Y-123507500D03*
%TD*%
D12*
%TO.P,D54,1,K*%
%TO.N,r4*%
X357225000Y-79387500D03*
%TO.P,D54,2,A*%
%TO.N,Net-(D54-A)*%
X357225000Y-82687500D03*
%TD*%
%TO.P,D7,1,K*%
%TO.N,r1*%
X228725000Y-18387500D03*
%TO.P,D7,2,A*%
%TO.N,Net-(D7-A)*%
X228725000Y-21687500D03*
%TD*%
%TO.P,D32,1,K*%
%TO.N,r4*%
X123725000Y-79887500D03*
%TO.P,D32,2,A*%
%TO.N,Net-(D32-A)*%
X123725000Y-83187500D03*
%TD*%
D11*
%TO.P,SW64,1,1*%
%TO.N,Net-(D64-A)*%
X198596250Y-126047500D03*
%TO.P,SW64,2,2*%
%TO.N,c4*%
X204946250Y-123507500D03*
%TD*%
D10*
%TO.P,e67,1,VDD*%
%TO.N,+5V*%
X255425000Y-113425000D03*
%TO.P,e67,2,DOUT*%
%TO.N,Net-(e67-DOUT)*%
X255425000Y-115175000D03*
%TO.P,e67,3,VSS*%
%TO.N,GND*%
X258925000Y-115175000D03*
%TO.P,e67,4,DIN*%
%TO.N,Net-(e66-DOUT)*%
X258925000Y-113425000D03*
%TD*%
%TO.P,e62,1,VDD*%
%TO.N,+5V*%
X160175000Y-113425000D03*
%TO.P,e62,2,DOUT*%
%TO.N,Net-(e62-DOUT)*%
X160175000Y-115175000D03*
%TO.P,e62,3,VSS*%
%TO.N,GND*%
X163675000Y-115175000D03*
%TO.P,e62,4,DIN*%
%TO.N,Net-(e61-DOUT)*%
X163675000Y-113425000D03*
%TD*%
D11*
%TO.P,SW27,1,1*%
%TO.N,Net-(D27-A)*%
X305752500Y-49847500D03*
%TO.P,SW27,2,2*%
%TO.N,c13*%
X312102500Y-47307500D03*
%TD*%
D10*
%TO.P,e3,1,VDD*%
%TO.N,+5V*%
X136362500Y-32462500D03*
%TO.P,e3,2,DOUT*%
%TO.N,Net-(e3-DOUT)*%
X136362500Y-34212500D03*
%TO.P,e3,3,VSS*%
%TO.N,GND*%
X139862500Y-34212500D03*
%TO.P,e3,4,DIN*%
%TO.N,Net-(e2-DOUT)*%
X139862500Y-32462500D03*
%TD*%
D12*
%TO.P,D47,1,K*%
%TO.N,r3*%
X271225000Y-60887500D03*
%TO.P,D47,2,A*%
%TO.N,Net-(D47-A)*%
X271225000Y-64187500D03*
%TD*%
D11*
%TO.P,SW61,1,1*%
%TO.N,Net-(D61-A)*%
X139065000Y-106997500D03*
%TO.P,SW61,2,2*%
%TO.N,c3*%
X145415000Y-104457500D03*
%TD*%
%TO.P,SW43,1,1*%
%TO.N,Net-(D43-A)*%
X220027500Y-68897500D03*
%TO.P,SW43,2,2*%
%TO.N,c8*%
X226377500Y-66357500D03*
%TD*%
%TO.P,SW33,1,1*%
%TO.N,Net-(D33-A)*%
X124777500Y-68897500D03*
%TO.P,SW33,2,2*%
%TO.N,c3*%
X131127500Y-66357500D03*
%TD*%
D10*
%TO.P,e28,1,VDD*%
%TO.N,+5V*%
X336387500Y-56275000D03*
%TO.P,e28,2,DOUT*%
%TO.N,Net-(e28-DOUT)*%
X336387500Y-58025000D03*
%TO.P,e28,3,VSS*%
%TO.N,GND*%
X339887500Y-58025000D03*
%TO.P,e28,4,DIN*%
%TO.N,Net-(e27-DOUT)*%
X339887500Y-56275000D03*
%TD*%
%TO.P,e75,1,VDD*%
%TO.N,+5V*%
X129218750Y-132475000D03*
%TO.P,e75,2,DOUT*%
%TO.N,Net-(e75-DOUT)*%
X129218750Y-134225000D03*
%TO.P,e75,3,VSS*%
%TO.N,GND*%
X132718750Y-134225000D03*
%TO.P,e75,4,DIN*%
%TO.N,Net-(e74-DOUT)*%
X132718750Y-132475000D03*
%TD*%
%TO.P,e77,1,VDD*%
%TO.N,+5V*%
X272093750Y-132475000D03*
%TO.P,e77,2,DOUT*%
%TO.N,Net-(e77-DOUT)*%
X272093750Y-134225000D03*
%TO.P,e77,3,VSS*%
%TO.N,GND*%
X275593750Y-134225000D03*
%TO.P,e77,4,DIN*%
%TO.N,Net-(e76-DOUT)*%
X275593750Y-132475000D03*
%TD*%
D12*
%TO.P,D44,1,K*%
%TO.N,r4*%
X238225000Y-79887500D03*
%TO.P,D44,2,A*%
%TO.N,Net-(D44-A)*%
X238225000Y-83187500D03*
%TD*%
D10*
%TO.P,e49,1,VDD*%
%TO.N,+5V*%
X169700000Y-94375000D03*
%TO.P,e49,2,DOUT*%
%TO.N,Net-(e49-DOUT)*%
X169700000Y-96125000D03*
%TO.P,e49,3,VSS*%
%TO.N,GND*%
X173200000Y-96125000D03*
%TO.P,e49,4,DIN*%
%TO.N,Net-(e48-DOUT)*%
X173200000Y-94375000D03*
%TD*%
D11*
%TO.P,SW28,1,1*%
%TO.N,Net-(D28-A)*%
X334327500Y-49847500D03*
%TO.P,SW28,2,2*%
%TO.N,c14*%
X340677500Y-47307500D03*
%TD*%
%TO.P,SW32,1,1*%
%TO.N,Net-(D32-A)*%
X110490000Y-87947500D03*
%TO.P,SW32,2,2*%
%TO.N,c2*%
X116840000Y-85407500D03*
%TD*%
D12*
%TO.P,D45,1,K*%
%TO.N,r3*%
X252225000Y-60887500D03*
%TO.P,D45,2,A*%
%TO.N,Net-(D45-A)*%
X252225000Y-64187500D03*
%TD*%
%TO.P,D85,1,K*%
%TO.N,r5*%
X376225000Y-98887500D03*
%TO.P,D85,2,A*%
%TO.N,Net-(D85-A)*%
X376225000Y-102187500D03*
%TD*%
D10*
%TO.P,e55,1,VDD*%
%TO.N,+5V*%
X284000000Y-94375000D03*
%TO.P,e55,2,DOUT*%
%TO.N,Net-(e55-DOUT)*%
X284000000Y-96125000D03*
%TO.P,e55,3,VSS*%
%TO.N,GND*%
X287500000Y-96125000D03*
%TO.P,e55,4,DIN*%
%TO.N,Net-(e54-DOUT)*%
X287500000Y-94375000D03*
%TD*%
D12*
%TO.P,D73,1,K*%
%TO.N,r5*%
X266725000Y-98887500D03*
%TO.P,D73,2,A*%
%TO.N,Net-(D73-A)*%
X266725000Y-102187500D03*
%TD*%
D11*
%TO.P,SW80,1,1*%
%TO.N,Net-(D80-A)*%
X324802500Y-126047500D03*
%TO.P,SW80,2,2*%
%TO.N,c12*%
X331152500Y-123507500D03*
%TD*%
D10*
%TO.P,e47,1,VDD*%
%TO.N,+5V*%
X131600000Y-94375000D03*
%TO.P,e47,2,DOUT*%
%TO.N,Net-(e47-DOUT)*%
X131600000Y-96125000D03*
%TO.P,e47,3,VSS*%
%TO.N,GND*%
X135100000Y-96125000D03*
%TO.P,e47,4,DIN*%
%TO.N,Net-(e46-DOUT)*%
X135100000Y-94375000D03*
%TD*%
D11*
%TO.P,SW59,1,1*%
%TO.N,Net-(D59-A)*%
X120015000Y-106997500D03*
%TO.P,SW59,2,2*%
%TO.N,c2*%
X126365000Y-104457500D03*
%TD*%
D12*
%TO.P,D48,1,K*%
%TO.N,r4*%
X276225000Y-79887500D03*
%TO.P,D48,2,A*%
%TO.N,Net-(D48-A)*%
X276225000Y-83187500D03*
%TD*%
%TO.P,D58,1,K*%
%TO.N,r6*%
X95225000Y-117887500D03*
%TO.P,D58,2,A*%
%TO.N,Net-(D58-A)*%
X95225000Y-121187500D03*
%TD*%
D10*
%TO.P,e74,1,VDD*%
%TO.N,+5V*%
X105406250Y-132475000D03*
%TO.P,e74,2,DOUT*%
%TO.N,Net-(e74-DOUT)*%
X105406250Y-134225000D03*
%TO.P,e74,3,VSS*%
%TO.N,GND*%
X108906250Y-134225000D03*
%TO.P,e74,4,DIN*%
%TO.N,Net-(e73-DOUT)*%
X108906250Y-132475000D03*
%TD*%
D12*
%TO.P,D13,1,K*%
%TO.N,r1*%
X347725000Y-18387500D03*
%TO.P,D13,2,A*%
%TO.N,Net-(D13-A)*%
X347725000Y-21687500D03*
%TD*%
%TO.P,D29,1,K*%
%TO.N,r3*%
X99725000Y-60887500D03*
%TO.P,D29,2,A*%
%TO.N,Net-(D29-A)*%
X99725000Y-64187500D03*
%TD*%
D11*
%TO.P,SW71,1,1*%
%TO.N,Net-(D71-A)*%
X234315000Y-106997500D03*
%TO.P,SW71,2,2*%
%TO.N,c8*%
X240665000Y-104457500D03*
%TD*%
D12*
%TO.P,D36,1,K*%
%TO.N,r4*%
X161725000Y-79887500D03*
%TO.P,D36,2,A*%
%TO.N,Net-(D36-A)*%
X161725000Y-83187500D03*
%TD*%
D11*
%TO.P,SW30,1,1*%
%TO.N,Net-(D30-A)*%
X84296250Y-87947500D03*
%TO.P,SW30,2,2*%
%TO.N,c1*%
X90646250Y-85407500D03*
%TD*%
%TO.P,SW18,1,1*%
%TO.N,Net-(D18-A)*%
X134302500Y-49847500D03*
%TO.P,SW18,2,2*%
%TO.N,c4*%
X140652500Y-47307500D03*
%TD*%
D10*
%TO.P,e45,1,VDD*%
%TO.N,+5V*%
X86356250Y-94375000D03*
%TO.P,e45,2,DOUT*%
%TO.N,Net-(e45-DOUT)*%
X86356250Y-96125000D03*
%TO.P,e45,3,VSS*%
%TO.N,GND*%
X89856250Y-96125000D03*
%TO.P,e45,4,DIN*%
%TO.N,Net-(e44-DOUT)*%
X89856250Y-94375000D03*
%TD*%
D11*
%TO.P,SW60,1,1*%
%TO.N,Net-(D60-A)*%
X103346250Y-126047500D03*
%TO.P,SW60,2,2*%
%TO.N,c2*%
X109696250Y-123507500D03*
%TD*%
D12*
%TO.P,D86,1,K*%
%TO.N,r6*%
X376201885Y-117692315D03*
%TO.P,D86,2,A*%
%TO.N,Net-(D86-A)*%
X376201885Y-120992315D03*
%TD*%
D11*
%TO.P,SW5,1,1*%
%TO.N,Net-(D5-A)*%
X172402500Y-26035000D03*
%TO.P,SW5,2,2*%
%TO.N,c5*%
X178752500Y-23495000D03*
%TD*%
D12*
%TO.P,D24,1,K*%
%TO.N,r2*%
X261725000Y-41887500D03*
%TO.P,D24,2,A*%
%TO.N,Net-(D24-A)*%
X261725000Y-45187500D03*
%TD*%
D10*
%TO.P,e17,1,VDD*%
%TO.N,+5V*%
X117312500Y-56275000D03*
%TO.P,e17,2,DOUT*%
%TO.N,Net-(e17-DOUT)*%
X117312500Y-58025000D03*
%TO.P,e17,3,VSS*%
%TO.N,GND*%
X120812500Y-58025000D03*
%TO.P,e17,4,DIN*%
%TO.N,Net-(e16-DOUT)*%
X120812500Y-56275000D03*
%TD*%
D12*
%TO.P,D17,1,K*%
%TO.N,r2*%
X128725000Y-41887500D03*
%TO.P,D17,2,A*%
%TO.N,Net-(D17-A)*%
X128725000Y-45187500D03*
%TD*%
D10*
%TO.P,e71,1,VDD*%
%TO.N,+5V*%
X345912500Y-113425000D03*
%TO.P,e71,2,DOUT*%
%TO.N,Net-(e71-DOUT)*%
X345912500Y-115175000D03*
%TO.P,e71,3,VSS*%
%TO.N,GND*%
X349412500Y-115175000D03*
%TO.P,e71,4,DIN*%
%TO.N,Net-(e70-DOUT)*%
X349412500Y-113425000D03*
%TD*%
D11*
%TO.P,SW17,1,1*%
%TO.N,Net-(D17-A)*%
X115252500Y-49847500D03*
%TO.P,SW17,2,2*%
%TO.N,c3*%
X121602500Y-47307500D03*
%TD*%
%TO.P,SW74,1,1*%
%TO.N,Net-(D74-A)*%
X270033750Y-126047500D03*
%TO.P,SW74,2,2*%
%TO.N,c9*%
X276383750Y-123507500D03*
%TD*%
D12*
%TO.P,D39,1,K*%
%TO.N,r3*%
X195225000Y-60887500D03*
%TO.P,D39,2,A*%
%TO.N,Net-(D39-A)*%
X195225000Y-64187500D03*
%TD*%
D10*
%TO.P,e51,1,VDD*%
%TO.N,+5V*%
X207800000Y-94375000D03*
%TO.P,e51,2,DOUT*%
%TO.N,Net-(e51-DOUT)*%
X207800000Y-96125000D03*
%TO.P,e51,3,VSS*%
%TO.N,GND*%
X211300000Y-96125000D03*
%TO.P,e51,4,DIN*%
%TO.N,Net-(e50-DOUT)*%
X211300000Y-94375000D03*
%TD*%
D11*
%TO.P,SW42,1,1*%
%TO.N,Net-(D42-A)*%
X205740000Y-87947500D03*
%TO.P,SW42,2,2*%
%TO.N,c7*%
X212090000Y-85407500D03*
%TD*%
D10*
%TO.P,e18,1,VDD*%
%TO.N,+5V*%
X136362500Y-56275000D03*
%TO.P,e18,2,DOUT*%
%TO.N,Net-(e18-DOUT)*%
X136362500Y-58025000D03*
%TO.P,e18,3,VSS*%
%TO.N,GND*%
X139862500Y-58025000D03*
%TO.P,e18,4,DIN*%
%TO.N,Net-(e17-DOUT)*%
X139862500Y-56275000D03*
%TD*%
D11*
%TO.P,SW53,1,1*%
%TO.N,Net-(D53-A)*%
X315277500Y-68897500D03*
%TO.P,SW53,2,2*%
%TO.N,c13*%
X321627500Y-66357500D03*
%TD*%
%TO.P,SW62,1,1*%
%TO.N,Net-(D62-A)*%
X127158750Y-126047500D03*
%TO.P,SW62,2,2*%
%TO.N,c3*%
X133508750Y-123507500D03*
%TD*%
D10*
%TO.P,e42,1,VDD*%
%TO.N,+5V*%
X317337500Y-75325000D03*
%TO.P,e42,2,DOUT*%
%TO.N,Net-(e42-DOUT)*%
X317337500Y-77075000D03*
%TO.P,e42,3,VSS*%
%TO.N,GND*%
X320837500Y-77075000D03*
%TO.P,e42,4,DIN*%
%TO.N,Net-(e41-DOUT)*%
X320837500Y-75325000D03*
%TD*%
D12*
%TO.P,D15,1,K*%
%TO.N,r2*%
X90725000Y-41887500D03*
%TO.P,D15,2,A*%
%TO.N,Net-(D15-A)*%
X90725000Y-45187500D03*
%TD*%
D10*
%TO.P,e7,1,VDD*%
%TO.N,+5V*%
X217325000Y-32462500D03*
%TO.P,e7,2,DOUT*%
%TO.N,Net-(e7-DOUT)*%
X217325000Y-34212500D03*
%TO.P,e7,3,VSS*%
%TO.N,GND*%
X220825000Y-34212500D03*
%TO.P,e7,4,DIN*%
%TO.N,Net-(e6-DOUT)*%
X220825000Y-32462500D03*
%TD*%
D12*
%TO.P,D46,1,K*%
%TO.N,r4*%
X257225000Y-79887500D03*
%TO.P,D46,2,A*%
%TO.N,Net-(D46-A)*%
X257225000Y-83187500D03*
%TD*%
D11*
%TO.P,SW29,1,1*%
%TO.N,Net-(D29-A)*%
X81915000Y-68897500D03*
%TO.P,SW29,2,2*%
%TO.N,c1*%
X88265000Y-66357500D03*
%TD*%
D10*
%TO.P,e14,1,VDD*%
%TO.N,+5V*%
X336387500Y-32462500D03*
%TO.P,e14,2,DOUT*%
%TO.N,Net-(e14-DOUT)*%
X336387500Y-34212500D03*
%TO.P,e14,3,VSS*%
%TO.N,GND*%
X339887500Y-34212500D03*
%TO.P,e14,4,DIN*%
%TO.N,Net-(e12-DOUT)*%
X339887500Y-32462500D03*
%TD*%
D12*
%TO.P,D60,1,K*%
%TO.N,r6*%
X119225000Y-117887500D03*
%TO.P,D60,2,A*%
%TO.N,Net-(D60-A)*%
X119225000Y-121187500D03*
%TD*%
%TO.P,D8,1,K*%
%TO.N,r1*%
X247725000Y-18387500D03*
%TO.P,D8,2,A*%
%TO.N,Net-(D8-A)*%
X247725000Y-21687500D03*
%TD*%
%TO.P,D50,1,K*%
%TO.N,r4*%
X295225000Y-79887500D03*
%TO.P,D50,2,A*%
%TO.N,Net-(D50-A)*%
X295225000Y-83187500D03*
%TD*%
D11*
%TO.P,SW11,1,1*%
%TO.N,Net-(D11-A)*%
X296227500Y-26035000D03*
%TO.P,SW11,2,2*%
%TO.N,c11*%
X302577500Y-23495000D03*
%TD*%
D12*
%TO.P,D16,1,K*%
%TO.N,r2*%
X109725000Y-41887500D03*
%TO.P,D16,2,A*%
%TO.N,Net-(D16-A)*%
X109725000Y-45187500D03*
%TD*%
D10*
%TO.P,e26,1,VDD*%
%TO.N,+5V*%
X288762500Y-56275000D03*
%TO.P,e26,2,DOUT*%
%TO.N,Net-(e26-DOUT)*%
X288762500Y-58025000D03*
%TO.P,e26,3,VSS*%
%TO.N,GND*%
X292262500Y-58025000D03*
%TO.P,e26,4,DIN*%
%TO.N,Net-(e25-DOUT)*%
X292262500Y-56275000D03*
%TD*%
D11*
%TO.P,SW21,1,1*%
%TO.N,Net-(D21-A)*%
X191452500Y-49847500D03*
%TO.P,SW21,2,2*%
%TO.N,c7*%
X197802500Y-47307500D03*
%TD*%
D10*
%TO.P,e66,1,VDD*%
%TO.N,+5V*%
X236375000Y-113425000D03*
%TO.P,e66,2,DOUT*%
%TO.N,Net-(e66-DOUT)*%
X236375000Y-115175000D03*
%TO.P,e66,3,VSS*%
%TO.N,GND*%
X239875000Y-115175000D03*
%TO.P,e66,4,DIN*%
%TO.N,Net-(e65-DOUT)*%
X239875000Y-113425000D03*
%TD*%
D12*
%TO.P,D40,1,K*%
%TO.N,r4*%
X199725000Y-79887500D03*
%TO.P,D40,2,A*%
%TO.N,Net-(D40-A)*%
X199725000Y-83187500D03*
%TD*%
%TO.P,D65,1,K*%
%TO.N,r5*%
X190225000Y-98887500D03*
%TO.P,D65,2,A*%
%TO.N,Net-(D65-A)*%
X190225000Y-102187500D03*
%TD*%
%TO.P,D9,1,K*%
%TO.N,r1*%
X266725000Y-18387500D03*
%TO.P,D9,2,A*%
%TO.N,Net-(D9-A)*%
X266725000Y-21687500D03*
%TD*%
D11*
%TO.P,SW35,1,1*%
%TO.N,Net-(D35-A)*%
X143827500Y-68897500D03*
%TO.P,SW35,2,2*%
%TO.N,c4*%
X150177500Y-66357500D03*
%TD*%
D25*
%TO.P,U1,1,GPB0*%
%TO.N,c1*%
X60100000Y-74690000D03*
D16*
%TO.P,U1,2,GPB1*%
%TO.N,c2*%
X60100000Y-77230000D03*
%TO.P,U1,3,GPB2*%
%TO.N,c3*%
X60100000Y-79770000D03*
%TO.P,U1,4,GPB3*%
%TO.N,c4*%
X60100000Y-82310000D03*
%TO.P,U1,5,GPB4*%
%TO.N,c5*%
X60100000Y-84850000D03*
%TO.P,U1,6,GPB5*%
%TO.N,c6*%
X60100000Y-87390000D03*
%TO.P,U1,7,GPB6*%
%TO.N,c7*%
X60100000Y-89930000D03*
%TO.P,U1,8,GPB7*%
%TO.N,c8*%
X60100000Y-92470000D03*
%TO.P,U1,9,VDD*%
%TO.N,+3.3V*%
X60100000Y-95010000D03*
%TO.P,U1,10,VSS*%
%TO.N,GND*%
X60100000Y-97550000D03*
%TO.P,U1,11,NC*%
%TO.N,unconnected-(U1-NC-Pad11)*%
X60100000Y-100090000D03*
%TO.P,U1,12,SCK*%
%TO.N,scl*%
X60100000Y-102630000D03*
%TO.P,U1,13,SDA*%
%TO.N,sda*%
X60100000Y-105170000D03*
%TO.P,U1,14,NC*%
%TO.N,unconnected-(U1-NC-Pad14)*%
X60100000Y-107710000D03*
%TO.P,U1,15,A0*%
%TO.N,unconnected-(U1-A0-Pad15)*%
X67720000Y-107710000D03*
%TO.P,U1,16,A1*%
%TO.N,unconnected-(U1-A1-Pad16)*%
X67720000Y-105170000D03*
%TO.P,U1,17,A2*%
%TO.N,unconnected-(U1-A2-Pad17)*%
X67720000Y-102630000D03*
%TO.P,U1,18,~{RESET}*%
%TO.N,unconnected-(U1-~{RESET}-Pad18)*%
X67720000Y-100090000D03*
%TO.P,U1,19,INTB*%
%TO.N,unconnected-(U1-INTB-Pad19)*%
X67720000Y-97550000D03*
%TO.P,U1,20,INTA*%
%TO.N,unconnected-(U1-INTA-Pad20)*%
X67720000Y-95010000D03*
%TO.P,U1,21,GPA0*%
%TO.N,c9*%
X67720000Y-92470000D03*
%TO.P,U1,22,GPA1*%
%TO.N,c10*%
X67720000Y-89930000D03*
%TO.P,U1,23,GPA2*%
%TO.N,c11*%
X67720000Y-87390000D03*
%TO.P,U1,24,GPA3*%
%TO.N,c12*%
X67720000Y-84850000D03*
%TO.P,U1,25,GPA4*%
%TO.N,c13*%
X67720000Y-82310000D03*
%TO.P,U1,26,GPA5*%
%TO.N,c14*%
X67720000Y-79770000D03*
%TO.P,U1,27,GPA6*%
%TO.N,c15*%
X67720000Y-77230000D03*
%TO.P,U1,28,GPA7*%
%TO.N,unconnected-(U1-GPA7-Pad28)*%
X67720000Y-74690000D03*
%TD*%
D11*
%TO.P,SW24,1,1*%
%TO.N,Net-(D24-A)*%
X248602500Y-49847500D03*
%TO.P,SW24,2,2*%
%TO.N,c10*%
X254952500Y-47307500D03*
%TD*%
%TO.P,SW4,1,1*%
%TO.N,Net-(D4-A)*%
X153352500Y-26035000D03*
%TO.P,SW4,2,2*%
%TO.N,c4*%
X159702500Y-23495000D03*
%TD*%
%TO.P,SW16,1,1*%
%TO.N,Net-(D16-A)*%
X96202500Y-49847500D03*
%TO.P,SW16,2,2*%
%TO.N,c2*%
X102552500Y-47307500D03*
%TD*%
D10*
%TO.P,e78,1,VDD*%
%TO.N,+5V*%
X295906250Y-132475000D03*
%TO.P,e78,2,DOUT*%
%TO.N,Net-(e78-DOUT)*%
X295906250Y-134225000D03*
%TO.P,e78,3,VSS*%
%TO.N,GND*%
X299406250Y-134225000D03*
%TO.P,e78,4,DIN*%
%TO.N,Net-(e77-DOUT)*%
X299406250Y-132475000D03*
%TD*%
%TO.P,e34,1,VDD*%
%TO.N,+5V*%
X164937500Y-75325000D03*
%TO.P,e34,2,DOUT*%
%TO.N,Net-(e34-DOUT)*%
X164937500Y-77075000D03*
%TO.P,e34,3,VSS*%
%TO.N,GND*%
X168437500Y-77075000D03*
%TO.P,e34,4,DIN*%
%TO.N,Net-(e33-DOUT)*%
X168437500Y-75325000D03*
%TD*%
%TO.P,e79,1,VDD*%
%TO.N,+5V*%
X326862500Y-132475000D03*
%TO.P,e79,2,DOUT*%
%TO.N,Net-(e79-DOUT)*%
X326862500Y-134225000D03*
%TO.P,e79,3,VSS*%
%TO.N,GND*%
X330362500Y-134225000D03*
%TO.P,e79,4,DIN*%
%TO.N,Net-(e78-DOUT)*%
X330362500Y-132475000D03*
%TD*%
%TO.P,e1,1,VDD*%
%TO.N,+5V*%
X79212500Y-32462500D03*
%TO.P,e1,2,DOUT*%
%TO.N,Net-(e1-DOUT)*%
X79212500Y-34212500D03*
%TO.P,e1,3,VSS*%
%TO.N,GND*%
X82712500Y-34212500D03*
%TO.P,e1,4,DIN*%
%TO.N,led input*%
X82712500Y-32462500D03*
%TD*%
D11*
%TO.P,SW38,1,1*%
%TO.N,Net-(D38-A)*%
X167640000Y-87947500D03*
%TO.P,SW38,2,2*%
%TO.N,c5*%
X173990000Y-85407500D03*
%TD*%
%TO.P,SW51,1,1*%
%TO.N,Net-(D51-A)*%
X296227500Y-68897500D03*
%TO.P,SW51,2,2*%
%TO.N,c12*%
X302577500Y-66357500D03*
%TD*%
%TO.P,SW73,1,1*%
%TO.N,Net-(D73-A)*%
X253365000Y-106997500D03*
%TO.P,SW73,2,2*%
%TO.N,c9*%
X259715000Y-104457500D03*
%TD*%
D10*
%TO.P,e27,1,VDD*%
%TO.N,+5V*%
X307812500Y-56275000D03*
%TO.P,e27,2,DOUT*%
%TO.N,Net-(e27-DOUT)*%
X307812500Y-58025000D03*
%TO.P,e27,3,VSS*%
%TO.N,GND*%
X311312500Y-58025000D03*
%TO.P,e27,4,DIN*%
%TO.N,Net-(e26-DOUT)*%
X311312500Y-56275000D03*
%TD*%
D11*
%TO.P,SW69,1,1*%
%TO.N,Net-(D69-A)*%
X215265000Y-106997500D03*
%TO.P,SW69,2,2*%
%TO.N,c7*%
X221615000Y-104457500D03*
%TD*%
D10*
%TO.P,e30,1,VDD*%
%TO.N,+5V*%
X83975000Y-75325000D03*
%TO.P,e30,2,DOUT*%
%TO.N,Net-(e30-DOUT)*%
X83975000Y-77075000D03*
%TO.P,e30,3,VSS*%
%TO.N,GND*%
X87475000Y-77075000D03*
%TO.P,e30,4,DIN*%
%TO.N,Net-(e29-DOUT)*%
X87475000Y-75325000D03*
%TD*%
%TO.P,e2,1,VDD*%
%TO.N,+5V*%
X117312500Y-32462500D03*
%TO.P,e2,2,DOUT*%
%TO.N,Net-(e2-DOUT)*%
X117312500Y-34212500D03*
%TO.P,e2,3,VSS*%
%TO.N,GND*%
X120812500Y-34212500D03*
%TO.P,e2,4,DIN*%
%TO.N,Net-(e1-DOUT)*%
X120812500Y-32462500D03*
%TD*%
D11*
%TO.P,SW68,1,1*%
%TO.N,Net-(D68-A)*%
X362902500Y-49847500D03*
%TO.P,SW68,2,2*%
%TO.N,c15*%
X369252500Y-47307500D03*
%TD*%
%TO.P,SW19,1,1*%
%TO.N,Net-(D19-A)*%
X153352500Y-49847500D03*
%TO.P,SW19,2,2*%
%TO.N,c5*%
X159702500Y-47307500D03*
%TD*%
%TO.P,SW46,1,1*%
%TO.N,Net-(D46-A)*%
X243840000Y-87947500D03*
%TO.P,SW46,2,2*%
%TO.N,c9*%
X250190000Y-85407500D03*
%TD*%
D12*
%TO.P,D79,1,K*%
%TO.N,r5*%
X338225000Y-98887500D03*
%TO.P,D79,2,A*%
%TO.N,Net-(D79-A)*%
X338225000Y-102187500D03*
%TD*%
%TO.P,D31,1,K*%
%TO.N,r3*%
X118725000Y-60887500D03*
%TO.P,D31,2,A*%
%TO.N,Net-(D31-A)*%
X118725000Y-64187500D03*
%TD*%
%TO.P,D51,1,K*%
%TO.N,r3*%
X309725000Y-60887500D03*
%TO.P,D51,2,A*%
%TO.N,Net-(D51-A)*%
X309725000Y-64187500D03*
%TD*%
D11*
%TO.P,SW3,1,1*%
%TO.N,Net-(D3-A)*%
X134302500Y-26035000D03*
%TO.P,SW3,2,2*%
%TO.N,c3*%
X140652500Y-23495000D03*
%TD*%
D12*
%TO.P,D69,1,K*%
%TO.N,r5*%
X228725000Y-98887500D03*
%TO.P,D69,2,A*%
%TO.N,Net-(D69-A)*%
X228725000Y-102187500D03*
%TD*%
D10*
%TO.P,e52,1,VDD*%
%TO.N,+5V*%
X226850000Y-94375000D03*
%TO.P,e52,2,DOUT*%
%TO.N,Net-(e52-DOUT)*%
X226850000Y-96125000D03*
%TO.P,e52,3,VSS*%
%TO.N,GND*%
X230350000Y-96125000D03*
%TO.P,e52,4,DIN*%
%TO.N,Net-(e51-DOUT)*%
X230350000Y-94375000D03*
%TD*%
D12*
%TO.P,D55,1,K*%
%TO.N,r3*%
X357225000Y-60887500D03*
%TO.P,D55,2,A*%
%TO.N,Net-(D55-A)*%
X357225000Y-64187500D03*
%TD*%
D10*
%TO.P,e80,1,VDD*%
%TO.N,+5V*%
X345912500Y-132475000D03*
%TO.P,e80,2,DOUT*%
%TO.N,Net-(e80-DOUT)*%
X345912500Y-134225000D03*
%TO.P,e80,3,VSS*%
%TO.N,GND*%
X349412500Y-134225000D03*
%TO.P,e80,4,DIN*%
%TO.N,Net-(e79-DOUT)*%
X349412500Y-132475000D03*
%TD*%
D11*
%TO.P,SW15,1,1*%
%TO.N,Net-(D15-A)*%
X77152500Y-49847500D03*
%TO.P,SW15,2,2*%
%TO.N,c1*%
X83502500Y-47307500D03*
%TD*%
%TO.P,SW47,1,1*%
%TO.N,Net-(D47-A)*%
X258127500Y-68897500D03*
%TO.P,SW47,2,2*%
%TO.N,c10*%
X264477500Y-66357500D03*
%TD*%
%TO.P,SW70,1,1*%
%TO.N,Net-(D70-A)*%
X362902500Y-68897500D03*
%TO.P,SW70,2,2*%
%TO.N,c15*%
X369252500Y-66357500D03*
%TD*%
D20*
%TO.P,J1,1,Pin_1*%
%TO.N,GND*%
X45650000Y-74470000D03*
D26*
%TO.P,J1,2,Pin_2*%
%TO.N,+3.3V*%
X48190000Y-74470000D03*
%TO.P,J1,3,Pin_3*%
%TO.N,scl*%
X50730000Y-74470000D03*
%TO.P,J1,4,Pin_4*%
%TO.N,sda*%
X53270000Y-74470000D03*
%TD*%
D12*
%TO.P,D64,1,K*%
%TO.N,r6*%
X262225000Y-117887500D03*
%TO.P,D64,2,A*%
%TO.N,Net-(D64-A)*%
X262225000Y-121187500D03*
%TD*%
D11*
%TO.P,SW34,1,1*%
%TO.N,Net-(D34-A)*%
X129540000Y-87947500D03*
%TO.P,SW34,2,2*%
%TO.N,c3*%
X135890000Y-85407500D03*
%TD*%
%TO.P,SW44,1,1*%
%TO.N,Net-(D44-A)*%
X224790000Y-87947500D03*
%TO.P,SW44,2,2*%
%TO.N,c8*%
X231140000Y-85407500D03*
%TD*%
D12*
%TO.P,D81,1,K*%
%TO.N,r5*%
X357225000Y-98387500D03*
%TO.P,D81,2,A*%
%TO.N,Net-(D81-A)*%
X357225000Y-101687500D03*
%TD*%
D10*
%TO.P,e68,1,VDD*%
%TO.N,+5V*%
X274475000Y-113425000D03*
%TO.P,e68,2,DOUT*%
%TO.N,Net-(e68-DOUT)*%
X274475000Y-115175000D03*
%TO.P,e68,3,VSS*%
%TO.N,GND*%
X277975000Y-115175000D03*
%TO.P,e68,4,DIN*%
%TO.N,Net-(e67-DOUT)*%
X277975000Y-113425000D03*
%TD*%
D11*
%TO.P,SW37,1,1*%
%TO.N,Net-(D37-A)*%
X162877500Y-68897500D03*
%TO.P,SW37,2,2*%
%TO.N,c5*%
X169227500Y-66357500D03*
%TD*%
%TO.P,SW48,1,1*%
%TO.N,Net-(D48-A)*%
X262890000Y-87947500D03*
%TO.P,SW48,2,2*%
%TO.N,c10*%
X269240000Y-85407500D03*
%TD*%
D10*
%TO.P,e60,1,VDD*%
%TO.N,+5V*%
X122075000Y-113425000D03*
%TO.P,e60,2,DOUT*%
%TO.N,Net-(e60-DOUT)*%
X122075000Y-115175000D03*
%TO.P,e60,3,VSS*%
%TO.N,GND*%
X125575000Y-115175000D03*
%TO.P,e60,4,DIN*%
%TO.N,Net-(e59-DOUT)*%
X125575000Y-113425000D03*
%TD*%
D11*
%TO.P,SW6,1,1*%
%TO.N,Net-(D6-A)*%
X196215000Y-26035000D03*
%TO.P,SW6,2,2*%
%TO.N,c6*%
X202565000Y-23495000D03*
%TD*%
D12*
%TO.P,D11,1,K*%
%TO.N,r1*%
X309725000Y-18387500D03*
%TO.P,D11,2,A*%
%TO.N,Net-(D11-A)*%
X309725000Y-21687500D03*
%TD*%
D11*
%TO.P,SW54,1,1*%
%TO.N,Net-(D54-A)*%
X331946250Y-87947500D03*
%TO.P,SW54,2,2*%
%TO.N,c13*%
X338296250Y-85407500D03*
%TD*%
D10*
%TO.P,e32,1,VDD*%
%TO.N,+5V*%
X126837500Y-75325000D03*
%TO.P,e32,2,DOUT*%
%TO.N,Net-(e32-DOUT)*%
X126837500Y-77075000D03*
%TO.P,e32,3,VSS*%
%TO.N,GND*%
X130337500Y-77075000D03*
%TO.P,e32,4,DIN*%
%TO.N,Net-(e31-DOUT)*%
X130337500Y-75325000D03*
%TD*%
D11*
%TO.P,SW81,1,1*%
%TO.N,Net-(D81-A)*%
X343852500Y-106997500D03*
%TO.P,SW81,2,2*%
%TO.N,c13*%
X350202500Y-104457500D03*
%TD*%
D10*
%TO.P,e37,1,VDD*%
%TO.N,+5V*%
X222087500Y-75325000D03*
%TO.P,e37,2,DOUT*%
%TO.N,Net-(e37-DOUT)*%
X222087500Y-77075000D03*
%TO.P,e37,3,VSS*%
%TO.N,GND*%
X225587500Y-77075000D03*
%TO.P,e37,4,DIN*%
%TO.N,Net-(e36-DOUT)*%
X225587500Y-75325000D03*
%TD*%
D11*
%TO.P,SW13,1,1*%
%TO.N,Net-(D13-A)*%
X334327500Y-26035000D03*
%TO.P,SW13,2,2*%
%TO.N,c13*%
X340677500Y-23495000D03*
%TD*%
D10*
%TO.P,e57,1,VDD*%
%TO.N,+5V*%
X334006250Y-94375000D03*
%TO.P,e57,2,DOUT*%
%TO.N,Net-(e57-DOUT)*%
X334006250Y-96125000D03*
%TO.P,e57,3,VSS*%
%TO.N,GND*%
X337506250Y-96125000D03*
%TO.P,e57,4,DIN*%
%TO.N,Net-(e56-DOUT)*%
X337506250Y-94375000D03*
%TD*%
D11*
%TO.P,SW1,1,1*%
%TO.N,Net-(D1-A)*%
X77152500Y-26035000D03*
%TO.P,SW1,2,2*%
%TO.N,c1*%
X83502500Y-23495000D03*
%TD*%
D10*
%TO.P,e76,1,VDD*%
%TO.N,+5V*%
X200656250Y-132475000D03*
%TO.P,e76,2,DOUT*%
%TO.N,Net-(e76-DOUT)*%
X200656250Y-134225000D03*
%TO.P,e76,3,VSS*%
%TO.N,GND*%
X204156250Y-134225000D03*
%TO.P,e76,4,DIN*%
%TO.N,Net-(e75-DOUT)*%
X204156250Y-132475000D03*
%TD*%
%TO.P,e72,1,VDD*%
%TO.N,+5V*%
X364962500Y-113425000D03*
%TO.P,e72,2,DOUT*%
%TO.N,Net-(e72-DOUT)*%
X364962500Y-115175000D03*
%TO.P,e72,3,VSS*%
%TO.N,GND*%
X368462500Y-115175000D03*
%TO.P,e72,4,DIN*%
%TO.N,Net-(e71-DOUT)*%
X368462500Y-113425000D03*
%TD*%
D12*
%TO.P,D59,1,K*%
%TO.N,r5*%
X133225000Y-98887500D03*
%TO.P,D59,2,A*%
%TO.N,Net-(D59-A)*%
X133225000Y-102187500D03*
%TD*%
%TO.P,D5,1,K*%
%TO.N,r1*%
X185725000Y-18387500D03*
%TO.P,D5,2,A*%
%TO.N,Net-(D5-A)*%
X185725000Y-21687500D03*
%TD*%
D11*
%TO.P,SW20,1,1*%
%TO.N,Net-(D20-A)*%
X172402500Y-49847500D03*
%TO.P,SW20,2,2*%
%TO.N,c6*%
X178752500Y-47307500D03*
%TD*%
D10*
%TO.P,e61,1,VDD*%
%TO.N,+5V*%
X141125000Y-113425000D03*
%TO.P,e61,2,DOUT*%
%TO.N,Net-(e61-DOUT)*%
X141125000Y-115175000D03*
%TO.P,e61,3,VSS*%
%TO.N,GND*%
X144625000Y-115175000D03*
%TO.P,e61,4,DIN*%
%TO.N,Net-(e60-DOUT)*%
X144625000Y-113425000D03*
%TD*%
%TO.P,e59,1,VDD*%
%TO.N,+5V*%
X91118750Y-113425000D03*
%TO.P,e59,2,DOUT*%
%TO.N,Net-(e59-DOUT)*%
X91118750Y-115175000D03*
%TO.P,e59,3,VSS*%
%TO.N,GND*%
X94618750Y-115175000D03*
%TO.P,e59,4,DIN*%
%TO.N,Net-(e58-DOUT)*%
X94618750Y-113425000D03*
%TD*%
%TO.P,e35,1,VDD*%
%TO.N,+5V*%
X183987500Y-75325000D03*
%TO.P,e35,2,DOUT*%
%TO.N,Net-(e35-DOUT)*%
X183987500Y-77075000D03*
%TO.P,e35,3,VSS*%
%TO.N,GND*%
X187487500Y-77075000D03*
%TO.P,e35,4,DIN*%
%TO.N,Net-(e34-DOUT)*%
X187487500Y-75325000D03*
%TD*%
D11*
%TO.P,SW12,1,1*%
%TO.N,Net-(D12-A)*%
X315277500Y-26035000D03*
%TO.P,SW12,2,2*%
%TO.N,c12*%
X321627500Y-23495000D03*
%TD*%
D10*
%TO.P,e16,1,VDD*%
%TO.N,+5V*%
X98262500Y-56275000D03*
%TO.P,e16,2,DOUT*%
%TO.N,Net-(e16-DOUT)*%
X98262500Y-58025000D03*
%TO.P,e16,3,VSS*%
%TO.N,GND*%
X101762500Y-58025000D03*
%TO.P,e16,4,DIN*%
%TO.N,Net-(e15-DOUT)*%
X101762500Y-56275000D03*
%TD*%
D12*
%TO.P,D21,1,K*%
%TO.N,r2*%
X204725000Y-41887500D03*
%TO.P,D21,2,A*%
%TO.N,Net-(D21-A)*%
X204725000Y-45187500D03*
%TD*%
D10*
%TO.P,e24,1,VDD*%
%TO.N,+5V*%
X250662500Y-56275000D03*
%TO.P,e24,2,DOUT*%
%TO.N,Net-(e24-DOUT)*%
X250662500Y-58025000D03*
%TO.P,e24,3,VSS*%
%TO.N,GND*%
X254162500Y-58025000D03*
%TO.P,e24,4,DIN*%
%TO.N,Net-(e23-DOUT)*%
X254162500Y-56275000D03*
%TD*%
%TO.P,e10,1,VDD*%
%TO.N,+5V*%
X279237500Y-32462500D03*
%TO.P,e10,2,DOUT*%
%TO.N,Net-(e10-DOUT)*%
X279237500Y-34212500D03*
%TO.P,e10,3,VSS*%
%TO.N,GND*%
X282737500Y-34212500D03*
%TO.P,e10,4,DIN*%
%TO.N,Net-(e10-DIN)*%
X282737500Y-32462500D03*
%TD*%
D12*
%TO.P,D6,1,K*%
%TO.N,r1*%
X209725000Y-18387500D03*
%TO.P,D6,2,A*%
%TO.N,Net-(D6-A)*%
X209725000Y-21687500D03*
%TD*%
%TO.P,D33,1,K*%
%TO.N,r3*%
X138225000Y-60887500D03*
%TO.P,D33,2,A*%
%TO.N,Net-(D33-A)*%
X138225000Y-64187500D03*
%TD*%
D10*
%TO.P,e70,1,VDD*%
%TO.N,+5V*%
X319718750Y-113425000D03*
%TO.P,e70,2,DOUT*%
%TO.N,Net-(e70-DOUT)*%
X319718750Y-115175000D03*
%TO.P,e70,3,VSS*%
%TO.N,GND*%
X323218750Y-115175000D03*
%TO.P,e70,4,DIN*%
%TO.N,Net-(e69-DOUT)*%
X323218750Y-113425000D03*
%TD*%
%TO.P,e15,1,VDD*%
%TO.N,+5V*%
X79212500Y-56275000D03*
%TO.P,e15,2,DOUT*%
%TO.N,Net-(e15-DOUT)*%
X79212500Y-58025000D03*
%TO.P,e15,3,VSS*%
%TO.N,GND*%
X82712500Y-58025000D03*
%TO.P,e15,4,DIN*%
%TO.N,Net-(e14-DOUT)*%
X82712500Y-56275000D03*
%TD*%
%TO.P,e33,1,VDD*%
%TO.N,+5V*%
X145887500Y-75325000D03*
%TO.P,e33,2,DOUT*%
%TO.N,Net-(e33-DOUT)*%
X145887500Y-77075000D03*
%TO.P,e33,3,VSS*%
%TO.N,GND*%
X149387500Y-77075000D03*
%TO.P,e33,4,DIN*%
%TO.N,Net-(e32-DOUT)*%
X149387500Y-75325000D03*
%TD*%
D27*
%TO.N,r1*%
X62772615Y-33832615D03*
X62240000Y-29610000D03*
%TO.N,GND*%
X363760000Y-63700000D03*
X366820000Y-58600000D03*
X366880000Y-115750000D03*
X371120000Y-63210000D03*
X377330000Y-38930000D03*
X342110000Y-36550000D03*
X344220000Y-36050000D03*
X368170000Y-80620000D03*
X378800000Y-42650000D03*
X366829265Y-93670735D03*
X366780000Y-96720000D03*
X369670000Y-63210000D03*
X83380000Y-140900000D03*
X366540000Y-78970000D03*
X83760000Y-137300000D03*
X367100000Y-112520000D03*
%TO.N,Net-(D15-A)*%
X82500000Y-43830000D03*
%TO.N,r2*%
X79540000Y-41870000D03*
X82600000Y-41870000D03*
%TO.N,r3*%
X86070000Y-58030000D03*
X97310000Y-61090000D03*
X323220000Y-62050000D03*
X327830000Y-63940000D03*
X355390000Y-63610000D03*
X355670000Y-61510000D03*
X71330000Y-53320000D03*
X364900000Y-64030000D03*
X364850000Y-61710000D03*
X95190000Y-58220000D03*
%TO.N,Net-(D29-A)*%
X83100000Y-63750000D03*
X86840000Y-63870000D03*
%TO.N,Net-(D30-A)*%
X84970000Y-82570000D03*
X88260000Y-84610000D03*
%TO.N,r4*%
X101490000Y-80040000D03*
X362840000Y-80350000D03*
X362950000Y-82790000D03*
X68050000Y-53810000D03*
X85910000Y-68500000D03*
X102190000Y-73230000D03*
%TO.N,r5*%
X332460000Y-99060000D03*
X85340000Y-80740000D03*
X353780000Y-101780000D03*
X320880000Y-98040000D03*
X365580000Y-99250000D03*
X354920000Y-99000000D03*
X89870000Y-100200000D03*
X83520000Y-93810000D03*
X69130000Y-52260000D03*
X365470000Y-101700000D03*
X349360000Y-101610000D03*
X344250000Y-99570000D03*
%TO.N,Net-(D57-A)*%
X111660000Y-102400000D03*
X110180000Y-99280000D03*
%TO.N,r6*%
X367940000Y-120540000D03*
X71351472Y-77830000D03*
X72200000Y-60060000D03*
X73160000Y-51597500D03*
X110210000Y-116620000D03*
X101360000Y-116390000D03*
X75940000Y-55920000D03*
X75310000Y-67890000D03*
X368470000Y-117930000D03*
X74520000Y-78780000D03*
%TO.N,Net-(D58-A)*%
X94070000Y-121350000D03*
X92710000Y-119190000D03*
%TO.N,c10*%
X148700000Y-58250000D03*
X157510000Y-58820000D03*
X90940000Y-53560000D03*
X172733204Y-82227500D03*
X264200000Y-82400000D03*
X111060000Y-58340000D03*
X129880000Y-58340000D03*
X138100000Y-58660000D03*
X115420000Y-58340000D03*
X86300000Y-54380000D03*
%TO.N,c11*%
X260210000Y-61950000D03*
X88556251Y-96446528D03*
X260660000Y-55660000D03*
X266730000Y-55660000D03*
%TO.N,c12*%
X70300000Y-125270000D03*
%TO.N,c13*%
X323180000Y-60660000D03*
%TO.N,c14*%
X365410000Y-78840000D03*
X87120000Y-79430000D03*
%TO.N,c15*%
X353900000Y-79020000D03*
X81860000Y-76620000D03*
%TO.N,Net-(e2-DOUT)*%
X128010000Y-34450000D03*
X118940000Y-34410000D03*
%TO.N,+3.3V*%
X42620000Y-82680000D03*
X47140000Y-80860000D03*
%TO.N,reSwitch*%
X67960000Y-27340000D03*
X70920000Y-22540000D03*
%TO.N,a*%
X370880000Y-133410000D03*
X382330000Y-44340000D03*
%TO.N,b*%
X368530000Y-139093750D03*
X42020000Y-33310000D03*
%TO.N,+5V*%
X81120000Y-130338500D03*
X90410000Y-56150000D03*
X93790000Y-30340000D03*
X99180000Y-113210000D03*
X91560000Y-121320000D03*
X95060000Y-74880000D03*
X95649143Y-84119722D03*
X53100000Y-130860000D03*
X96490000Y-91980000D03*
X97650000Y-101490000D03*
X90500000Y-73560000D03*
X92050000Y-39150000D03*
%TD*%
D28*
%TO.N,r1*%
X64293750Y-66040000D02*
X62772615Y-64518865D01*
X90725000Y-18387500D02*
X347725000Y-18387500D01*
X62240000Y-20478700D02*
X63837700Y-18881000D01*
X62240000Y-29610000D02*
X62240000Y-20478700D01*
X90231500Y-18881000D02*
X90725000Y-18387500D01*
X62772615Y-64518865D02*
X62772615Y-33832615D01*
X63837700Y-18881000D02*
X90231500Y-18881000D01*
%TO.N,Net-(D1-A)*%
X77152500Y-26035000D02*
X77152500Y-22267500D01*
X78660000Y-20760000D02*
X89797500Y-20760000D01*
X77152500Y-22267500D02*
X78660000Y-20760000D01*
X89797500Y-20760000D02*
X90725000Y-21687500D01*
%TO.N,Net-(D2-A)*%
X115252500Y-26035000D02*
X118700000Y-22587500D01*
X118856000Y-21394000D02*
X128431500Y-21394000D01*
X118700000Y-21550000D02*
X118856000Y-21394000D01*
X128431500Y-21394000D02*
X128725000Y-21687500D01*
X118700000Y-22587500D02*
X118700000Y-21550000D01*
%TO.N,Net-(D3-A)*%
X142094000Y-21394000D02*
X142387500Y-21687500D01*
X142387500Y-21687500D02*
X147725000Y-21687500D01*
X138943500Y-21394000D02*
X142094000Y-21394000D01*
X134302500Y-26035000D02*
X138943500Y-21394000D01*
%TO.N,Net-(D4-A)*%
X159257500Y-20130000D02*
X160230000Y-20130000D01*
X153352500Y-26035000D02*
X159257500Y-20130000D01*
X160230000Y-20130000D02*
X161787500Y-21687500D01*
X161787500Y-21687500D02*
X166725000Y-21687500D01*
%TO.N,Net-(D5-A)*%
X184327500Y-20290000D02*
X185725000Y-21687500D01*
X172402500Y-26035000D02*
X176710000Y-21727500D01*
X176710000Y-20290000D02*
X184327500Y-20290000D01*
X176710000Y-21727500D02*
X176710000Y-20290000D01*
%TO.N,Net-(D6-A)*%
X208637500Y-20600000D02*
X209725000Y-21687500D01*
X196215000Y-26035000D02*
X196215000Y-22215000D01*
X196215000Y-22215000D02*
X197830000Y-20600000D01*
X197830000Y-20600000D02*
X208637500Y-20600000D01*
%TO.N,Net-(D7-A)*%
X217610000Y-19900000D02*
X226937500Y-19900000D01*
X217610000Y-23690000D02*
X217610000Y-19900000D01*
X226937500Y-19900000D02*
X228725000Y-21687500D01*
X215265000Y-26035000D02*
X217610000Y-23690000D01*
%TO.N,Net-(D8-A)*%
X235200000Y-20370000D02*
X246407500Y-20370000D01*
X246407500Y-20370000D02*
X247725000Y-21687500D01*
X234315000Y-26035000D02*
X234315000Y-21255000D01*
X234315000Y-21255000D02*
X235200000Y-20370000D01*
%TO.N,Net-(D9-A)*%
X261730000Y-20760000D02*
X262657500Y-21687500D01*
X253365000Y-26035000D02*
X258640000Y-20760000D01*
X262657500Y-21687500D02*
X266725000Y-21687500D01*
X258640000Y-20760000D02*
X261730000Y-20760000D01*
%TO.N,Net-(D10-A)*%
X285887500Y-21687500D02*
X290725000Y-21687500D01*
X285280000Y-21080000D02*
X285887500Y-21687500D01*
X282132500Y-21080000D02*
X285280000Y-21080000D01*
X277177500Y-26035000D02*
X282132500Y-21080000D01*
%TO.N,Net-(D11-A)*%
X296227500Y-26035000D02*
X300868500Y-21394000D01*
X300868500Y-21394000D02*
X309431500Y-21394000D01*
X309431500Y-21394000D02*
X309725000Y-21687500D01*
%TO.N,Net-(D12-A)*%
X324277500Y-21687500D02*
X328725000Y-21687500D01*
X315277500Y-26035000D02*
X320392500Y-20920000D01*
X320392500Y-20920000D02*
X323510000Y-20920000D01*
X323510000Y-20920000D02*
X324277500Y-21687500D01*
%TO.N,Net-(D13-A)*%
X347347500Y-21310000D02*
X347725000Y-21687500D01*
X334327500Y-26035000D02*
X339052500Y-21310000D01*
X339052500Y-21310000D02*
X347347500Y-21310000D01*
%TO.N,GND*%
X192730000Y-97350000D02*
X211870000Y-97350000D01*
X258900000Y-116510000D02*
X277950000Y-116510000D01*
X47614750Y-72505250D02*
X47614750Y-62061000D01*
X368462500Y-77872500D02*
X368462500Y-77075000D01*
X301787500Y-77075000D02*
X301787500Y-78182500D01*
X60100000Y-97550000D02*
X45650000Y-83100000D01*
X211300000Y-96780000D02*
X211870000Y-97350000D01*
X337680000Y-97565622D02*
X345524939Y-97565622D01*
X239875000Y-115175000D02*
X239875000Y-116495000D01*
X216260000Y-59420000D02*
X235150000Y-59420000D01*
X268450000Y-96125000D02*
X268450000Y-97020000D01*
X322846961Y-96367600D02*
X332421850Y-96367600D01*
X130337500Y-77075000D02*
X130337500Y-78172500D01*
X211870000Y-97350000D02*
X230570000Y-97350000D01*
X378685000Y-70020000D02*
X378685000Y-88330000D01*
X275593750Y-134225000D02*
X275593750Y-139051150D01*
X342110000Y-36550000D02*
X342110000Y-36435000D01*
X94618750Y-115175000D02*
X94618750Y-116131250D01*
X345524939Y-97565622D02*
X346722961Y-96367600D01*
X230570000Y-97350000D02*
X249590000Y-97350000D01*
X85093750Y-135986250D02*
X85040000Y-136040000D01*
X125570000Y-116510000D02*
X144660000Y-116510000D01*
X366880000Y-115750000D02*
X367887500Y-115750000D01*
X192250000Y-96125000D02*
X192250000Y-96870000D01*
X130270000Y-78240000D02*
X149310000Y-78240000D01*
X139862500Y-59402500D02*
X139880000Y-59420000D01*
X323218750Y-116428750D02*
X323300000Y-116510000D01*
X349352600Y-139157400D02*
X349412500Y-139097500D01*
X225587500Y-77075000D02*
X225587500Y-78127500D01*
X178000000Y-36070000D02*
X201980000Y-36070000D01*
X206537500Y-77075000D02*
X206537500Y-78127500D01*
X225587500Y-78127500D02*
X225700000Y-78240000D01*
X87475000Y-77075000D02*
X87475000Y-78305000D01*
X378685000Y-104280000D02*
X378685000Y-104378826D01*
X277975000Y-116485000D02*
X277950000Y-116510000D01*
X337506250Y-96125000D02*
X337506250Y-97391872D01*
X311320000Y-59420000D02*
X324075811Y-59420000D01*
X282737500Y-34212500D02*
X282737500Y-35972500D01*
X47614750Y-62061000D02*
X46513750Y-60960000D01*
X101762500Y-58025000D02*
X101762500Y-59312500D01*
X327377600Y-58267600D02*
X329630000Y-60520000D01*
X83760000Y-137300000D02*
X83800000Y-137260000D01*
X244637500Y-77075000D02*
X244637500Y-78092500D01*
X320837500Y-78137500D02*
X320940000Y-78240000D01*
X204156250Y-134225000D02*
X204156250Y-139143650D01*
X82712500Y-59402500D02*
X82730000Y-59420000D01*
X292330000Y-59420000D02*
X311320000Y-59420000D01*
X301530000Y-36070000D02*
X320710000Y-36070000D01*
X82712500Y-58025000D02*
X79777500Y-60960000D01*
X82712500Y-34212500D02*
X82712500Y-36102500D01*
X163675000Y-115175000D02*
X163675000Y-116445000D01*
X144625000Y-116475000D02*
X144660000Y-116510000D01*
X158912500Y-35927500D02*
X158770000Y-36070000D01*
X306550000Y-96125000D02*
X306550000Y-97280000D01*
X120812500Y-58025000D02*
X120812500Y-59402500D01*
X116050000Y-96700000D02*
X116700000Y-97350000D01*
X369670000Y-63210000D02*
X369469000Y-63411000D01*
X120812500Y-34212500D02*
X120812500Y-35962500D01*
X349340000Y-116510000D02*
X368480000Y-116510000D01*
X82810000Y-36200000D02*
X82940000Y-36070000D01*
X201940000Y-116510000D02*
X220850000Y-116510000D01*
X235112500Y-58025000D02*
X235112500Y-59382500D01*
X230350000Y-97130000D02*
X230570000Y-97350000D01*
X375116000Y-38930000D02*
X377330000Y-38930000D01*
X158912500Y-58025000D02*
X158912500Y-59362500D01*
X82730000Y-59420000D02*
X101870000Y-59420000D01*
X320837500Y-35942500D02*
X320710000Y-36070000D01*
X168437500Y-78222500D02*
X168420000Y-78240000D01*
X346851811Y-60520000D02*
X349104211Y-58267600D01*
X81986500Y-34938500D02*
X77177250Y-34938500D01*
X130337500Y-78172500D02*
X130270000Y-78240000D01*
X239875000Y-34212500D02*
X239875000Y-36065000D01*
X158912500Y-34212500D02*
X158912500Y-35927500D01*
X89856250Y-96125000D02*
X89856250Y-97276250D01*
X275700000Y-139157400D02*
X299490000Y-139157400D01*
X277950000Y-116510000D02*
X297050000Y-116510000D01*
X177962500Y-34212500D02*
X177962500Y-36032500D01*
X344660000Y-78240000D02*
X367190000Y-78240000D01*
X258925000Y-116485000D02*
X258900000Y-116510000D01*
X323218750Y-115175000D02*
X323218750Y-116428750D01*
X111287500Y-78172500D02*
X111220000Y-78240000D01*
X301787500Y-78182500D02*
X301730000Y-78240000D01*
X182725000Y-116505000D02*
X182720000Y-116510000D01*
X349412500Y-139097500D02*
X349412500Y-134225000D01*
X87540000Y-78240000D02*
X111220000Y-78240000D01*
X344650000Y-77075000D02*
X344650000Y-78230000D01*
X370543826Y-112520000D02*
X367100000Y-112520000D01*
X120920000Y-36070000D02*
X139940000Y-36070000D01*
X177962500Y-36032500D02*
X178000000Y-36070000D01*
X125575000Y-115175000D02*
X125575000Y-116505000D01*
X216062500Y-59222500D02*
X216260000Y-59420000D01*
X82712500Y-36102500D02*
X82810000Y-36200000D01*
X333619872Y-97565622D02*
X337680000Y-97565622D01*
X378685000Y-88330000D02*
X378685000Y-104280000D01*
X149387500Y-78162500D02*
X149310000Y-78240000D01*
X306550000Y-97280000D02*
X306620000Y-97350000D01*
X173200000Y-96125000D02*
X173200000Y-96790000D01*
X321864561Y-97350000D02*
X322846961Y-96367600D01*
X204156250Y-139143650D02*
X204170000Y-139157400D01*
X45650000Y-74470000D02*
X47614750Y-72505250D01*
X297025000Y-116485000D02*
X297050000Y-116510000D01*
X111220000Y-78240000D02*
X130270000Y-78240000D01*
X163610000Y-116510000D02*
X182720000Y-116510000D01*
X244490000Y-78240000D02*
X263660000Y-78240000D01*
X362087600Y-96367600D02*
X363190000Y-97470000D01*
X273212500Y-58025000D02*
X273212500Y-59412500D01*
X258925000Y-34212500D02*
X258925000Y-36015000D01*
X163675000Y-116445000D02*
X163610000Y-116510000D01*
X182720000Y-116510000D02*
X201940000Y-116510000D01*
X378685000Y-124002500D02*
X368462500Y-134225000D01*
X268450000Y-97020000D02*
X268780000Y-97350000D01*
X82712500Y-34212500D02*
X81986500Y-34938500D01*
X154150000Y-96125000D02*
X154150000Y-97070000D01*
X135100000Y-96125000D02*
X135100000Y-97060000D01*
X367867500Y-96720000D02*
X368462500Y-96125000D01*
X329630000Y-60520000D02*
X339770000Y-60520000D01*
X116700000Y-97350000D02*
X135390000Y-97350000D01*
X378685000Y-55645000D02*
X371120000Y-63210000D01*
X154430000Y-97350000D02*
X173760000Y-97350000D01*
X132718750Y-134225000D02*
X132718750Y-139076150D01*
X368462500Y-116492500D02*
X368462500Y-115175000D01*
X375116000Y-38930000D02*
X375116000Y-34876000D01*
X149387500Y-77075000D02*
X149387500Y-78162500D01*
X368462500Y-59652500D02*
X368462500Y-58025000D01*
X364049000Y-63411000D02*
X363760000Y-63700000D01*
X353200000Y-30440000D02*
X353200000Y-36050000D01*
X82940000Y-36070000D02*
X120920000Y-36070000D01*
X83800000Y-137260000D02*
X83800000Y-135117750D01*
X220825000Y-116485000D02*
X220850000Y-116510000D01*
X263687500Y-78212500D02*
X263660000Y-78240000D01*
X330362500Y-134225000D02*
X330362500Y-139084900D01*
X197012500Y-59052500D02*
X197380000Y-59420000D01*
X378685000Y-70020000D02*
X378685000Y-70105000D01*
X287500000Y-97200000D02*
X287350000Y-97350000D01*
X370440000Y-30200000D02*
X367940000Y-27700000D01*
X158970000Y-59420000D02*
X178010000Y-59420000D01*
X201775000Y-115175000D02*
X201775000Y-116345000D01*
X101762500Y-59312500D02*
X101870000Y-59420000D01*
X187487500Y-77075000D02*
X187487500Y-78067500D01*
X230350000Y-96125000D02*
X230350000Y-97130000D01*
X258980000Y-36070000D02*
X282640000Y-36070000D01*
X367887500Y-115750000D02*
X368462500Y-115175000D01*
X311312500Y-58025000D02*
X311312500Y-59412500D01*
X244637500Y-78092500D02*
X244490000Y-78240000D01*
X120490600Y-115417600D02*
X121583000Y-116510000D01*
X220825000Y-115175000D02*
X220825000Y-116485000D01*
X206537500Y-78127500D02*
X206650000Y-78240000D01*
X139880000Y-59420000D02*
X158970000Y-59420000D01*
X282737500Y-35972500D02*
X282640000Y-36070000D01*
X366940000Y-63411000D02*
X364049000Y-63411000D01*
X65590000Y-140900000D02*
X83380000Y-140900000D01*
X132718750Y-139076150D02*
X132800000Y-139157400D01*
X85093750Y-134225000D02*
X85093750Y-135986250D01*
X139940000Y-36070000D02*
X158770000Y-36070000D01*
X120812500Y-35962500D02*
X120920000Y-36070000D01*
X197380000Y-59420000D02*
X216260000Y-59420000D01*
X349352600Y-139157400D02*
X366802600Y-139157400D01*
X206650000Y-78240000D02*
X225700000Y-78240000D01*
X337506250Y-97391872D02*
X337680000Y-97565622D01*
X239870000Y-36070000D02*
X258980000Y-36070000D01*
X366802600Y-139157400D02*
X368850000Y-137110000D01*
X368830000Y-78240000D02*
X368462500Y-77872500D01*
X332421850Y-96367600D02*
X333619872Y-97565622D01*
X177962500Y-58025000D02*
X177962500Y-59372500D01*
X367940000Y-27700000D02*
X355940000Y-27700000D01*
X320837500Y-77075000D02*
X320837500Y-78137500D01*
X45650000Y-83100000D02*
X45650000Y-74470000D01*
X144625000Y-115175000D02*
X144625000Y-116475000D01*
X299406250Y-139073650D02*
X299490000Y-139157400D01*
X282970000Y-78240000D02*
X301730000Y-78240000D01*
X311312500Y-59412500D02*
X311320000Y-59420000D01*
X135100000Y-97060000D02*
X135390000Y-97350000D01*
X366540000Y-78970000D02*
X367190000Y-78320000D01*
X368462500Y-136682500D02*
X368462500Y-134225000D01*
X235150000Y-59420000D02*
X254440000Y-59420000D01*
X254162500Y-59142500D02*
X254440000Y-59420000D01*
X349412500Y-116437500D02*
X349340000Y-116510000D01*
X108906250Y-134225000D02*
X108906250Y-139071150D01*
X235112500Y-59382500D02*
X235150000Y-59420000D01*
X65098750Y-22860000D02*
X64293750Y-22860000D01*
X357067600Y-58267600D02*
X358710000Y-59910000D01*
X374170000Y-92940000D02*
X366880000Y-92940000D01*
X367190000Y-78320000D02*
X367190000Y-78240000D01*
X320710000Y-36070000D02*
X341745000Y-36070000D01*
X101870000Y-59420000D02*
X120830000Y-59420000D01*
X325228211Y-58267600D02*
X327377600Y-58267600D01*
X378685000Y-88330000D02*
X378685000Y-88425000D01*
X273212500Y-59412500D02*
X273220000Y-59420000D01*
X132800000Y-139157400D02*
X204170000Y-139157400D01*
X95332400Y-115417600D02*
X120490600Y-115417600D01*
X46480000Y-121790000D02*
X65590000Y-140900000D01*
X341745000Y-36070000D02*
X339887500Y-34212500D01*
X366820000Y-58600000D02*
X367887500Y-58600000D01*
X369570000Y-97232500D02*
X368462500Y-96125000D01*
X339770000Y-60520000D02*
X346851811Y-60520000D01*
X220825000Y-34212500D02*
X220825000Y-35935000D01*
X144660000Y-116510000D02*
X163610000Y-116510000D01*
X363190000Y-97470000D02*
X369570000Y-97470000D01*
X378800000Y-55530000D02*
X378685000Y-55645000D01*
X220850000Y-116510000D02*
X239860000Y-116510000D01*
X258925000Y-115175000D02*
X258925000Y-116485000D01*
X275593750Y-139051150D02*
X275700000Y-139157400D01*
X299490000Y-139157400D02*
X330290000Y-139157400D01*
X168437500Y-77075000D02*
X168437500Y-78222500D01*
X292262500Y-58025000D02*
X292262500Y-59352500D01*
X358710000Y-59910000D02*
X368720000Y-59910000D01*
X89856250Y-97276250D02*
X89930000Y-97350000D01*
X378685000Y-88425000D02*
X374170000Y-92940000D01*
X324075811Y-59420000D02*
X325228211Y-58267600D01*
X375116000Y-34876000D02*
X370440000Y-30200000D01*
X88157400Y-139157400D02*
X108820000Y-139157400D01*
X83800000Y-135117750D02*
X84692750Y-134225000D01*
X154150000Y-97070000D02*
X154430000Y-97350000D01*
X239860000Y-116510000D02*
X258900000Y-116510000D01*
X368720000Y-59910000D02*
X368462500Y-59652500D01*
X287350000Y-97350000D02*
X306620000Y-97350000D01*
X258925000Y-36015000D02*
X258980000Y-36070000D01*
X187660000Y-78240000D02*
X206650000Y-78240000D01*
X139862500Y-35992500D02*
X139940000Y-36070000D01*
X292262500Y-59352500D02*
X292330000Y-59420000D01*
X220960000Y-36070000D02*
X239870000Y-36070000D01*
X211300000Y-96125000D02*
X211300000Y-96780000D01*
X367190000Y-78240000D02*
X368830000Y-78240000D01*
X301730000Y-78240000D02*
X320940000Y-78240000D01*
X378685000Y-55645000D02*
X378685000Y-70020000D01*
X177962500Y-59372500D02*
X178010000Y-59420000D01*
X301787500Y-35722500D02*
X301787500Y-34212500D01*
X120830000Y-59420000D02*
X139880000Y-59420000D01*
X366880000Y-93620000D02*
X366829265Y-93670735D01*
X378685000Y-104378826D02*
X370543826Y-112520000D01*
X368850000Y-137070000D02*
X368462500Y-136682500D01*
X158770000Y-36070000D02*
X178000000Y-36070000D01*
X201775000Y-116345000D02*
X201940000Y-116510000D01*
X368480000Y-116510000D02*
X368462500Y-116492500D01*
X366880000Y-92940000D02*
X366880000Y-93620000D01*
X108820000Y-139157400D02*
X132800000Y-139157400D01*
X116050000Y-96125000D02*
X116050000Y-96700000D01*
X378685000Y-70105000D02*
X368170000Y-80620000D01*
X339887500Y-58025000D02*
X339887500Y-60402500D01*
X297025000Y-115175000D02*
X297025000Y-116485000D01*
X273220000Y-59420000D02*
X292330000Y-59420000D01*
X225700000Y-78240000D02*
X244490000Y-78240000D01*
X249400000Y-96125000D02*
X249400000Y-97160000D01*
X353281250Y-36050000D02*
X353200000Y-36050000D01*
X249590000Y-97350000D02*
X268780000Y-97350000D01*
X125575000Y-116505000D02*
X125570000Y-116510000D01*
X201980000Y-36070000D02*
X220960000Y-36070000D01*
X349412500Y-115175000D02*
X349412500Y-116437500D01*
X268780000Y-97350000D02*
X287350000Y-97350000D01*
X197012500Y-58025000D02*
X197012500Y-59052500D01*
X239875000Y-116495000D02*
X239860000Y-116510000D01*
X239875000Y-36065000D02*
X239870000Y-36070000D01*
X323300000Y-116510000D02*
X349340000Y-116510000D01*
X178010000Y-59420000D02*
X197380000Y-59420000D01*
X173760000Y-97350000D02*
X192730000Y-97350000D01*
X339887500Y-60402500D02*
X339770000Y-60520000D01*
X349104211Y-58267600D02*
X357067600Y-58267600D01*
X342110000Y-36435000D02*
X341745000Y-36070000D01*
X192250000Y-96870000D02*
X192730000Y-97350000D01*
X277975000Y-115175000D02*
X277975000Y-116485000D01*
X320837500Y-34212500D02*
X320837500Y-35942500D01*
X301530000Y-35980000D02*
X301787500Y-35722500D01*
X120812500Y-59402500D02*
X120830000Y-59420000D01*
X378685000Y-104280000D02*
X378685000Y-124002500D01*
X139862500Y-58025000D02*
X139862500Y-59402500D01*
X85040000Y-136040000D02*
X88157400Y-139157400D01*
X346722961Y-96367600D02*
X362087600Y-96367600D01*
X282737500Y-78007500D02*
X282970000Y-78240000D01*
X378800000Y-42650000D02*
X378800000Y-55530000D01*
X158912500Y-59362500D02*
X158970000Y-59420000D01*
X94618750Y-116131250D02*
X95332400Y-115417600D01*
X263660000Y-78240000D02*
X282970000Y-78240000D01*
X282737500Y-77075000D02*
X282737500Y-78007500D01*
X287500000Y-96125000D02*
X287500000Y-97200000D01*
X89930000Y-97350000D02*
X116700000Y-97350000D01*
X369469000Y-63411000D02*
X366940000Y-63411000D01*
X355940000Y-27700000D02*
X353200000Y-30440000D01*
X306620000Y-97350000D02*
X321864561Y-97350000D01*
X135390000Y-97350000D02*
X154430000Y-97350000D01*
X368850000Y-137110000D02*
X368850000Y-137070000D01*
X282640000Y-36070000D02*
X301530000Y-36070000D01*
X353200000Y-36050000D02*
X344220000Y-36050000D01*
X263687500Y-77075000D02*
X263687500Y-78212500D01*
X220825000Y-35935000D02*
X220960000Y-36070000D01*
X201775000Y-35865000D02*
X201980000Y-36070000D01*
X173200000Y-96790000D02*
X173760000Y-97350000D01*
X330362500Y-139084900D02*
X330290000Y-139157400D01*
X187487500Y-78067500D02*
X187660000Y-78240000D01*
X182725000Y-115175000D02*
X182725000Y-116505000D01*
X369570000Y-97470000D02*
X369570000Y-97232500D01*
X108906250Y-139071150D02*
X108820000Y-139157400D01*
X330290000Y-139157400D02*
X349352600Y-139157400D01*
X344650000Y-78230000D02*
X344660000Y-78240000D01*
X111287500Y-77075000D02*
X111287500Y-78172500D01*
X168420000Y-78240000D02*
X187660000Y-78240000D01*
X82712500Y-58025000D02*
X82712500Y-59402500D01*
X149310000Y-78240000D02*
X168420000Y-78240000D01*
X87475000Y-78305000D02*
X87540000Y-78240000D01*
X249400000Y-97160000D02*
X249590000Y-97350000D01*
X139862500Y-34212500D02*
X139862500Y-35992500D01*
X79777500Y-60960000D02*
X64293750Y-60960000D01*
X216062500Y-58025000D02*
X216062500Y-59222500D01*
X301530000Y-36070000D02*
X301530000Y-35980000D01*
X121583000Y-116510000D02*
X125570000Y-116510000D01*
X201775000Y-34212500D02*
X201775000Y-35865000D01*
X367887500Y-58600000D02*
X368462500Y-58025000D01*
X254440000Y-59420000D02*
X273220000Y-59420000D01*
X77177250Y-34938500D02*
X65098750Y-22860000D01*
X366780000Y-96720000D02*
X367867500Y-96720000D01*
X320940000Y-78240000D02*
X344660000Y-78240000D01*
X297050000Y-116510000D02*
X323300000Y-116510000D01*
X204170000Y-139157400D02*
X275700000Y-139157400D01*
X299406250Y-134225000D02*
X299406250Y-139073650D01*
X254162500Y-58025000D02*
X254162500Y-59142500D01*
%TO.N,Net-(D15-A)*%
X83857500Y-45187500D02*
X82500000Y-43830000D01*
X90725000Y-45187500D02*
X83857500Y-45187500D01*
%TO.N,r2*%
X82617500Y-41887500D02*
X90725000Y-41887500D01*
X319225000Y-41887500D02*
X350442500Y-41887500D01*
X63817156Y-59521000D02*
X66349800Y-59521000D01*
X66349800Y-59521000D02*
X75051500Y-50819300D01*
X63187750Y-60150406D02*
X63817156Y-59521000D01*
X75051500Y-50819300D02*
X75051500Y-46358500D01*
X82600000Y-41870000D02*
X82617500Y-41887500D01*
X355130000Y-41940000D02*
X376277500Y-41940000D01*
X352760000Y-39570000D02*
X355130000Y-41940000D01*
X75051500Y-46358500D02*
X79540000Y-41870000D01*
X63187750Y-62394000D02*
X63187750Y-60150406D01*
X64293750Y-63500000D02*
X63187750Y-62394000D01*
X350442500Y-41887500D02*
X352760000Y-39570000D01*
X376277500Y-41940000D02*
X376225000Y-41887500D01*
X90725000Y-41887500D02*
X319225000Y-41887500D01*
%TO.N,Net-(D16-A)*%
X100862500Y-45187500D02*
X96202500Y-49847500D01*
X109725000Y-45187500D02*
X100862500Y-45187500D01*
%TO.N,Net-(D17-A)*%
X119912500Y-45187500D02*
X128725000Y-45187500D01*
X115252500Y-49847500D02*
X119912500Y-45187500D01*
%TO.N,Net-(D18-A)*%
X134302500Y-49847500D02*
X138962500Y-45187500D01*
X134302500Y-49062500D02*
X134060000Y-48820000D01*
X138962500Y-45187500D02*
X147725000Y-45187500D01*
%TO.N,Net-(D19-A)*%
X158520000Y-44680000D02*
X159590000Y-44680000D01*
X153352500Y-49847500D02*
X158520000Y-44680000D01*
X160097500Y-45187500D02*
X166725000Y-45187500D01*
X159590000Y-44680000D02*
X160097500Y-45187500D01*
%TO.N,Net-(D20-A)*%
X181065000Y-49847500D02*
X185725000Y-45187500D01*
X172402500Y-49847500D02*
X181065000Y-49847500D01*
%TO.N,Net-(D21-A)*%
X200065000Y-49847500D02*
X204725000Y-45187500D01*
X191452500Y-49847500D02*
X200065000Y-49847500D01*
%TO.N,Net-(D22-A)*%
X210502500Y-49847500D02*
X219065000Y-49847500D01*
X219065000Y-49847500D02*
X223725000Y-45187500D01*
%TO.N,Net-(D23-A)*%
X238065000Y-49847500D02*
X242725000Y-45187500D01*
X229552500Y-49847500D02*
X238065000Y-49847500D01*
%TO.N,Net-(D24-A)*%
X253262500Y-45187500D02*
X261725000Y-45187500D01*
X248602500Y-49847500D02*
X253262500Y-45187500D01*
%TO.N,Net-(D25-A)*%
X276065000Y-49847500D02*
X280725000Y-45187500D01*
X267652500Y-49847500D02*
X276065000Y-49847500D01*
%TO.N,Net-(D26-A)*%
X291362500Y-45187500D02*
X300225000Y-45187500D01*
X286702500Y-49847500D02*
X291362500Y-45187500D01*
%TO.N,Net-(D27-A)*%
X310412500Y-45187500D02*
X319225000Y-45187500D01*
X305752500Y-49847500D02*
X310412500Y-45187500D01*
%TO.N,Net-(D28-A)*%
X334327500Y-49847500D02*
X341312500Y-42862500D01*
X341312500Y-42862500D02*
X352725000Y-42862500D01*
%TO.N,r3*%
X356602500Y-61510000D02*
X357225000Y-60887500D01*
X373070000Y-64030000D02*
X376225000Y-60875000D01*
X86070000Y-58030000D02*
X95000000Y-58030000D01*
X97310000Y-61090000D02*
X97512500Y-60887500D01*
X97512500Y-60887500D02*
X99725000Y-60887500D01*
X364027500Y-60887500D02*
X364850000Y-61710000D01*
X330140000Y-63610000D02*
X355390000Y-63610000D01*
X64293750Y-58420000D02*
X65610000Y-58420000D01*
X65610000Y-58420000D02*
X69910000Y-54120000D01*
X309725000Y-60887500D02*
X322057500Y-60887500D01*
X327830000Y-63940000D02*
X327830000Y-64130000D01*
X322057500Y-60887500D02*
X323220000Y-62050000D01*
X357225000Y-60887500D02*
X364027500Y-60887500D01*
X355670000Y-61510000D02*
X356602500Y-61510000D01*
X69910000Y-54120000D02*
X70710000Y-53320000D01*
X327830000Y-64130000D02*
X328725000Y-65025000D01*
X376225000Y-60875000D02*
X376225000Y-60387500D01*
X328725000Y-65025000D02*
X330140000Y-63610000D01*
X70710000Y-53320000D02*
X71330000Y-53320000D01*
X99725000Y-60887500D02*
X309725000Y-60887500D01*
X95000000Y-58030000D02*
X95190000Y-58220000D01*
X364900000Y-64030000D02*
X373070000Y-64030000D01*
%TO.N,Net-(D29-A)*%
X86840000Y-63870000D02*
X87157500Y-64187500D01*
X83100000Y-67712500D02*
X83100000Y-63750000D01*
X81915000Y-68897500D02*
X83100000Y-67712500D01*
X87157500Y-64187500D02*
X99725000Y-64187500D01*
%TO.N,Net-(D30-A)*%
X84296250Y-87947500D02*
X84970000Y-87273750D01*
X88260000Y-84610000D02*
X89682500Y-83187500D01*
X84970000Y-87273750D02*
X84970000Y-82570000D01*
X89682500Y-83187500D02*
X104725000Y-83187500D01*
%TO.N,r4*%
X64293750Y-55880000D02*
X65980000Y-55880000D01*
X101490000Y-80040000D02*
X101642500Y-79887500D01*
X97460000Y-68500000D02*
X102190000Y-73230000D01*
X362950000Y-82790000D02*
X372822500Y-82790000D01*
X101642500Y-79887500D02*
X104725000Y-79887500D01*
X357225000Y-79387500D02*
X361877500Y-79387500D01*
X65980000Y-55880000D02*
X68050000Y-53810000D01*
X85910000Y-68500000D02*
X97460000Y-68500000D01*
X356725000Y-79887500D02*
X357225000Y-79387500D01*
X361877500Y-79387500D02*
X362840000Y-80350000D01*
X104725000Y-79887500D02*
X356725000Y-79887500D01*
X372822500Y-82790000D02*
X376225000Y-79387500D01*
%TO.N,Net-(D31-A)*%
X110437500Y-64187500D02*
X118725000Y-64187500D01*
X105727500Y-68897500D02*
X110437500Y-64187500D01*
%TO.N,Net-(D32-A)*%
X110490000Y-87947500D02*
X118965000Y-87947500D01*
X118965000Y-87947500D02*
X123725000Y-83187500D01*
%TO.N,Net-(D33-A)*%
X133515000Y-68897500D02*
X138225000Y-64187500D01*
X124777500Y-68897500D02*
X133515000Y-68897500D01*
%TO.N,Net-(D34-A)*%
X129540000Y-87947500D02*
X137965000Y-87947500D01*
X137965000Y-87947500D02*
X142725000Y-83187500D01*
%TO.N,Net-(D35-A)*%
X148537500Y-64187500D02*
X157225000Y-64187500D01*
X143827500Y-68897500D02*
X148537500Y-64187500D01*
%TO.N,Net-(D36-A)*%
X148590000Y-87947500D02*
X156965000Y-87947500D01*
X156965000Y-87947500D02*
X161725000Y-83187500D01*
%TO.N,Net-(D37-A)*%
X167587500Y-64187500D02*
X176225000Y-64187500D01*
X162877500Y-68897500D02*
X167587500Y-64187500D01*
%TO.N,Net-(D38-A)*%
X172400000Y-83187500D02*
X180725000Y-83187500D01*
X167640000Y-87947500D02*
X172400000Y-83187500D01*
%TO.N,Net-(D39-A)*%
X181927500Y-68897500D02*
X188802500Y-68897500D01*
X188802500Y-68897500D02*
X193512500Y-64187500D01*
X193512500Y-64187500D02*
X195225000Y-64187500D01*
%TO.N,Net-(D40-A)*%
X194965000Y-87947500D02*
X199725000Y-83187500D01*
X186690000Y-87947500D02*
X194965000Y-87947500D01*
%TO.N,Net-(D41-A)*%
X200977500Y-68897500D02*
X209515000Y-68897500D01*
X209515000Y-68897500D02*
X214225000Y-64187500D01*
%TO.N,Net-(D42-A)*%
X214465000Y-87947500D02*
X219225000Y-83187500D01*
X205740000Y-87947500D02*
X214465000Y-87947500D01*
%TO.N,Net-(D43-A)*%
X220027500Y-68897500D02*
X224737500Y-64187500D01*
X224737500Y-64187500D02*
X233225000Y-64187500D01*
%TO.N,Net-(D44-A)*%
X233465000Y-87947500D02*
X238225000Y-83187500D01*
X224790000Y-87947500D02*
X233465000Y-87947500D01*
%TO.N,Net-(D45-A)*%
X252225000Y-64187500D02*
X247515000Y-68897500D01*
X247515000Y-68897500D02*
X239077500Y-68897500D01*
%TO.N,Net-(D46-A)*%
X243840000Y-87947500D02*
X252465000Y-87947500D01*
X252465000Y-87947500D02*
X257225000Y-83187500D01*
%TO.N,Net-(D47-A)*%
X262837500Y-64187500D02*
X271225000Y-64187500D01*
X258127500Y-68897500D02*
X262837500Y-64187500D01*
%TO.N,Net-(D48-A)*%
X262890000Y-87947500D02*
X267650000Y-83187500D01*
X267650000Y-83187500D02*
X276225000Y-83187500D01*
%TO.N,Net-(D49-A)*%
X277177500Y-68897500D02*
X286015000Y-68897500D01*
X286015000Y-68897500D02*
X290725000Y-64187500D01*
%TO.N,Net-(D50-A)*%
X290465000Y-87947500D02*
X295225000Y-83187500D01*
X281940000Y-87947500D02*
X290465000Y-87947500D01*
%TO.N,Net-(D51-A)*%
X296227500Y-68897500D02*
X303152500Y-68897500D01*
X307862500Y-64187500D02*
X309725000Y-64187500D01*
X303152500Y-68897500D02*
X307862500Y-64187500D01*
%TO.N,Net-(D52-A)*%
X300990000Y-87947500D02*
X309465000Y-87947500D01*
X309465000Y-87947500D02*
X314225000Y-83187500D01*
%TO.N,Net-(D53-A)*%
X315277500Y-68897500D02*
X328152500Y-68897500D01*
X328152500Y-68897500D02*
X328725000Y-68325000D01*
%TO.N,Net-(D54-A)*%
X331946250Y-87947500D02*
X351965000Y-87947500D01*
X351965000Y-87947500D02*
X357225000Y-82687500D01*
%TO.N,Net-(D55-A)*%
X339090000Y-68897500D02*
X352515000Y-68897500D01*
X352515000Y-68897500D02*
X357225000Y-64187500D01*
%TO.N,r5*%
X83520000Y-91748934D02*
X83520000Y-93810000D01*
X332460000Y-99060000D02*
X332632500Y-98887500D01*
X349360000Y-101610000D02*
X352650000Y-101610000D01*
X357225000Y-98387500D02*
X364717500Y-98387500D01*
X355532500Y-98387500D02*
X357225000Y-98387500D01*
X85571000Y-80971000D02*
X85571000Y-85194534D01*
X85571000Y-85194534D02*
X87132434Y-86755968D01*
X114225000Y-98887500D02*
X304725000Y-98887500D01*
X304725000Y-98887500D02*
X320032500Y-98887500D01*
X89870000Y-100200000D02*
X91391000Y-98679000D01*
X114016500Y-98679000D02*
X114225000Y-98887500D01*
X87132434Y-88136500D02*
X83520000Y-91748934D01*
X354920000Y-99000000D02*
X355532500Y-98387500D01*
X352650000Y-101610000D02*
X352710000Y-101550000D01*
X91391000Y-98679000D02*
X114016500Y-98679000D01*
X320032500Y-98887500D02*
X320880000Y-98040000D01*
X85340000Y-80740000D02*
X85571000Y-80971000D01*
X64293750Y-53340000D02*
X65373750Y-52260000D01*
X352710000Y-101550000D02*
X353550000Y-101550000D01*
X65373750Y-52260000D02*
X69130000Y-52260000D01*
X343567500Y-98887500D02*
X344250000Y-99570000D01*
X87132434Y-86755968D02*
X87132434Y-88136500D01*
X374562500Y-98887500D02*
X376225000Y-98887500D01*
X332632500Y-98887500D02*
X338225000Y-98887500D01*
X338225000Y-98887500D02*
X343567500Y-98887500D01*
X371750000Y-101700000D02*
X374562500Y-98887500D01*
X365470000Y-101700000D02*
X371750000Y-101700000D01*
X364717500Y-98387500D02*
X365580000Y-99250000D01*
X353550000Y-101550000D02*
X353780000Y-101780000D01*
%TO.N,Net-(D57-A)*%
X89058750Y-103924150D02*
X93702900Y-99280000D01*
X93702900Y-99280000D02*
X110180000Y-99280000D01*
X89058750Y-106997500D02*
X89058750Y-103924150D01*
X111872500Y-102187500D02*
X114225000Y-102187500D01*
X111660000Y-102400000D02*
X111872500Y-102187500D01*
%TO.N,r6*%
X74520000Y-78780000D02*
X74520000Y-100330000D01*
X368427500Y-117887500D02*
X368470000Y-117930000D01*
X65091250Y-51597500D02*
X73160000Y-51597500D01*
X75310000Y-67890000D02*
X75310000Y-73871472D01*
X74520000Y-100330000D02*
X92077500Y-117887500D01*
X99862500Y-117887500D02*
X101360000Y-116390000D01*
X75940000Y-56320000D02*
X72200000Y-60060000D01*
X119225000Y-117887500D02*
X142725000Y-117887500D01*
X373354200Y-120540000D02*
X376201885Y-117692315D01*
X110210000Y-116620000D02*
X111477500Y-117887500D01*
X262225000Y-117887500D02*
X285725000Y-117887500D01*
X95225000Y-117887500D02*
X99862500Y-117887500D01*
X92077500Y-117887500D02*
X95225000Y-117887500D01*
X367940000Y-120540000D02*
X373354200Y-120540000D01*
X64293750Y-50800000D02*
X65091250Y-51597500D01*
X285725000Y-117887500D02*
X368427500Y-117887500D01*
X75310000Y-73871472D02*
X71351472Y-77830000D01*
X75940000Y-55920000D02*
X75940000Y-56320000D01*
X111477500Y-117887500D02*
X119225000Y-117887500D01*
X142725000Y-117887500D02*
X262225000Y-117887500D01*
%TO.N,Net-(D58-A)*%
X94070000Y-121350000D02*
X95062500Y-121350000D01*
X79533750Y-126047500D02*
X79533750Y-123501916D01*
X83845666Y-119190000D02*
X92710000Y-119190000D01*
X95062500Y-121350000D02*
X95225000Y-121187500D01*
X79533750Y-123501916D02*
X83845666Y-119190000D01*
%TO.N,Net-(D59-A)*%
X128415000Y-106997500D02*
X133225000Y-102187500D01*
X120015000Y-106997500D02*
X128415000Y-106997500D01*
%TO.N,Net-(D60-A)*%
X108206250Y-121187500D02*
X119225000Y-121187500D01*
X103346250Y-126047500D02*
X108206250Y-121187500D01*
%TO.N,Net-(D61-A)*%
X147415000Y-106997500D02*
X152225000Y-102187500D01*
X139065000Y-106997500D02*
X147415000Y-106997500D01*
%TO.N,Net-(D62-A)*%
X132018750Y-121187500D02*
X142725000Y-121187500D01*
X127158750Y-126047500D02*
X132018750Y-121187500D01*
%TO.N,Net-(D63-A)*%
X158115000Y-106997500D02*
X162925000Y-102187500D01*
X162925000Y-102187500D02*
X171225000Y-102187500D01*
%TO.N,Net-(D64-A)*%
X250722500Y-126047500D02*
X255582500Y-121187500D01*
X255582500Y-121187500D02*
X262225000Y-121187500D01*
X198596250Y-126047500D02*
X250722500Y-126047500D01*
%TO.N,Net-(D65-A)*%
X185415000Y-106997500D02*
X190225000Y-102187500D01*
X177165000Y-106997500D02*
X185415000Y-106997500D01*
%TO.N,Net-(D67-A)*%
X204915000Y-106997500D02*
X196215000Y-106997500D01*
X209725000Y-102187500D02*
X204915000Y-106997500D01*
%TO.N,Net-(D68-A)*%
X369682500Y-49847500D02*
X374342500Y-45187500D01*
X374342500Y-45187500D02*
X376225000Y-45187500D01*
X362902500Y-49847500D02*
X369682500Y-49847500D01*
%TO.N,Net-(D69-A)*%
X223915000Y-106997500D02*
X215265000Y-106997500D01*
X228725000Y-102187500D02*
X223915000Y-106997500D01*
%TO.N,Net-(D70-A)*%
X371015000Y-68897500D02*
X376225000Y-63687500D01*
X362902500Y-68897500D02*
X371015000Y-68897500D01*
%TO.N,Net-(D71-A)*%
X242915000Y-106997500D02*
X234315000Y-106997500D01*
X247725000Y-102187500D02*
X242915000Y-106997500D01*
%TO.N,Net-(D72-A)*%
X363130000Y-87930000D02*
X369701263Y-87930000D01*
X362902500Y-87947500D02*
X363112500Y-87947500D01*
X369701263Y-87930000D02*
X374943763Y-82687500D01*
X363112500Y-87947500D02*
X363130000Y-87930000D01*
X374943763Y-82687500D02*
X376225000Y-82687500D01*
%TO.N,Net-(D73-A)*%
X261915000Y-106997500D02*
X266725000Y-102187500D01*
X253365000Y-106997500D02*
X261915000Y-106997500D01*
%TO.N,Net-(D74-A)*%
X270033750Y-126047500D02*
X280865000Y-126047500D01*
X280865000Y-126047500D02*
X285725000Y-121187500D01*
%TO.N,Net-(D75-A)*%
X285725000Y-102187500D02*
X280915000Y-106997500D01*
X280915000Y-106997500D02*
X272415000Y-106997500D01*
%TO.N,Net-(D76-A)*%
X293846250Y-126047500D02*
X304865000Y-126047500D01*
X304865000Y-126047500D02*
X309725000Y-121187500D01*
%TO.N,Net-(D77-A)*%
X296275000Y-102187500D02*
X291465000Y-106997500D01*
X304725000Y-102187500D02*
X296275000Y-102187500D01*
%TO.N,Net-(D79-A)*%
X317658750Y-106997500D02*
X333415000Y-106997500D01*
X333415000Y-106997500D02*
X338225000Y-102187500D01*
%TO.N,Net-(D80-A)*%
X333365000Y-126047500D02*
X338225000Y-121187500D01*
X324802500Y-126047500D02*
X333365000Y-126047500D01*
%TO.N,Net-(D81-A)*%
X351915000Y-106997500D02*
X357225000Y-101687500D01*
X343852500Y-106997500D02*
X351915000Y-106997500D01*
%TO.N,Net-(D82-A)*%
X343852500Y-126047500D02*
X348712500Y-121187500D01*
X348712500Y-121187500D02*
X357225000Y-121187500D01*
%TO.N,Net-(D85-A)*%
X362902500Y-106997500D02*
X371415000Y-106997500D01*
X371415000Y-106997500D02*
X376225000Y-102187500D01*
%TO.N,Net-(D86-A)*%
X362902500Y-126047500D02*
X371146700Y-126047500D01*
X371146700Y-126047500D02*
X376201885Y-120992315D01*
%TO.N,c10*%
X111060000Y-58340000D02*
X115420000Y-58340000D01*
X129880000Y-58340000D02*
X130291000Y-58751000D01*
X86300000Y-54380000D02*
X90120000Y-54380000D01*
X130291000Y-58751000D02*
X138009000Y-58751000D01*
X172733204Y-82227500D02*
X172905704Y-82400000D01*
X138009000Y-58751000D02*
X138100000Y-58660000D01*
X149270000Y-58820000D02*
X157510000Y-58820000D01*
X172905704Y-82400000D02*
X264200000Y-82400000D01*
X90120000Y-54380000D02*
X90940000Y-53560000D01*
X148700000Y-58250000D02*
X149270000Y-58820000D01*
%TO.N,c11*%
X260660000Y-55660000D02*
X266730000Y-55660000D01*
X88151779Y-96851000D02*
X85255250Y-96851000D01*
X84050057Y-61950000D02*
X260210000Y-61950000D01*
X88556251Y-96446528D02*
X88151779Y-96851000D01*
X85255250Y-96851000D02*
X79419000Y-91014750D01*
X79419000Y-66581057D02*
X84050057Y-61950000D01*
X79419000Y-91014750D02*
X79419000Y-66581057D01*
%TO.N,c12*%
X70300000Y-87430000D02*
X70300000Y-125270000D01*
X67720000Y-84850000D02*
X70300000Y-87430000D01*
%TO.N,c13*%
X85296457Y-60136500D02*
X322656500Y-60136500D01*
X67720000Y-82310000D02*
X79018000Y-71012000D01*
X79018000Y-71012000D02*
X79018000Y-66414957D01*
X322656500Y-60136500D02*
X323180000Y-60660000D01*
X79018000Y-66414957D02*
X85296457Y-60136500D01*
%TO.N,c14*%
X88641000Y-80951000D02*
X363299000Y-80951000D01*
X87120000Y-79430000D02*
X88641000Y-80951000D01*
X363299000Y-80951000D02*
X365410000Y-78840000D01*
%TO.N,c15*%
X353709000Y-78829000D02*
X353900000Y-79020000D01*
X84069000Y-78829000D02*
X353709000Y-78829000D01*
X81860000Y-76620000D02*
X84069000Y-78829000D01*
%TO.N,Net-(e1-DOUT)*%
X119788500Y-33486500D02*
X120812500Y-32462500D01*
X79212500Y-34212500D02*
X79938500Y-33486500D01*
X79938500Y-33486500D02*
X119788500Y-33486500D01*
%TO.N,Net-(e2-DOUT)*%
X138272500Y-32462500D02*
X139862500Y-32462500D01*
X118742500Y-34212500D02*
X118940000Y-34410000D01*
X137680000Y-32972000D02*
X137680000Y-32000000D01*
X128010000Y-34450000D02*
X129271500Y-33188500D01*
X137463500Y-33188500D02*
X137680000Y-32972000D01*
X129271500Y-33188500D02*
X137463500Y-33188500D01*
X137680000Y-32000000D02*
X137810000Y-32000000D01*
X137810000Y-32000000D02*
X138272500Y-32462500D01*
X117312500Y-34212500D02*
X118742500Y-34212500D01*
%TO.N,Net-(e3-DOUT)*%
X156513500Y-33188500D02*
X156660000Y-33042000D01*
X156660000Y-33042000D02*
X156660000Y-31830000D01*
X157292500Y-32462500D02*
X158912500Y-32462500D01*
X139059500Y-33188500D02*
X156513500Y-33188500D01*
X138035500Y-34212500D02*
X139059500Y-33188500D01*
X156660000Y-31830000D02*
X157292500Y-32462500D01*
X136362500Y-34212500D02*
X138035500Y-34212500D01*
%TO.N,Net-(e4-DOUT)*%
X157085500Y-34212500D02*
X158109500Y-33188500D01*
X158109500Y-33188500D02*
X175563500Y-33188500D01*
X176301500Y-32462500D02*
X177962500Y-32462500D01*
X175563500Y-33188500D02*
X175600000Y-33152000D01*
X175600000Y-31761000D02*
X176301500Y-32462500D01*
X155412500Y-34212500D02*
X157085500Y-34212500D01*
X175600000Y-33152000D02*
X175600000Y-31761000D01*
%TO.N,Net-(e5-DOUT)*%
X176135500Y-34212500D02*
X177159500Y-33188500D01*
X177159500Y-33188500D02*
X199376000Y-33188500D01*
X199500000Y-32000000D02*
X199640000Y-32000000D01*
X174462500Y-34212500D02*
X176135500Y-34212500D01*
X199500000Y-33064500D02*
X199500000Y-32000000D01*
X200102500Y-32462500D02*
X201775000Y-32462500D01*
X199640000Y-32000000D02*
X200102500Y-32462500D01*
X199376000Y-33188500D02*
X199500000Y-33064500D01*
%TO.N,Net-(e6-DOUT)*%
X218426000Y-31761000D02*
X219127500Y-32462500D01*
X219127500Y-32462500D02*
X220825000Y-32462500D01*
X199948000Y-34212500D02*
X200972000Y-33188500D01*
X198275000Y-34212500D02*
X199948000Y-34212500D01*
X218426000Y-33188500D02*
X218426000Y-31761000D01*
X200972000Y-33188500D02*
X218426000Y-33188500D01*
%TO.N,Net-(e7-DOUT)*%
X218998000Y-34212500D02*
X220022000Y-33188500D01*
X220022000Y-33188500D02*
X237476000Y-33188500D01*
X238300500Y-32462500D02*
X239875000Y-32462500D01*
X237476000Y-33188500D02*
X237530000Y-33134500D01*
X237599000Y-31761000D02*
X238300500Y-32462500D01*
X237530000Y-33134500D02*
X237530000Y-31761000D01*
X237530000Y-31761000D02*
X237599000Y-31761000D01*
X217325000Y-34212500D02*
X218998000Y-34212500D01*
%TO.N,Net-(e8-DOUT)*%
X256526000Y-33188500D02*
X256550000Y-33164500D01*
X256550000Y-33164500D02*
X256550000Y-31860000D01*
X238048000Y-34212500D02*
X239072000Y-33188500D01*
X256550000Y-31860000D02*
X257152500Y-32462500D01*
X257152500Y-32462500D02*
X258925000Y-32462500D01*
X239072000Y-33188500D02*
X256526000Y-33188500D01*
X236375000Y-34212500D02*
X238048000Y-34212500D01*
%TO.N,Net-(e10-DIN)*%
X280972500Y-32462500D02*
X282737500Y-32462500D01*
X280340000Y-33187000D02*
X280340000Y-31970000D01*
X258122000Y-33188500D02*
X280338500Y-33188500D01*
X255425000Y-34212500D02*
X257098000Y-34212500D01*
X280340000Y-31970000D02*
X280480000Y-31970000D01*
X257098000Y-34212500D02*
X258122000Y-33188500D01*
X280480000Y-31970000D02*
X280972500Y-32462500D01*
X280338500Y-33188500D02*
X280340000Y-33187000D01*
%TO.N,Net-(e10-DOUT)*%
X300092500Y-32462500D02*
X301787500Y-32462500D01*
X299388500Y-33188500D02*
X299410000Y-33167000D01*
X299410000Y-31780000D02*
X300092500Y-32462500D01*
X280910500Y-34212500D02*
X281934500Y-33188500D01*
X299410000Y-33167000D02*
X299410000Y-31780000D01*
X281934500Y-33188500D02*
X299388500Y-33188500D01*
X279237500Y-34212500D02*
X280910500Y-34212500D01*
%TO.N,Net-(e11-DOUT)*%
X299960500Y-34212500D02*
X300984500Y-33188500D01*
X318438500Y-33188500D02*
X318438500Y-31761000D01*
X300984500Y-33188500D02*
X318438500Y-33188500D01*
X319140000Y-32462500D02*
X320837500Y-32462500D01*
X298287500Y-34212500D02*
X299960500Y-34212500D01*
X318438500Y-31761000D02*
X319140000Y-32462500D01*
%TO.N,Net-(e12-DOUT)*%
X337660000Y-33017000D02*
X337660000Y-31520000D01*
X337660000Y-31520000D02*
X338602500Y-32462500D01*
X319010500Y-34212500D02*
X320034500Y-33188500D01*
X338602500Y-32462500D02*
X339887500Y-32462500D01*
X317337500Y-34212500D02*
X319010500Y-34212500D01*
X320034500Y-33188500D02*
X337488500Y-33188500D01*
X337488500Y-33188500D02*
X337660000Y-33017000D01*
%TO.N,Net-(e14-DOUT)*%
X342830000Y-35328000D02*
X342830000Y-37460000D01*
X81160000Y-48865184D02*
X78111500Y-51913684D01*
X340988500Y-33486500D02*
X342830000Y-35328000D01*
X338786500Y-33486500D02*
X340988500Y-33486500D01*
X78111500Y-57001000D02*
X80899000Y-57001000D01*
X80899000Y-57001000D02*
X81625000Y-56275000D01*
X81625000Y-56275000D02*
X82712500Y-56275000D01*
X81160000Y-37460000D02*
X81160000Y-48865184D01*
X338060500Y-34212500D02*
X338786500Y-33486500D01*
X342830000Y-37460000D02*
X81160000Y-37460000D01*
X336387500Y-34212500D02*
X338060500Y-34212500D01*
X78111500Y-51913684D02*
X78111500Y-57001000D01*
%TO.N,Net-(e15-DOUT)*%
X99580000Y-55640000D02*
X100215000Y-56275000D01*
X99363500Y-57001000D02*
X99420000Y-56944500D01*
X99420000Y-56944500D02*
X99420000Y-55640000D01*
X80885500Y-58025000D02*
X81909500Y-57001000D01*
X81909500Y-57001000D02*
X99363500Y-57001000D01*
X79212500Y-58025000D02*
X80885500Y-58025000D01*
X100215000Y-56275000D02*
X101762500Y-56275000D01*
X99420000Y-55640000D02*
X99580000Y-55640000D01*
%TO.N,Net-(e16-DOUT)*%
X118630000Y-55640000D02*
X119265000Y-56275000D01*
X118470000Y-56944500D02*
X118470000Y-55640000D01*
X118413500Y-57001000D02*
X118470000Y-56944500D01*
X98262500Y-58025000D02*
X99935500Y-58025000D01*
X119265000Y-56275000D02*
X120812500Y-56275000D01*
X100959500Y-57001000D02*
X118413500Y-57001000D01*
X99935500Y-58025000D02*
X100959500Y-57001000D01*
X118470000Y-55640000D02*
X118630000Y-55640000D01*
%TO.N,Net-(e17-DOUT)*%
X120009500Y-57001000D02*
X137463500Y-57001000D01*
X137580000Y-56884500D02*
X137580000Y-55461000D01*
X118985500Y-58025000D02*
X120009500Y-57001000D01*
X138394000Y-56275000D02*
X139862500Y-56275000D01*
X137463500Y-57001000D02*
X137580000Y-56884500D01*
X117312500Y-58025000D02*
X118985500Y-58025000D01*
X137580000Y-55461000D02*
X138394000Y-56275000D01*
%TO.N,Net-(e18-DOUT)*%
X136362500Y-58025000D02*
X138035500Y-58025000D01*
X139059500Y-57001000D02*
X156513500Y-57001000D01*
X156513500Y-57001000D02*
X156520000Y-56994500D01*
X156520000Y-56994500D02*
X156520000Y-55461000D01*
X138035500Y-58025000D02*
X139059500Y-57001000D01*
X156520000Y-55461000D02*
X156621000Y-55461000D01*
X156621000Y-55461000D02*
X157435000Y-56275000D01*
X157435000Y-56275000D02*
X158912500Y-56275000D01*
%TO.N,Net-(e19-DOUT)*%
X175570000Y-56994500D02*
X175570000Y-55461000D01*
X176384000Y-56275000D02*
X177962500Y-56275000D01*
X158109500Y-57001000D02*
X175563500Y-57001000D01*
X157085500Y-58025000D02*
X158109500Y-57001000D01*
X175563500Y-57001000D02*
X175570000Y-56994500D01*
X155412500Y-58025000D02*
X157085500Y-58025000D01*
X175570000Y-55461000D02*
X176384000Y-56275000D01*
%TO.N,Net-(e20-DOUT)*%
X177159500Y-57001000D02*
X194613500Y-57001000D01*
X176135500Y-58025000D02*
X177159500Y-57001000D01*
X194613500Y-55549000D02*
X194604500Y-55540000D01*
X194613500Y-57001000D02*
X194613500Y-55549000D01*
X194604500Y-55540000D02*
X196277500Y-55540000D01*
X196277500Y-55540000D02*
X197012500Y-56275000D01*
X174462500Y-58025000D02*
X176135500Y-58025000D01*
%TO.N,Net-(e21-DOUT)*%
X193512500Y-58025000D02*
X195185500Y-58025000D01*
X213663500Y-57001000D02*
X213850000Y-56814500D01*
X213850000Y-55570000D02*
X214555000Y-56275000D01*
X214555000Y-56275000D02*
X216062500Y-56275000D01*
X196209500Y-57001000D02*
X213663500Y-57001000D01*
X213850000Y-56814500D02*
X213850000Y-55570000D01*
X195185500Y-58025000D02*
X196209500Y-57001000D01*
%TO.N,Net-(e22-DOUT)*%
X214235500Y-58025000D02*
X215259500Y-57001000D01*
X212562500Y-58025000D02*
X214235500Y-58025000D01*
X233595000Y-56275000D02*
X235112500Y-56275000D01*
X232860000Y-56854500D02*
X232860000Y-55540000D01*
X232713500Y-57001000D02*
X232860000Y-56854500D01*
X232860000Y-55540000D02*
X233595000Y-56275000D01*
X215259500Y-57001000D02*
X232713500Y-57001000D01*
%TO.N,Net-(e23-DOUT)*%
X231612500Y-58025000D02*
X233285500Y-58025000D01*
X251763500Y-57001000D02*
X251880000Y-56884500D01*
X251880000Y-55461000D02*
X252694000Y-56275000D01*
X234309500Y-57001000D02*
X251763500Y-57001000D01*
X233285500Y-58025000D02*
X234309500Y-57001000D01*
X251880000Y-56884500D02*
X251880000Y-55461000D01*
X252694000Y-56275000D02*
X254162500Y-56275000D01*
%TO.N,Net-(e24-DOUT)*%
X250662500Y-58025000D02*
X252335500Y-58025000D01*
X252335500Y-58025000D02*
X253359500Y-57001000D01*
X270813500Y-57001000D02*
X270960000Y-56854500D01*
X270960000Y-56854500D02*
X270960000Y-55461000D01*
X270960000Y-55461000D02*
X271091000Y-55461000D01*
X253359500Y-57001000D02*
X270813500Y-57001000D01*
X271905000Y-56275000D02*
X273212500Y-56275000D01*
X271091000Y-55461000D02*
X271905000Y-56275000D01*
%TO.N,Net-(e25-DOUT)*%
X269712500Y-58025000D02*
X271385500Y-58025000D01*
X290785000Y-56275000D02*
X292262500Y-56275000D01*
X289971000Y-55461000D02*
X290785000Y-56275000D01*
X289910000Y-55461000D02*
X289971000Y-55461000D01*
X271385500Y-58025000D02*
X272409500Y-57001000D01*
X272409500Y-57001000D02*
X289863500Y-57001000D01*
X289863500Y-57001000D02*
X289910000Y-56954500D01*
X289910000Y-56954500D02*
X289910000Y-55461000D01*
%TO.N,Net-(e26-DOUT)*%
X309130000Y-55610000D02*
X309795000Y-56275000D01*
X290435500Y-58025000D02*
X291459500Y-57001000D01*
X288762500Y-58025000D02*
X290435500Y-58025000D01*
X309795000Y-56275000D02*
X311312500Y-56275000D01*
X308913500Y-57001000D02*
X309130000Y-56784500D01*
X309130000Y-56784500D02*
X309130000Y-55610000D01*
X291459500Y-57001000D02*
X308913500Y-57001000D01*
%TO.N,Net-(e27-DOUT)*%
X307812500Y-58025000D02*
X309485500Y-58025000D01*
X309485500Y-58025000D02*
X310509500Y-57001000D01*
X338195000Y-56275000D02*
X339887500Y-56275000D01*
X337530000Y-56959500D02*
X337530000Y-55610000D01*
X310509500Y-57001000D02*
X337488500Y-57001000D01*
X337488500Y-57001000D02*
X337530000Y-56959500D01*
X337530000Y-55610000D02*
X338195000Y-56275000D01*
%TO.N,Net-(e28-DOUT)*%
X366280000Y-55540000D02*
X367015000Y-56275000D01*
X338060500Y-58025000D02*
X339084500Y-57001000D01*
X367015000Y-56275000D02*
X368462500Y-56275000D01*
X366063500Y-57001000D02*
X366140000Y-56924500D01*
X336387500Y-58025000D02*
X338060500Y-58025000D01*
X366140000Y-55540000D02*
X366280000Y-55540000D01*
X366140000Y-56924500D02*
X366140000Y-55540000D01*
X339084500Y-57001000D02*
X366063500Y-57001000D01*
%TO.N,Net-(e29-DOUT)*%
X85050000Y-63010000D02*
X85050000Y-68787684D01*
X85050000Y-68787684D02*
X82874000Y-70963684D01*
X85349000Y-74611000D02*
X86063000Y-75325000D01*
X369563500Y-62046500D02*
X368600000Y-63010000D01*
X369563500Y-57299000D02*
X369563500Y-62046500D01*
X84919000Y-76051000D02*
X85310000Y-75660000D01*
X366635500Y-58025000D02*
X367361500Y-57299000D01*
X82874000Y-70963684D02*
X82874000Y-76051000D01*
X86063000Y-75325000D02*
X87475000Y-75325000D01*
X82874000Y-76051000D02*
X84919000Y-76051000D01*
X367361500Y-57299000D02*
X369563500Y-57299000D01*
X85310000Y-75660000D02*
X85310000Y-74611000D01*
X364962500Y-58025000D02*
X366635500Y-58025000D01*
X368600000Y-63010000D02*
X85050000Y-63010000D01*
X85310000Y-74611000D02*
X85349000Y-74611000D01*
%TO.N,Net-(e30-DOUT)*%
X85648000Y-77075000D02*
X86672000Y-76051000D01*
X86672000Y-76051000D02*
X108888500Y-76051000D01*
X83975000Y-77075000D02*
X85648000Y-77075000D01*
X108980000Y-74611000D02*
X109694000Y-75325000D01*
X108980000Y-75959500D02*
X108980000Y-74611000D01*
X108888500Y-76051000D02*
X108980000Y-75959500D01*
X109694000Y-75325000D02*
X111287500Y-75325000D01*
%TO.N,Net-(e31-DOUT)*%
X128100000Y-75889500D02*
X128100000Y-74611000D01*
X110484500Y-76051000D02*
X127938500Y-76051000D01*
X128814000Y-75325000D02*
X130337500Y-75325000D01*
X127938500Y-76051000D02*
X128100000Y-75889500D01*
X107787500Y-77075000D02*
X109460500Y-77075000D01*
X128100000Y-74611000D02*
X128814000Y-75325000D01*
X109460500Y-77075000D02*
X110484500Y-76051000D01*
%TO.N,Net-(e32-DOUT)*%
X147190000Y-75849500D02*
X147190000Y-74611000D01*
X129534500Y-76051000D02*
X146988500Y-76051000D01*
X126837500Y-77075000D02*
X128510500Y-77075000D01*
X147281000Y-74611000D02*
X147995000Y-75325000D01*
X146988500Y-76051000D02*
X147190000Y-75849500D01*
X147190000Y-74611000D02*
X147281000Y-74611000D01*
X128510500Y-77075000D02*
X129534500Y-76051000D01*
X147995000Y-75325000D02*
X149387500Y-75325000D01*
%TO.N,Net-(e33-DOUT)*%
X145887500Y-77075000D02*
X147560500Y-77075000D01*
X147560500Y-77075000D02*
X148584500Y-76051000D01*
X166038500Y-76051000D02*
X166240000Y-75849500D01*
X167075000Y-75325000D02*
X168437500Y-75325000D01*
X166240000Y-75849500D02*
X166240000Y-74611000D01*
X148584500Y-76051000D02*
X166038500Y-76051000D01*
X166361000Y-74611000D02*
X167075000Y-75325000D01*
X166240000Y-74611000D02*
X166361000Y-74611000D01*
%TO.N,Net-(e34-DOUT)*%
X164937500Y-77075000D02*
X166610500Y-77075000D01*
X186104000Y-75325000D02*
X187487500Y-75325000D01*
X167634500Y-76051000D02*
X185088500Y-76051000D01*
X166610500Y-77075000D02*
X167634500Y-76051000D01*
X185088500Y-76051000D02*
X185390000Y-75749500D01*
X185390000Y-74611000D02*
X186104000Y-75325000D01*
X185390000Y-75749500D02*
X185390000Y-74611000D01*
%TO.N,Net-(e35-DOUT)*%
X205105000Y-75325000D02*
X206537500Y-75325000D01*
X204138500Y-76051000D02*
X204370000Y-75819500D01*
X204370000Y-74611000D02*
X204391000Y-74611000D01*
X185660500Y-77075000D02*
X186684500Y-76051000D01*
X183987500Y-77075000D02*
X185660500Y-77075000D01*
X204370000Y-75819500D02*
X204370000Y-74611000D01*
X186684500Y-76051000D02*
X204138500Y-76051000D01*
X204391000Y-74611000D02*
X205105000Y-75325000D01*
%TO.N,Net-(e36-DOUT)*%
X223420000Y-74630000D02*
X224115000Y-75325000D01*
X205734500Y-76051000D02*
X223188500Y-76051000D01*
X203037500Y-77075000D02*
X204710500Y-77075000D01*
X224115000Y-75325000D02*
X225587500Y-75325000D01*
X223390000Y-74630000D02*
X223420000Y-74630000D01*
X223188500Y-76051000D02*
X223390000Y-75849500D01*
X204710500Y-77075000D02*
X205734500Y-76051000D01*
X223390000Y-75849500D02*
X223390000Y-74630000D01*
%TO.N,Net-(e37-DOUT)*%
X224784500Y-76051000D02*
X242238500Y-76051000D01*
X242260000Y-74611000D02*
X242974000Y-75325000D01*
X222087500Y-77075000D02*
X223760500Y-77075000D01*
X242260000Y-76029500D02*
X242260000Y-74611000D01*
X242238500Y-76051000D02*
X242260000Y-76029500D01*
X223760500Y-77075000D02*
X224784500Y-76051000D01*
X242974000Y-75325000D02*
X244637500Y-75325000D01*
%TO.N,Net-(e38-DOUT)*%
X261630000Y-74630000D02*
X262325000Y-75325000D01*
X242810500Y-77075000D02*
X243834500Y-76051000D01*
X241137500Y-77075000D02*
X242810500Y-77075000D01*
X261590000Y-75749500D02*
X261590000Y-74630000D01*
X262325000Y-75325000D02*
X263687500Y-75325000D01*
X243834500Y-76051000D02*
X261288500Y-76051000D01*
X261288500Y-76051000D02*
X261590000Y-75749500D01*
X261590000Y-74630000D02*
X261630000Y-74630000D01*
%TO.N,Net-(e39-DOUT)*%
X280500000Y-74770000D02*
X280570000Y-74770000D01*
X262884500Y-76051000D02*
X280338500Y-76051000D01*
X281125000Y-75325000D02*
X282737500Y-75325000D01*
X280500000Y-75889500D02*
X280500000Y-74770000D01*
X280570000Y-74770000D02*
X281125000Y-75325000D01*
X260187500Y-77075000D02*
X261860500Y-77075000D01*
X280338500Y-76051000D02*
X280500000Y-75889500D01*
X261860500Y-77075000D02*
X262884500Y-76051000D01*
%TO.N,Net-(e40-DOUT)*%
X299620000Y-75819500D02*
X299620000Y-74730000D01*
X300245000Y-75325000D02*
X301787500Y-75325000D01*
X299620000Y-74730000D02*
X299650000Y-74730000D01*
X280910500Y-77075000D02*
X281934500Y-76051000D01*
X281934500Y-76051000D02*
X299388500Y-76051000D01*
X299650000Y-74730000D02*
X300245000Y-75325000D01*
X279237500Y-77075000D02*
X280910500Y-77075000D01*
X299388500Y-76051000D02*
X299620000Y-75819500D01*
%TO.N,Net-(e41-DOUT)*%
X298287500Y-77075000D02*
X299960500Y-77075000D01*
X318438500Y-76051000D02*
X318710000Y-75779500D01*
X300984500Y-76051000D02*
X318438500Y-76051000D01*
X319424000Y-75325000D02*
X320837500Y-75325000D01*
X299960500Y-77075000D02*
X300984500Y-76051000D01*
X318710000Y-74611000D02*
X319424000Y-75325000D01*
X318710000Y-75779500D02*
X318710000Y-74611000D01*
%TO.N,Net-(e42-DOUT)*%
X342251000Y-76051000D02*
X342400000Y-75902000D01*
X343065000Y-75325000D02*
X344650000Y-75325000D01*
X342400000Y-74660000D02*
X343065000Y-75325000D01*
X319010500Y-77075000D02*
X320034500Y-76051000D01*
X320034500Y-76051000D02*
X342251000Y-76051000D01*
X317337500Y-77075000D02*
X319010500Y-77075000D01*
X342400000Y-75902000D02*
X342400000Y-74660000D01*
%TO.N,Net-(e43-DOUT)*%
X366795000Y-75325000D02*
X368462500Y-75325000D01*
X341150000Y-77075000D02*
X342823000Y-77075000D01*
X366063500Y-76051000D02*
X366260000Y-75854500D01*
X343847000Y-76051000D02*
X366063500Y-76051000D01*
X366260000Y-74800000D02*
X366270000Y-74800000D01*
X366270000Y-74800000D02*
X366795000Y-75325000D01*
X366260000Y-75854500D02*
X366260000Y-74800000D01*
X342823000Y-77075000D02*
X343847000Y-76051000D01*
%TO.N,Net-(e44-DOUT)*%
X90457250Y-89513684D02*
X90457250Y-92682750D01*
X88444000Y-94375000D02*
X89856250Y-94375000D01*
X90457250Y-92682750D02*
X90281000Y-92859000D01*
X367361500Y-76349000D02*
X369563500Y-76349000D01*
X87730000Y-94770000D02*
X87730000Y-93661000D01*
X90281000Y-92859000D02*
X86045250Y-92859000D01*
X87180000Y-82600000D02*
X87180000Y-86236434D01*
X369563500Y-76349000D02*
X369563500Y-78106500D01*
X86045250Y-92859000D02*
X85255250Y-93649000D01*
X364962500Y-77075000D02*
X366635500Y-77075000D01*
X85255250Y-95101000D02*
X87399000Y-95101000D01*
X85255250Y-93649000D02*
X85255250Y-95101000D01*
X87180000Y-86236434D02*
X90457250Y-89513684D01*
X366635500Y-77075000D02*
X367361500Y-76349000D01*
X87399000Y-95101000D02*
X87730000Y-94770000D01*
X87730000Y-93661000D02*
X88444000Y-94375000D01*
X369563500Y-78106500D02*
X366042500Y-81627500D01*
X366042500Y-81627500D02*
X88152500Y-81627500D01*
X88152500Y-81627500D02*
X87180000Y-82600000D01*
%TO.N,Net-(e45-DOUT)*%
X86356250Y-96125000D02*
X88029250Y-96125000D01*
X89053250Y-95101000D02*
X113651000Y-95101000D01*
X88029250Y-96125000D02*
X89053250Y-95101000D01*
X113780000Y-94972000D02*
X113780000Y-93661000D01*
X113780000Y-93661000D02*
X114494000Y-94375000D01*
X113651000Y-95101000D02*
X113780000Y-94972000D01*
X114494000Y-94375000D02*
X116050000Y-94375000D01*
%TO.N,Net-(e46-DOUT)*%
X114223000Y-96125000D02*
X115247000Y-95101000D01*
X132701000Y-95101000D02*
X132701000Y-93690000D01*
X132890000Y-93690000D02*
X133575000Y-94375000D01*
X112550000Y-96125000D02*
X114223000Y-96125000D01*
X133575000Y-94375000D02*
X135100000Y-94375000D01*
X115247000Y-95101000D02*
X132701000Y-95101000D01*
X132701000Y-93690000D02*
X132890000Y-93690000D01*
%TO.N,Net-(e47-DOUT)*%
X151920000Y-93710000D02*
X152585000Y-94375000D01*
X151751000Y-95101000D02*
X151920000Y-94932000D01*
X134297000Y-95101000D02*
X151751000Y-95101000D01*
X133273000Y-96125000D02*
X134297000Y-95101000D01*
X151920000Y-94932000D02*
X151920000Y-93710000D01*
X131600000Y-96125000D02*
X133273000Y-96125000D01*
X152585000Y-94375000D02*
X154150000Y-94375000D01*
%TO.N,Net-(e48-DOUT)*%
X171605000Y-94375000D02*
X173200000Y-94375000D01*
X150650000Y-96125000D02*
X152323000Y-96125000D01*
X170990000Y-94912000D02*
X170990000Y-93760000D01*
X152323000Y-96125000D02*
X153347000Y-95101000D01*
X170990000Y-93760000D02*
X171605000Y-94375000D01*
X153347000Y-95101000D02*
X170801000Y-95101000D01*
X170801000Y-95101000D02*
X170990000Y-94912000D01*
%TO.N,Net-(e49-DOUT)*%
X189900000Y-93740000D02*
X190000000Y-93740000D01*
X169700000Y-96125000D02*
X171373000Y-96125000D01*
X190000000Y-93740000D02*
X190635000Y-94375000D01*
X189900000Y-95052000D02*
X189900000Y-93740000D01*
X190635000Y-94375000D02*
X192250000Y-94375000D01*
X189851000Y-95101000D02*
X189900000Y-95052000D01*
X172397000Y-95101000D02*
X189851000Y-95101000D01*
X171373000Y-96125000D02*
X172397000Y-95101000D01*
%TO.N,Net-(e50-DOUT)*%
X188750000Y-96125000D02*
X190423000Y-96125000D01*
X191447000Y-95101000D02*
X208901000Y-95101000D01*
X208901000Y-95101000D02*
X209090000Y-94912000D01*
X190423000Y-96125000D02*
X191447000Y-95101000D01*
X209201000Y-93661000D02*
X209915000Y-94375000D01*
X209915000Y-94375000D02*
X211300000Y-94375000D01*
X209090000Y-94912000D02*
X209090000Y-93661000D01*
X209090000Y-93661000D02*
X209201000Y-93661000D01*
%TO.N,Net-(e51-DOUT)*%
X207800000Y-96125000D02*
X209473000Y-96125000D01*
X210497000Y-95101000D02*
X227951000Y-95101000D01*
X228000000Y-95052000D02*
X228000000Y-93661000D01*
X228714000Y-94375000D02*
X230350000Y-94375000D01*
X228000000Y-93661000D02*
X228714000Y-94375000D01*
X209473000Y-96125000D02*
X210497000Y-95101000D01*
X227951000Y-95101000D02*
X228000000Y-95052000D01*
%TO.N,Net-(e52-DOUT)*%
X227985000Y-96125000D02*
X229009000Y-95101000D01*
X247280000Y-93810000D02*
X247400000Y-93810000D01*
X247400000Y-93810000D02*
X247965000Y-94375000D01*
X247280000Y-94822000D02*
X247280000Y-93810000D01*
X247965000Y-94375000D02*
X249400000Y-94375000D01*
X229009000Y-95101000D02*
X247001000Y-95101000D01*
X226850000Y-96125000D02*
X227985000Y-96125000D01*
X247001000Y-95101000D02*
X247280000Y-94822000D01*
%TO.N,Net-(e53-DOUT)*%
X266051000Y-95101000D02*
X266310000Y-94842000D01*
X266310000Y-94842000D02*
X266310000Y-93740000D01*
X266310000Y-93740000D02*
X266945000Y-94375000D01*
X248597000Y-95101000D02*
X266051000Y-95101000D01*
X245900000Y-96125000D02*
X247573000Y-96125000D01*
X247573000Y-96125000D02*
X248597000Y-95101000D01*
X266945000Y-94375000D02*
X268450000Y-94375000D01*
%TO.N,Net-(e54-DOUT)*%
X266623000Y-96125000D02*
X267647000Y-95101000D01*
X285101000Y-95101000D02*
X285270000Y-94932000D01*
X264950000Y-96125000D02*
X266623000Y-96125000D01*
X267647000Y-95101000D02*
X285101000Y-95101000D01*
X285270000Y-93830000D02*
X285815000Y-94375000D01*
X285815000Y-94375000D02*
X287500000Y-94375000D01*
X285270000Y-94932000D02*
X285270000Y-93830000D01*
%TO.N,Net-(e55-DOUT)*%
X304480000Y-94772000D02*
X304480000Y-93661000D01*
X284000000Y-96125000D02*
X285673000Y-96125000D01*
X285673000Y-96125000D02*
X286697000Y-95101000D01*
X304151000Y-95101000D02*
X304480000Y-94772000D01*
X286697000Y-95101000D02*
X304151000Y-95101000D01*
X304631000Y-93661000D02*
X305345000Y-94375000D01*
X304480000Y-93661000D02*
X304631000Y-93661000D01*
X305345000Y-94375000D02*
X306550000Y-94375000D01*
%TO.N,Net-(e56-DOUT)*%
X305747000Y-95101000D02*
X335107250Y-95101000D01*
X335350000Y-94858250D02*
X335350000Y-93810000D01*
X304723000Y-96125000D02*
X305747000Y-95101000D01*
X335350000Y-93810000D02*
X335530000Y-93810000D01*
X335530000Y-93810000D02*
X336095000Y-94375000D01*
X303050000Y-96125000D02*
X304723000Y-96125000D01*
X335107250Y-95101000D02*
X335350000Y-94858250D01*
X336095000Y-94375000D02*
X337506250Y-94375000D01*
%TO.N,Net-(e57-DOUT)*%
X336030250Y-95101000D02*
X366063500Y-95101000D01*
X335006250Y-96125000D02*
X336030250Y-95101000D01*
X366210000Y-93900000D02*
X366685000Y-94375000D01*
X334006250Y-96125000D02*
X335006250Y-96125000D01*
X366063500Y-95101000D02*
X366210000Y-94954500D01*
X366685000Y-94375000D02*
X368462500Y-94375000D01*
X366210000Y-94954500D02*
X366210000Y-93900000D01*
%TO.N,Net-(e58-DOUT)*%
X92850000Y-100700000D02*
X92850000Y-106193934D01*
X367361500Y-95399000D02*
X369563500Y-95399000D01*
X366635500Y-96125000D02*
X367361500Y-95399000D01*
X90017750Y-109026184D02*
X90017750Y-114151000D01*
X92540000Y-112680000D02*
X93285000Y-113425000D01*
X93285000Y-113425000D02*
X94618750Y-113425000D01*
X92069000Y-114151000D02*
X92430000Y-113790000D01*
X92850000Y-106193934D02*
X90017750Y-109026184D01*
X369971000Y-100449000D02*
X369720000Y-100700000D01*
X90017750Y-114151000D02*
X92069000Y-114151000D01*
X105963300Y-101057400D02*
X105583400Y-100677500D01*
X105583400Y-100677500D02*
X92872500Y-100677500D01*
X369971000Y-95806500D02*
X369971000Y-100449000D01*
X92872500Y-100677500D02*
X92850000Y-100700000D01*
X348665539Y-101057400D02*
X105963300Y-101057400D01*
X349022939Y-100700000D02*
X348665539Y-101057400D01*
X92430000Y-113790000D02*
X92430000Y-112680000D01*
X369563500Y-95399000D02*
X369971000Y-95806500D01*
X364962500Y-96125000D02*
X366635500Y-96125000D01*
X369720000Y-100700000D02*
X349022939Y-100700000D01*
X92430000Y-112680000D02*
X92540000Y-112680000D01*
%TO.N,Net-(e59-DOUT)*%
X123630000Y-112640000D02*
X124415000Y-113425000D01*
X93815750Y-114151000D02*
X123176000Y-114151000D01*
X123176000Y-114151000D02*
X123470000Y-113857000D01*
X124415000Y-113425000D02*
X125575000Y-113425000D01*
X91118750Y-115175000D02*
X92791750Y-115175000D01*
X123470000Y-113857000D02*
X123470000Y-112640000D01*
X123470000Y-112640000D02*
X123630000Y-112640000D01*
X92791750Y-115175000D02*
X93815750Y-114151000D01*
%TO.N,Net-(e60-DOUT)*%
X122075000Y-115175000D02*
X123748000Y-115175000D01*
X142510000Y-112631000D02*
X143304000Y-113425000D01*
X124772000Y-114151000D02*
X142226000Y-114151000D01*
X142510000Y-113867000D02*
X142510000Y-112631000D01*
X143304000Y-113425000D02*
X144625000Y-113425000D01*
X142226000Y-114151000D02*
X142510000Y-113867000D01*
X123748000Y-115175000D02*
X124772000Y-114151000D01*
%TO.N,Net-(e61-DOUT)*%
X161276000Y-112657000D02*
X162044000Y-113425000D01*
X162044000Y-113425000D02*
X163675000Y-113425000D01*
X143822000Y-114151000D02*
X161276000Y-114151000D01*
X142798000Y-115175000D02*
X143822000Y-114151000D01*
X161276000Y-114151000D02*
X161276000Y-112657000D01*
X141125000Y-115175000D02*
X142798000Y-115175000D01*
%TO.N,Net-(e62-DOUT)*%
X180326000Y-114151000D02*
X180370000Y-114107000D01*
X180370000Y-114107000D02*
X180370000Y-112850000D01*
X160175000Y-115175000D02*
X161175000Y-115175000D01*
X161175000Y-115175000D02*
X162199000Y-114151000D01*
X180370000Y-112850000D02*
X180530000Y-112850000D01*
X180530000Y-112850000D02*
X181105000Y-113425000D01*
X162199000Y-114151000D02*
X180326000Y-114151000D01*
X181105000Y-113425000D02*
X182725000Y-113425000D01*
%TO.N,Net-(e63-DOUT)*%
X199376000Y-114151000D02*
X199460000Y-114067000D01*
X199460000Y-112631000D02*
X200254000Y-113425000D01*
X199460000Y-114067000D02*
X199460000Y-112631000D01*
X180898000Y-115175000D02*
X181922000Y-114151000D01*
X179225000Y-115175000D02*
X180898000Y-115175000D01*
X200254000Y-113425000D02*
X201775000Y-113425000D01*
X181922000Y-114151000D02*
X199376000Y-114151000D01*
%TO.N,Net-(e64-DOUT)*%
X199948000Y-115175000D02*
X200972000Y-114151000D01*
X218426000Y-114151000D02*
X218600000Y-113977000D01*
X218600000Y-113977000D02*
X218600000Y-112631000D01*
X219394000Y-113425000D02*
X220825000Y-113425000D01*
X198275000Y-115175000D02*
X199948000Y-115175000D01*
X200972000Y-114151000D02*
X218426000Y-114151000D01*
X218600000Y-112631000D02*
X219394000Y-113425000D01*
%TO.N,Net-(e65-DOUT)*%
X220022000Y-114151000D02*
X237476000Y-114151000D01*
X237670000Y-112640000D02*
X238455000Y-113425000D01*
X217325000Y-115175000D02*
X218998000Y-115175000D01*
X237580000Y-112640000D02*
X237670000Y-112640000D01*
X237580000Y-114047000D02*
X237580000Y-112640000D01*
X238455000Y-113425000D02*
X239875000Y-113425000D01*
X237476000Y-114151000D02*
X237580000Y-114047000D01*
X218998000Y-115175000D02*
X220022000Y-114151000D01*
%TO.N,Net-(e66-DOUT)*%
X236375000Y-115175000D02*
X238048000Y-115175000D01*
X238048000Y-115175000D02*
X239072000Y-114151000D01*
X239072000Y-114151000D02*
X256526000Y-114151000D01*
X256526000Y-114151000D02*
X256740000Y-113937000D01*
X257654000Y-113425000D02*
X258925000Y-113425000D01*
X256740000Y-112631000D02*
X256860000Y-112631000D01*
X256860000Y-112631000D02*
X257654000Y-113425000D01*
X256740000Y-113937000D02*
X256740000Y-112631000D01*
%TO.N,Net-(e67-DOUT)*%
X275576000Y-114151000D02*
X275670000Y-114057000D01*
X275670000Y-114057000D02*
X275670000Y-112631000D01*
X275670000Y-112631000D02*
X275781000Y-112631000D01*
X255425000Y-115175000D02*
X257098000Y-115175000D01*
X276575000Y-113425000D02*
X277975000Y-113425000D01*
X258122000Y-114151000D02*
X275576000Y-114151000D01*
X257098000Y-115175000D02*
X258122000Y-114151000D01*
X275781000Y-112631000D02*
X276575000Y-113425000D01*
%TO.N,Net-(e68-DOUT)*%
X295275000Y-113425000D02*
X297025000Y-113425000D01*
X276499000Y-114151000D02*
X294626000Y-114151000D01*
X294680000Y-112830000D02*
X295275000Y-113425000D01*
X275475000Y-115175000D02*
X276499000Y-114151000D01*
X294626000Y-114151000D02*
X294680000Y-114097000D01*
X294680000Y-114097000D02*
X294680000Y-112830000D01*
X274475000Y-115175000D02*
X275475000Y-115175000D01*
%TO.N,Net-(e69-DOUT)*%
X321130000Y-113840750D02*
X321130000Y-112631000D01*
X295198000Y-115175000D02*
X296222000Y-114151000D01*
X293525000Y-115175000D02*
X295198000Y-115175000D01*
X321935000Y-113425000D02*
X323218750Y-113425000D01*
X321130000Y-112631000D02*
X321141000Y-112631000D01*
X320819750Y-114151000D02*
X321130000Y-113840750D01*
X321141000Y-112631000D02*
X321935000Y-113425000D01*
X296222000Y-114151000D02*
X320819750Y-114151000D01*
%TO.N,Net-(e70-DOUT)*%
X347140000Y-112760000D02*
X347805000Y-113425000D01*
X321391750Y-115175000D02*
X322415750Y-114151000D01*
X319718750Y-115175000D02*
X321391750Y-115175000D01*
X347140000Y-114024500D02*
X347140000Y-112760000D01*
X347805000Y-113425000D02*
X349412500Y-113425000D01*
X347013500Y-114151000D02*
X347140000Y-114024500D01*
X322415750Y-114151000D02*
X347013500Y-114151000D01*
%TO.N,Net-(e71-DOUT)*%
X367125000Y-113425000D02*
X368462500Y-113425000D01*
X348609500Y-114151000D02*
X366063500Y-114151000D01*
X345912500Y-115175000D02*
X347585500Y-115175000D01*
X347585500Y-115175000D02*
X348609500Y-114151000D01*
X366280000Y-112580000D02*
X367125000Y-113425000D01*
X366063500Y-114151000D02*
X366280000Y-113934500D01*
X366280000Y-113934500D02*
X366280000Y-112580000D01*
%TO.N,Net-(e72-DOUT)*%
X80492750Y-128113684D02*
X80492750Y-133201000D01*
X369563500Y-114449000D02*
X369563500Y-119456500D01*
X369390000Y-119630000D02*
X106255439Y-119630000D01*
X82830000Y-131570000D02*
X83735000Y-132475000D01*
X367361500Y-114449000D02*
X369563500Y-114449000D01*
X84673500Y-120436500D02*
X82580000Y-122530000D01*
X364962500Y-115175000D02*
X366635500Y-115175000D01*
X369563500Y-119456500D02*
X369390000Y-119630000D01*
X82580000Y-122530000D02*
X82580000Y-126026434D01*
X82694750Y-133201000D02*
X82830000Y-133065750D01*
X106255439Y-119630000D02*
X105448939Y-120436500D01*
X105448939Y-120436500D02*
X84673500Y-120436500D01*
X80492750Y-133201000D02*
X82694750Y-133201000D01*
X82830000Y-133065750D02*
X82830000Y-131570000D01*
X83735000Y-132475000D02*
X85093750Y-132475000D01*
X366635500Y-115175000D02*
X367361500Y-114449000D01*
X82580000Y-126026434D02*
X80492750Y-128113684D01*
%TO.N,Net-(e73-DOUT)*%
X81593750Y-134225000D02*
X83005000Y-134225000D01*
X106550000Y-131860000D02*
X106650000Y-131860000D01*
X106650000Y-131860000D02*
X107265000Y-132475000D01*
X107265000Y-132475000D02*
X108906250Y-132475000D01*
X84029000Y-133201000D02*
X106507250Y-133201000D01*
X83005000Y-134225000D02*
X84029000Y-133201000D01*
X106550000Y-133158250D02*
X106550000Y-131860000D01*
X106507250Y-133201000D02*
X106550000Y-133158250D01*
%TO.N,Net-(e74-DOUT)*%
X130410000Y-131930000D02*
X130955000Y-132475000D01*
X130319750Y-133201000D02*
X130410000Y-133110750D01*
X130955000Y-132475000D02*
X132718750Y-132475000D01*
X108103250Y-133201000D02*
X130319750Y-133201000D01*
X105406250Y-134225000D02*
X107079250Y-134225000D01*
X107079250Y-134225000D02*
X108103250Y-133201000D01*
X130410000Y-133110750D02*
X130410000Y-131930000D01*
%TO.N,Net-(e75-DOUT)*%
X202815000Y-132475000D02*
X204156250Y-132475000D01*
X129218750Y-134225000D02*
X130891750Y-134225000D01*
X202200000Y-131860000D02*
X202815000Y-132475000D01*
X201757250Y-133201000D02*
X202060000Y-132898250D01*
X202060000Y-132898250D02*
X202060000Y-131860000D01*
X202060000Y-131860000D02*
X202200000Y-131860000D01*
X131915750Y-133201000D02*
X201757250Y-133201000D01*
X130891750Y-134225000D02*
X131915750Y-133201000D01*
%TO.N,Net-(e76-DOUT)*%
X273390000Y-131670000D02*
X273390000Y-133005750D01*
X273177472Y-133218278D02*
X202307072Y-133218278D01*
X274290000Y-131650000D02*
X274270000Y-131670000D01*
X273390000Y-133005750D02*
X273177472Y-133218278D01*
X201300350Y-134225000D02*
X200656250Y-134225000D01*
X274270000Y-131670000D02*
X273390000Y-131670000D01*
X275115000Y-132475000D02*
X274290000Y-131650000D01*
X202307072Y-133218278D02*
X201300350Y-134225000D01*
X275593750Y-132475000D02*
X275115000Y-132475000D01*
%TO.N,Net-(e77-DOUT)*%
X297070000Y-133138250D02*
X297070000Y-131570000D01*
X298155000Y-132475000D02*
X299406250Y-132475000D01*
X297250000Y-131570000D02*
X298155000Y-132475000D01*
X273766750Y-134225000D02*
X274790750Y-133201000D01*
X297007250Y-133201000D02*
X297070000Y-133138250D01*
X274790750Y-133201000D02*
X297007250Y-133201000D01*
X272093750Y-134225000D02*
X273766750Y-134225000D01*
X297070000Y-131570000D02*
X297250000Y-131570000D01*
%TO.N,Net-(e78-DOUT)*%
X327963500Y-133201000D02*
X328120000Y-133044500D01*
X329084000Y-132475000D02*
X330362500Y-132475000D01*
X295906250Y-134225000D02*
X297579250Y-134225000D01*
X297579250Y-134225000D02*
X298603250Y-133201000D01*
X298603250Y-133201000D02*
X327963500Y-133201000D01*
X328120000Y-131511000D02*
X329084000Y-132475000D01*
X328120000Y-133044500D02*
X328120000Y-131511000D01*
%TO.N,Net-(e79-DOUT)*%
X347013500Y-133201000D02*
X347330000Y-132884500D01*
X347330000Y-131570000D02*
X348235000Y-132475000D01*
X326862500Y-134225000D02*
X328535500Y-134225000D01*
X348235000Y-132475000D02*
X349412500Y-132475000D01*
X328535500Y-134225000D02*
X329559500Y-133201000D01*
X329559500Y-133201000D02*
X347013500Y-133201000D01*
X347330000Y-132884500D02*
X347330000Y-131570000D01*
%TO.N,Net-(e80-DOUT)*%
X347287500Y-134225000D02*
X348311500Y-133201000D01*
X365919000Y-133201000D02*
X367180000Y-131940000D01*
X348311500Y-133201000D02*
X365919000Y-133201000D01*
X367715000Y-132475000D02*
X368462500Y-132475000D01*
X367180000Y-131940000D02*
X367715000Y-132475000D01*
X345912500Y-134225000D02*
X347287500Y-134225000D01*
%TO.N,scl*%
X60311000Y-85951000D02*
X59643950Y-85951000D01*
X61201000Y-86841000D02*
X60311000Y-85951000D01*
X60100000Y-102630000D02*
X61201000Y-101529000D01*
X61201000Y-101529000D02*
X61201000Y-86841000D01*
X59643950Y-85951000D02*
X50730000Y-77037050D01*
X50730000Y-77037050D02*
X50730000Y-74470000D01*
%TO.N,sda*%
X60556050Y-80871000D02*
X58468919Y-80871000D01*
X53270000Y-75672081D02*
X53270000Y-74470000D01*
X61602000Y-103668000D02*
X61602000Y-81916950D01*
X58468919Y-80871000D02*
X53270000Y-75672081D01*
X61602000Y-81916950D02*
X60556050Y-80871000D01*
X60100000Y-105170000D02*
X61602000Y-103668000D01*
%TO.N,+3.3V*%
X46480000Y-119250000D02*
X42620000Y-115390000D01*
X60100000Y-95010000D02*
X48190000Y-83100000D01*
X47230000Y-80860000D02*
X48190000Y-81820000D01*
X47140000Y-80860000D02*
X47230000Y-80860000D01*
X48190000Y-81820000D02*
X48190000Y-74470000D01*
X63192750Y-29841000D02*
X65093750Y-27940000D01*
X63192750Y-32563950D02*
X63192750Y-29841000D01*
X42620000Y-115390000D02*
X42620000Y-82680000D01*
X48190000Y-83100000D02*
X48190000Y-81820000D01*
X48190000Y-47566700D02*
X63192750Y-32563950D01*
X48190000Y-74470000D02*
X48190000Y-47566700D01*
%TO.N,reSwitch*%
X67960000Y-27340000D02*
X67960000Y-43185120D01*
X365375750Y-20135750D02*
X365375750Y-19282000D01*
X370440000Y-25200000D02*
X365375750Y-20135750D01*
X67960000Y-43185120D02*
X65425120Y-45720000D01*
X74178000Y-19282000D02*
X70920000Y-22540000D01*
X365375750Y-19282000D02*
X74178000Y-19282000D01*
X65425120Y-45720000D02*
X64293750Y-45720000D01*
%TO.N,a*%
X47323344Y-59854000D02*
X47619750Y-59557594D01*
X355940000Y-25200000D02*
X367320000Y-25200000D01*
X47619750Y-31586000D02*
X46513750Y-30480000D01*
X367320000Y-25200000D02*
X382330000Y-40210000D01*
X370880000Y-139490000D02*
X370676250Y-139693750D01*
X47619750Y-59557594D02*
X47619750Y-31586000D01*
X370676250Y-139693750D02*
X72223750Y-139693750D01*
X72223750Y-139693750D02*
X43807750Y-111277750D01*
X382330000Y-40210000D02*
X382330000Y-44340000D01*
X43807750Y-111277750D02*
X43807750Y-60501878D01*
X44455628Y-59854000D02*
X47323344Y-59854000D01*
X45713750Y-30480000D02*
X46513750Y-30480000D01*
X43807750Y-60501878D02*
X44455628Y-59854000D01*
X370880000Y-133410000D02*
X370880000Y-139490000D01*
%TO.N,b*%
X377126000Y-44738390D02*
X377126000Y-45636610D01*
X369770000Y-54659000D02*
X373816100Y-54659000D01*
X368606250Y-139170000D02*
X368530000Y-139093750D01*
X380399000Y-39690000D02*
X375652500Y-44436500D01*
X379048943Y-42049000D02*
X379401000Y-42401057D01*
X369964500Y-62212600D02*
X369770000Y-62407100D01*
X373816100Y-55461000D02*
X369770000Y-55461000D01*
X374508600Y-45588500D02*
X369848600Y-50248500D01*
X370271000Y-63458943D02*
X370100943Y-63629000D01*
X370871057Y-62609000D02*
X371153900Y-62609000D01*
X369770000Y-55461000D02*
X369770000Y-56938400D01*
X378551057Y-42049000D02*
X379048943Y-42049000D01*
X378399000Y-55363900D02*
X378399000Y-43098943D01*
X373816100Y-54659000D02*
X374051000Y-54893900D01*
X376824110Y-44436500D02*
X377126000Y-44738390D01*
X369848600Y-50248500D02*
X369840500Y-50248500D01*
X42020000Y-33310000D02*
X42310000Y-33020000D01*
X369770000Y-133484600D02*
X369770000Y-139170000D01*
X369770000Y-62609000D02*
X369918943Y-62609000D01*
X369964500Y-57132900D02*
X369964500Y-62212600D01*
X377126000Y-45636610D02*
X376824110Y-45938500D01*
X379086000Y-124168600D02*
X369770000Y-133484600D01*
X375324000Y-45636610D02*
X375324000Y-45588500D01*
X42310000Y-33020000D02*
X45713750Y-33020000D01*
X369918943Y-62609000D02*
X370271000Y-62961057D01*
X379201000Y-55696100D02*
X379086000Y-55811100D01*
X378199000Y-42401057D02*
X378551057Y-42049000D01*
X374051000Y-54893900D02*
X374051000Y-55226100D01*
X379401000Y-42898943D02*
X379201000Y-43098943D01*
X369770000Y-56938400D02*
X369964500Y-57132900D01*
X374051000Y-55226100D02*
X373816100Y-55461000D01*
X355940000Y-30200000D02*
X365430000Y-39690000D01*
X365430000Y-39690000D02*
X380399000Y-39690000D01*
X370689057Y-63629000D02*
X370519000Y-63458943D01*
X379201000Y-43098943D02*
X379201000Y-55696100D01*
X370519000Y-62961057D02*
X370871057Y-62609000D01*
X370271000Y-62961057D02*
X370271000Y-63458943D01*
X378199000Y-42898943D02*
X378199000Y-42401057D01*
X369770000Y-62407100D02*
X369770000Y-62609000D01*
X369840500Y-50248500D02*
X369770000Y-50319000D01*
X379086000Y-55811100D02*
X379086000Y-124168600D01*
X369770000Y-50319000D02*
X369770000Y-54659000D01*
X379401000Y-42401057D02*
X379401000Y-42898943D01*
X375652500Y-44436500D02*
X376824110Y-44436500D01*
X371153900Y-62609000D02*
X378399000Y-55363900D01*
X370519000Y-63458943D02*
X370519000Y-62961057D01*
X370100943Y-63629000D02*
X370689057Y-63629000D01*
X375324000Y-45588500D02*
X374508600Y-45588500D01*
X378399000Y-43098943D02*
X378199000Y-42898943D01*
X376824110Y-45938500D02*
X375625890Y-45938500D01*
X369770000Y-139170000D02*
X368606250Y-139170000D01*
X375625890Y-45938500D02*
X375324000Y-45636610D01*
%TO.N,+5V*%
X136362500Y-55257500D02*
X136560000Y-55060000D01*
X269712500Y-55252500D02*
X269520000Y-55060000D01*
X83975000Y-74225000D02*
X83960000Y-74210000D01*
X193512500Y-56275000D02*
X193512500Y-55212500D01*
X341150000Y-74460000D02*
X341150000Y-75325000D01*
X174510000Y-55060000D02*
X193360000Y-55060000D01*
X212562500Y-56275000D02*
X212562500Y-55117500D01*
X320380000Y-112230000D02*
X320380000Y-112763750D01*
X183987500Y-75325000D02*
X183987500Y-74227500D01*
X241137500Y-75325000D02*
X241137500Y-74392500D01*
X86356250Y-93343750D02*
X86440000Y-93260000D01*
X95210000Y-84558865D02*
X95649143Y-84119722D01*
X96490000Y-91980000D02*
X95300000Y-93170000D01*
X46480000Y-124330000D02*
X53010000Y-130860000D01*
X53010000Y-130860000D02*
X53100000Y-130860000D01*
X86356250Y-94375000D02*
X86356250Y-93343750D01*
X188720000Y-93260000D02*
X208010000Y-93260000D01*
X198120000Y-112230000D02*
X217310000Y-112230000D01*
X284000000Y-94375000D02*
X284000000Y-93410000D01*
X293520000Y-112230000D02*
X320380000Y-112230000D01*
X317260000Y-31360000D02*
X336140000Y-31360000D01*
X336140000Y-31360000D02*
X336387500Y-31607500D01*
X317337500Y-31437500D02*
X317260000Y-31360000D01*
X95210000Y-93170000D02*
X95210000Y-84558865D01*
X203037500Y-74212500D02*
X203040000Y-74210000D01*
X260187500Y-74257500D02*
X260140000Y-74210000D01*
X200656250Y-132475000D02*
X200656250Y-131613750D01*
X79212500Y-32462500D02*
X79212500Y-31377500D01*
X141125000Y-113425000D02*
X141125000Y-112275000D01*
X345912500Y-112312500D02*
X345830000Y-112230000D01*
X264950000Y-93390000D02*
X264820000Y-93260000D01*
X317337500Y-32462500D02*
X317337500Y-31437500D01*
X298260000Y-74210000D02*
X317250000Y-74210000D01*
X346230000Y-131110000D02*
X367410000Y-131110000D01*
X279040000Y-74210000D02*
X298260000Y-74210000D01*
X122075000Y-112255000D02*
X122050000Y-112230000D01*
X99360000Y-113210000D02*
X100340000Y-112230000D01*
X117350000Y-31360000D02*
X136490000Y-31360000D01*
X284150000Y-93260000D02*
X303140000Y-93260000D01*
X107787500Y-74272500D02*
X107850000Y-74210000D01*
X336387500Y-31607500D02*
X336387500Y-32462500D01*
X94280000Y-131230000D02*
X94280000Y-124040000D01*
X95060000Y-74270000D02*
X95120000Y-74210000D01*
X212562500Y-55117500D02*
X212620000Y-55060000D01*
X289120000Y-55060000D02*
X308060000Y-55060000D01*
X334006250Y-93413750D02*
X334160000Y-93260000D01*
X212620000Y-55060000D02*
X231640000Y-55060000D01*
X79230000Y-31360000D02*
X94810000Y-31360000D01*
X245900000Y-93430000D02*
X246070000Y-93260000D01*
X295906250Y-131763750D02*
X296560000Y-131110000D01*
X193360000Y-55060000D02*
X212620000Y-55060000D01*
X136362500Y-56275000D02*
X136362500Y-55257500D01*
X345912500Y-131427500D02*
X346230000Y-131110000D01*
X174462500Y-56275000D02*
X174462500Y-55107500D01*
X288762500Y-56275000D02*
X288762500Y-55417500D01*
X264820000Y-93260000D02*
X284150000Y-93260000D01*
X284000000Y-93410000D02*
X284150000Y-93260000D01*
X269520000Y-55060000D02*
X289120000Y-55060000D01*
X155412500Y-31367500D02*
X155420000Y-31360000D01*
X345912500Y-113425000D02*
X345912500Y-112312500D01*
X91600000Y-55060000D02*
X98160000Y-55060000D01*
X226850000Y-93580000D02*
X227170000Y-93260000D01*
X99480000Y-101520000D02*
X99450000Y-101490000D01*
X236620000Y-31360000D02*
X255580000Y-31360000D01*
X164937500Y-75325000D02*
X164937500Y-74272500D01*
X364962500Y-75207500D02*
X365810000Y-74360000D01*
X336140000Y-31360000D02*
X336440000Y-31060000D01*
X107850000Y-74210000D02*
X126870000Y-74210000D01*
X155412500Y-55072500D02*
X155400000Y-55060000D01*
X236375000Y-31605000D02*
X236620000Y-31360000D01*
X94280000Y-124040000D02*
X91560000Y-121320000D01*
X136560000Y-55060000D02*
X155400000Y-55060000D01*
X95060000Y-74880000D02*
X95060000Y-74270000D01*
X295906250Y-132475000D02*
X295906250Y-131763750D01*
X203037500Y-75325000D02*
X203037500Y-74212500D01*
X79212500Y-55072500D02*
X79200000Y-55060000D01*
X222087500Y-75325000D02*
X222087500Y-74272500D01*
X112550000Y-94375000D02*
X112550000Y-93330000D01*
X117312500Y-56275000D02*
X117312500Y-55152500D01*
X269712500Y-56275000D02*
X269712500Y-55252500D01*
X91626000Y-44654000D02*
X89443000Y-42471000D01*
X272093750Y-131806250D02*
X272790000Y-131110000D01*
X129218750Y-132475000D02*
X129218750Y-132411250D01*
X303140000Y-93260000D02*
X334160000Y-93260000D01*
X303050000Y-93350000D02*
X303140000Y-93260000D01*
X364962500Y-55127500D02*
X365030000Y-55060000D01*
X83975000Y-75325000D02*
X83975000Y-74225000D01*
X336387500Y-55202500D02*
X336530000Y-55060000D01*
X303050000Y-94375000D02*
X303050000Y-93350000D01*
X81120000Y-130338500D02*
X81120000Y-130630000D01*
X160130000Y-112230000D02*
X179290000Y-112230000D01*
X293525000Y-113425000D02*
X293525000Y-112235000D01*
X279237500Y-31477500D02*
X279120000Y-31360000D01*
X255480000Y-112230000D02*
X274500000Y-112230000D01*
X160175000Y-113425000D02*
X160175000Y-112275000D01*
X90500000Y-73560000D02*
X91020000Y-74080000D01*
X100340000Y-102380000D02*
X99480000Y-101520000D01*
X79200000Y-55060000D02*
X91600000Y-55060000D01*
X326862500Y-131617500D02*
X327370000Y-131110000D01*
X327370000Y-131110000D02*
X346230000Y-131110000D01*
X341000000Y-74210000D02*
X365660000Y-74210000D01*
X117312500Y-55152500D02*
X117220000Y-55060000D01*
X94810000Y-31360000D02*
X117350000Y-31360000D01*
X365950000Y-112230000D02*
X364962500Y-113217500D01*
X81999000Y-42118943D02*
X81999000Y-41502000D01*
X326862500Y-132475000D02*
X326862500Y-131617500D01*
X255425000Y-31515000D02*
X255580000Y-31360000D01*
X155400000Y-55060000D02*
X174510000Y-55060000D01*
X365810000Y-93260000D02*
X365850000Y-93300000D01*
X255425000Y-113425000D02*
X255425000Y-112285000D01*
X231612500Y-56275000D02*
X231612500Y-55087500D01*
X122050000Y-112230000D02*
X141170000Y-112230000D01*
X245900000Y-94375000D02*
X245900000Y-93430000D01*
X126870000Y-74210000D02*
X145830000Y-74210000D01*
X345830000Y-112230000D02*
X365950000Y-112230000D01*
X317337500Y-75325000D02*
X317337500Y-74297500D01*
X131600000Y-94375000D02*
X131600000Y-93370000D01*
X126837500Y-74242500D02*
X126870000Y-74210000D01*
X174462500Y-55107500D02*
X174510000Y-55060000D01*
X293525000Y-112235000D02*
X293520000Y-112230000D01*
X174440000Y-31360000D02*
X198800000Y-31360000D01*
X99450000Y-101490000D02*
X97650000Y-101490000D01*
X98262500Y-55162500D02*
X98160000Y-55060000D01*
X155412500Y-32462500D02*
X155412500Y-31367500D01*
X222150000Y-74210000D02*
X241320000Y-74210000D01*
X155412500Y-56275000D02*
X155412500Y-55072500D01*
X122075000Y-113425000D02*
X122075000Y-112255000D01*
X255425000Y-32462500D02*
X255425000Y-31515000D01*
X100340000Y-112230000D02*
X122050000Y-112230000D01*
X334160000Y-93260000D02*
X365810000Y-93260000D01*
X179290000Y-112230000D02*
X198120000Y-112230000D01*
X317337500Y-74297500D02*
X317250000Y-74210000D01*
X160175000Y-112275000D02*
X160130000Y-112230000D01*
X227170000Y-93260000D02*
X246070000Y-93260000D01*
X226850000Y-94375000D02*
X226850000Y-93580000D01*
X91190000Y-112230000D02*
X99610000Y-112230000D01*
X129218750Y-132411250D02*
X130520000Y-131110000D01*
X341000000Y-74210000D02*
X341000000Y-74310000D01*
X236340000Y-112230000D02*
X255480000Y-112230000D01*
X264950000Y-94375000D02*
X264950000Y-93390000D01*
X169700000Y-93260000D02*
X188720000Y-93260000D01*
X260187500Y-75325000D02*
X260187500Y-74257500D01*
X222087500Y-74272500D02*
X222150000Y-74210000D01*
X207800000Y-94375000D02*
X207800000Y-93470000D01*
X95300000Y-93260000D02*
X112620000Y-93260000D01*
X94340000Y-131110000D02*
X94340000Y-131170000D01*
X193512500Y-55212500D02*
X193360000Y-55060000D01*
X217325000Y-113425000D02*
X217325000Y-112245000D01*
X364962500Y-113217500D02*
X364962500Y-113425000D01*
X255580000Y-31360000D02*
X279120000Y-31360000D01*
X91020000Y-74080000D02*
X91020000Y-74210000D01*
X98262500Y-56275000D02*
X98262500Y-55162500D01*
X99180000Y-113210000D02*
X99360000Y-113210000D01*
X231640000Y-55060000D02*
X250360000Y-55060000D01*
X279237500Y-74407500D02*
X279040000Y-74210000D01*
X141170000Y-112230000D02*
X160130000Y-112230000D01*
X107787500Y-75325000D02*
X107787500Y-74272500D01*
X105406250Y-131763750D02*
X106060000Y-131110000D01*
X208010000Y-93260000D02*
X227170000Y-93260000D01*
X91626000Y-55034000D02*
X91626000Y-44654000D01*
X112620000Y-93260000D02*
X131710000Y-93260000D01*
X105406250Y-132475000D02*
X105406250Y-131763750D01*
X336530000Y-55060000D02*
X365030000Y-55060000D01*
X174462500Y-32462500D02*
X174462500Y-31382500D01*
X307812500Y-56275000D02*
X307812500Y-55307500D01*
X117220000Y-55060000D02*
X136560000Y-55060000D01*
X99610000Y-112230000D02*
X100340000Y-112230000D01*
X274500000Y-112330000D02*
X274475000Y-112355000D01*
X279237500Y-75325000D02*
X279237500Y-74407500D01*
X307812500Y-55307500D02*
X308060000Y-55060000D01*
X365850000Y-93300000D02*
X364962500Y-94187500D01*
X79212500Y-56275000D02*
X79212500Y-55072500D01*
X341000000Y-74310000D02*
X341150000Y-74460000D01*
X217450000Y-31360000D02*
X236620000Y-31360000D01*
X317250000Y-74210000D02*
X341000000Y-74210000D01*
X365660000Y-74210000D02*
X365810000Y-74360000D01*
X298287500Y-75325000D02*
X298287500Y-74237500D01*
X279237500Y-32462500D02*
X279237500Y-31477500D01*
X183987500Y-74227500D02*
X183970000Y-74210000D01*
X179225000Y-113425000D02*
X179225000Y-112295000D01*
X91600000Y-55060000D02*
X91626000Y-55034000D01*
X308060000Y-55060000D02*
X336530000Y-55060000D01*
X150650000Y-94375000D02*
X150650000Y-93320000D01*
X136362500Y-31487500D02*
X136490000Y-31360000D01*
X274500000Y-112230000D02*
X293520000Y-112230000D01*
X145830000Y-74210000D02*
X165000000Y-74210000D01*
X141125000Y-112275000D02*
X141170000Y-112230000D01*
X231612500Y-55087500D02*
X231640000Y-55060000D01*
X198275000Y-31885000D02*
X198800000Y-31360000D01*
X246070000Y-93260000D02*
X264820000Y-93260000D01*
X131710000Y-93260000D02*
X150710000Y-93260000D01*
X279120000Y-31360000D02*
X298150000Y-31360000D01*
X117312500Y-32462500D02*
X117312500Y-31397500D01*
X250662500Y-55362500D02*
X250360000Y-55060000D01*
X145887500Y-75325000D02*
X145887500Y-74267500D01*
X298287500Y-74237500D02*
X298260000Y-74210000D01*
X179225000Y-112295000D02*
X179290000Y-112230000D01*
X83960000Y-74210000D02*
X91020000Y-74210000D01*
X200656250Y-131613750D02*
X201160000Y-131110000D01*
X272790000Y-131110000D02*
X296560000Y-131110000D01*
X112550000Y-93330000D02*
X112620000Y-93260000D01*
X131600000Y-93370000D02*
X131710000Y-93260000D01*
X188750000Y-94375000D02*
X188750000Y-93290000D01*
X91118750Y-112378750D02*
X91080000Y-112340000D01*
X188750000Y-93290000D02*
X188720000Y-93260000D01*
X174462500Y-31382500D02*
X174440000Y-31360000D01*
X95120000Y-74210000D02*
X107850000Y-74210000D01*
X201160000Y-131110000D02*
X272790000Y-131110000D01*
X117312500Y-31397500D02*
X117350000Y-31360000D01*
X367410000Y-131110000D02*
X366045000Y-132475000D01*
X94340000Y-131170000D02*
X94280000Y-131230000D01*
X288762500Y-55417500D02*
X289120000Y-55060000D01*
X136362500Y-32462500D02*
X136362500Y-31487500D01*
X236375000Y-112265000D02*
X236340000Y-112230000D01*
X203040000Y-74210000D02*
X222150000Y-74210000D01*
X81120000Y-130630000D02*
X81593750Y-131103750D01*
X236375000Y-32462500D02*
X236375000Y-31605000D01*
X320380000Y-112763750D02*
X319718750Y-113425000D01*
X250662500Y-56275000D02*
X250662500Y-55362500D01*
X169700000Y-94375000D02*
X169700000Y-93260000D01*
X366045000Y-132475000D02*
X364962500Y-132475000D01*
X217310000Y-112230000D02*
X236340000Y-112230000D01*
X364962500Y-94187500D02*
X364962500Y-94375000D01*
X336387500Y-56275000D02*
X336387500Y-55202500D01*
X320380000Y-112230000D02*
X345830000Y-112230000D01*
X296560000Y-131110000D02*
X327370000Y-131110000D01*
X165000000Y-74210000D02*
X183970000Y-74210000D01*
X207800000Y-93470000D02*
X208010000Y-93260000D01*
X274500000Y-112230000D02*
X274500000Y-112330000D01*
X155420000Y-31360000D02*
X174440000Y-31360000D01*
X334006250Y-94375000D02*
X334006250Y-93413750D01*
X106060000Y-131110000D02*
X130520000Y-131110000D01*
X241320000Y-74210000D02*
X260140000Y-74210000D01*
X250360000Y-55060000D02*
X269520000Y-55060000D01*
X130520000Y-131110000D02*
X201160000Y-131110000D01*
X90510000Y-56150000D02*
X90410000Y-56150000D01*
X260140000Y-74210000D02*
X279040000Y-74210000D01*
X91080000Y-112340000D02*
X91190000Y-112230000D01*
X91020000Y-74210000D02*
X95120000Y-74210000D01*
X274475000Y-112355000D02*
X274475000Y-113425000D01*
X86440000Y-93260000D02*
X95300000Y-93260000D01*
X95300000Y-93170000D02*
X95210000Y-93170000D01*
X81593750Y-131326250D02*
X81810000Y-131110000D01*
X198275000Y-112385000D02*
X198120000Y-112230000D01*
X89443000Y-42471000D02*
X82351057Y-42471000D01*
X164937500Y-74272500D02*
X165000000Y-74210000D01*
X345912500Y-132475000D02*
X345912500Y-131427500D01*
X82351057Y-42471000D02*
X81999000Y-42118943D01*
X365030000Y-55060000D02*
X373650000Y-55060000D01*
X126837500Y-75325000D02*
X126837500Y-74242500D01*
X217325000Y-31485000D02*
X217450000Y-31360000D01*
X81593750Y-132475000D02*
X81593750Y-131326250D01*
X94340000Y-131110000D02*
X106060000Y-131110000D01*
X298287500Y-31497500D02*
X298150000Y-31360000D01*
X81810000Y-131110000D02*
X94340000Y-131110000D01*
X183970000Y-74210000D02*
X203040000Y-74210000D01*
X98160000Y-55060000D02*
X117220000Y-55060000D01*
X136490000Y-31360000D02*
X155420000Y-31360000D01*
X79212500Y-31377500D02*
X79230000Y-31360000D01*
X100340000Y-112230000D02*
X100340000Y-102380000D01*
X364962500Y-75325000D02*
X364962500Y-75207500D01*
X95300000Y-93260000D02*
X95210000Y-93170000D01*
X145887500Y-74267500D02*
X145830000Y-74210000D01*
X272093750Y-132475000D02*
X272093750Y-131806250D01*
X81593750Y-131103750D02*
X81593750Y-132475000D01*
X91626000Y-55034000D02*
X90510000Y-56150000D01*
X150710000Y-93260000D02*
X169700000Y-93260000D01*
X298150000Y-31360000D02*
X317260000Y-31360000D01*
X84351000Y-39150000D02*
X92050000Y-39150000D01*
X198275000Y-32462500D02*
X198275000Y-31885000D01*
X364962500Y-56275000D02*
X364962500Y-55127500D01*
X217325000Y-112245000D02*
X217310000Y-112230000D01*
X255425000Y-112285000D02*
X255480000Y-112230000D01*
X150650000Y-93320000D02*
X150710000Y-93260000D01*
X81999000Y-41502000D02*
X84351000Y-39150000D01*
X217325000Y-32462500D02*
X217325000Y-31485000D01*
X91118750Y-113425000D02*
X91118750Y-112378750D01*
X93790000Y-30340000D02*
X94810000Y-31360000D01*
X198800000Y-31360000D02*
X217450000Y-31360000D01*
X198275000Y-113425000D02*
X198275000Y-112385000D01*
X298287500Y-32462500D02*
X298287500Y-31497500D01*
X241137500Y-74392500D02*
X241320000Y-74210000D01*
X236375000Y-113425000D02*
X236375000Y-112265000D01*
%TD*%
%TA.AperFunction,Conductor*%
%TO.N,Net-(D1-A)*%
G36*
X77254639Y-23253826D02*
G01*
X77255989Y-23255444D01*
X78147957Y-24545102D01*
X78149844Y-24553855D01*
X78148037Y-24558294D01*
X77162203Y-26021597D01*
X77154739Y-26026544D01*
X77145963Y-26024763D01*
X77142797Y-26021597D01*
X76775511Y-25476424D01*
X76156961Y-24558292D01*
X76155181Y-24549518D01*
X76157041Y-24545104D01*
X77049011Y-23255444D01*
X77056536Y-23250589D01*
X77058634Y-23250399D01*
X77246366Y-23250399D01*
X77254639Y-23253826D01*
G37*
%TD.AperFunction*%
%TD*%
%TA.AperFunction,Conductor*%
%TO.N,Net-(D2-A)*%
G36*
X117153518Y-23998265D02*
G01*
X117155136Y-23999615D01*
X117287884Y-24132363D01*
X117291311Y-24140636D01*
X117291121Y-24142734D01*
X117009911Y-25685377D01*
X117005056Y-25692902D01*
X117000640Y-25694763D01*
X115268839Y-26032383D01*
X115260063Y-26030602D01*
X115255116Y-26023138D01*
X115255116Y-26018660D01*
X115320091Y-25685377D01*
X115592737Y-24286856D01*
X115597683Y-24279395D01*
X115602118Y-24277589D01*
X117144767Y-23996378D01*
X117153518Y-23998265D01*
G37*
%TD.AperFunction*%
%TD*%
%TA.AperFunction,Conductor*%
%TO.N,Net-(D3-A)*%
G36*
X136203518Y-23998265D02*
G01*
X136205136Y-23999615D01*
X136337884Y-24132363D01*
X136341311Y-24140636D01*
X136341121Y-24142734D01*
X136059911Y-25685377D01*
X136055056Y-25692902D01*
X136050640Y-25694763D01*
X134318839Y-26032383D01*
X134310063Y-26030602D01*
X134305116Y-26023138D01*
X134305116Y-26018660D01*
X134370091Y-25685377D01*
X134642737Y-24286856D01*
X134647683Y-24279395D01*
X134652118Y-24277589D01*
X136194767Y-23996378D01*
X136203518Y-23998265D01*
G37*
%TD.AperFunction*%
%TD*%
%TA.AperFunction,Conductor*%
%TO.N,Net-(D4-A)*%
G36*
X155253518Y-23998265D02*
G01*
X155255136Y-23999615D01*
X155387884Y-24132363D01*
X155391311Y-24140636D01*
X155391121Y-24142734D01*
X155109911Y-25685377D01*
X155105056Y-25692902D01*
X155100640Y-25694763D01*
X153368839Y-26032383D01*
X153360063Y-26030602D01*
X153355116Y-26023138D01*
X153355116Y-26018660D01*
X153420091Y-25685377D01*
X153692737Y-24286856D01*
X153697683Y-24279395D01*
X153702118Y-24277589D01*
X155244767Y-23996378D01*
X155253518Y-23998265D01*
G37*
%TD.AperFunction*%
%TD*%
%TA.AperFunction,Conductor*%
%TO.N,Net-(D5-A)*%
G36*
X174303518Y-23998265D02*
G01*
X174305136Y-23999615D01*
X174437884Y-24132363D01*
X174441311Y-24140636D01*
X174441121Y-24142734D01*
X174159911Y-25685377D01*
X174155056Y-25692902D01*
X174150640Y-25694763D01*
X172418839Y-26032383D01*
X172410063Y-26030602D01*
X172405116Y-26023138D01*
X172405116Y-26018660D01*
X172470091Y-25685377D01*
X172742737Y-24286856D01*
X172747683Y-24279395D01*
X172752118Y-24277589D01*
X174294767Y-23996378D01*
X174303518Y-23998265D01*
G37*
%TD.AperFunction*%
%TD*%
%TA.AperFunction,Conductor*%
%TO.N,Net-(D6-A)*%
G36*
X196317139Y-23253826D02*
G01*
X196318489Y-23255444D01*
X197210457Y-24545102D01*
X197212344Y-24553855D01*
X197210537Y-24558294D01*
X196224703Y-26021597D01*
X196217239Y-26026544D01*
X196208463Y-26024763D01*
X196205297Y-26021597D01*
X195838011Y-25476424D01*
X195219461Y-24558292D01*
X195217681Y-24549518D01*
X195219541Y-24545104D01*
X196111511Y-23255444D01*
X196119036Y-23250589D01*
X196121134Y-23250399D01*
X196308866Y-23250399D01*
X196317139Y-23253826D01*
G37*
%TD.AperFunction*%
%TD*%
%TA.AperFunction,Conductor*%
%TO.N,Net-(D7-A)*%
G36*
X217166018Y-23998265D02*
G01*
X217167636Y-23999615D01*
X217300384Y-24132363D01*
X217303811Y-24140636D01*
X217303621Y-24142734D01*
X217022411Y-25685377D01*
X217017556Y-25692902D01*
X217013140Y-25694763D01*
X215281339Y-26032383D01*
X215272563Y-26030602D01*
X215267616Y-26023138D01*
X215267616Y-26018660D01*
X215332591Y-25685377D01*
X215605237Y-24286856D01*
X215610183Y-24279395D01*
X215614618Y-24277589D01*
X217157267Y-23996378D01*
X217166018Y-23998265D01*
G37*
%TD.AperFunction*%
%TD*%
%TA.AperFunction,Conductor*%
%TO.N,Net-(D8-A)*%
G36*
X234417139Y-23253826D02*
G01*
X234418489Y-23255444D01*
X235310457Y-24545102D01*
X235312344Y-24553855D01*
X235310537Y-24558294D01*
X234324703Y-26021597D01*
X234317239Y-26026544D01*
X234308463Y-26024763D01*
X234305297Y-26021597D01*
X233938011Y-25476424D01*
X233319461Y-24558292D01*
X233317681Y-24549518D01*
X233319541Y-24545104D01*
X234211511Y-23255444D01*
X234219036Y-23250589D01*
X234221134Y-23250399D01*
X234408866Y-23250399D01*
X234417139Y-23253826D01*
G37*
%TD.AperFunction*%
%TD*%
%TA.AperFunction,Conductor*%
%TO.N,Net-(D9-A)*%
G36*
X255266018Y-23998265D02*
G01*
X255267636Y-23999615D01*
X255400384Y-24132363D01*
X255403811Y-24140636D01*
X255403621Y-24142734D01*
X255122411Y-25685377D01*
X255117556Y-25692902D01*
X255113140Y-25694763D01*
X253381339Y-26032383D01*
X253372563Y-26030602D01*
X253367616Y-26023138D01*
X253367616Y-26018660D01*
X253432591Y-25685377D01*
X253705237Y-24286856D01*
X253710183Y-24279395D01*
X253714618Y-24277589D01*
X255257267Y-23996378D01*
X255266018Y-23998265D01*
G37*
%TD.AperFunction*%
%TD*%
%TA.AperFunction,Conductor*%
%TO.N,Net-(D10-A)*%
G36*
X279078518Y-23998265D02*
G01*
X279080136Y-23999615D01*
X279212884Y-24132363D01*
X279216311Y-24140636D01*
X279216121Y-24142734D01*
X278934911Y-25685377D01*
X278930056Y-25692902D01*
X278925640Y-25694763D01*
X277193839Y-26032383D01*
X277185063Y-26030602D01*
X277180116Y-26023138D01*
X277180116Y-26018660D01*
X277245091Y-25685377D01*
X277517737Y-24286856D01*
X277522683Y-24279395D01*
X277527118Y-24277589D01*
X279069767Y-23996378D01*
X279078518Y-23998265D01*
G37*
%TD.AperFunction*%
%TD*%
%TA.AperFunction,Conductor*%
%TO.N,Net-(D11-A)*%
G36*
X298128518Y-23998265D02*
G01*
X298130136Y-23999615D01*
X298262884Y-24132363D01*
X298266311Y-24140636D01*
X298266121Y-24142734D01*
X297984911Y-25685377D01*
X297980056Y-25692902D01*
X297975640Y-25694763D01*
X296243839Y-26032383D01*
X296235063Y-26030602D01*
X296230116Y-26023138D01*
X296230116Y-26018660D01*
X296295091Y-25685377D01*
X296567737Y-24286856D01*
X296572683Y-24279395D01*
X296577118Y-24277589D01*
X298119767Y-23996378D01*
X298128518Y-23998265D01*
G37*
%TD.AperFunction*%
%TD*%
%TA.AperFunction,Conductor*%
%TO.N,Net-(D12-A)*%
G36*
X317178518Y-23998265D02*
G01*
X317180136Y-23999615D01*
X317312884Y-24132363D01*
X317316311Y-24140636D01*
X317316121Y-24142734D01*
X317034911Y-25685377D01*
X317030056Y-25692902D01*
X317025640Y-25694763D01*
X315293839Y-26032383D01*
X315285063Y-26030602D01*
X315280116Y-26023138D01*
X315280116Y-26018660D01*
X315345091Y-25685377D01*
X315617737Y-24286856D01*
X315622683Y-24279395D01*
X315627118Y-24277589D01*
X317169767Y-23996378D01*
X317178518Y-23998265D01*
G37*
%TD.AperFunction*%
%TD*%
%TA.AperFunction,Conductor*%
%TO.N,Net-(D13-A)*%
G36*
X336228518Y-23998265D02*
G01*
X336230136Y-23999615D01*
X336362884Y-24132363D01*
X336366311Y-24140636D01*
X336366121Y-24142734D01*
X336084911Y-25685377D01*
X336080056Y-25692902D01*
X336075640Y-25694763D01*
X334343839Y-26032383D01*
X334335063Y-26030602D01*
X334330116Y-26023138D01*
X334330116Y-26018660D01*
X334395091Y-25685377D01*
X334667737Y-24286856D01*
X334672683Y-24279395D01*
X334677118Y-24277589D01*
X336219767Y-23996378D01*
X336228518Y-23998265D01*
G37*
%TD.AperFunction*%
%TD*%
%TA.AperFunction,Conductor*%
%TO.N,Net-(D16-A)*%
G36*
X98103518Y-47810765D02*
G01*
X98105136Y-47812115D01*
X98237884Y-47944863D01*
X98241311Y-47953136D01*
X98241121Y-47955234D01*
X97959911Y-49497877D01*
X97955056Y-49505402D01*
X97950640Y-49507263D01*
X96218839Y-49844883D01*
X96210063Y-49843102D01*
X96205116Y-49835638D01*
X96205116Y-49831160D01*
X96270091Y-49497877D01*
X96542737Y-48099356D01*
X96547683Y-48091895D01*
X96552118Y-48090089D01*
X98094767Y-47808878D01*
X98103518Y-47810765D01*
G37*
%TD.AperFunction*%
%TD*%
%TA.AperFunction,Conductor*%
%TO.N,Net-(D17-A)*%
G36*
X117153518Y-47810765D02*
G01*
X117155136Y-47812115D01*
X117287884Y-47944863D01*
X117291311Y-47953136D01*
X117291121Y-47955234D01*
X117009911Y-49497877D01*
X117005056Y-49505402D01*
X117000640Y-49507263D01*
X115268839Y-49844883D01*
X115260063Y-49843102D01*
X115255116Y-49835638D01*
X115255116Y-49831160D01*
X115320091Y-49497877D01*
X115592737Y-48099356D01*
X115597683Y-48091895D01*
X115602118Y-48090089D01*
X117144767Y-47808878D01*
X117153518Y-47810765D01*
G37*
%TD.AperFunction*%
%TD*%
%TA.AperFunction,Conductor*%
%TO.N,Net-(D18-A)*%
G36*
X136203518Y-47810765D02*
G01*
X136205136Y-47812115D01*
X136337884Y-47944863D01*
X136341311Y-47953136D01*
X136341121Y-47955234D01*
X136059911Y-49497877D01*
X136055056Y-49505402D01*
X136050640Y-49507263D01*
X134318839Y-49844883D01*
X134310063Y-49843102D01*
X134305116Y-49835638D01*
X134305116Y-49831160D01*
X134370091Y-49497877D01*
X134642737Y-48099356D01*
X134647683Y-48091895D01*
X134652118Y-48090089D01*
X136194767Y-47808878D01*
X136203518Y-47810765D01*
G37*
%TD.AperFunction*%
%TD*%
%TA.AperFunction,Conductor*%
%TO.N,Net-(D19-A)*%
G36*
X155253518Y-47810765D02*
G01*
X155255136Y-47812115D01*
X155387884Y-47944863D01*
X155391311Y-47953136D01*
X155391121Y-47955234D01*
X155109911Y-49497877D01*
X155105056Y-49505402D01*
X155100640Y-49507263D01*
X153368839Y-49844883D01*
X153360063Y-49843102D01*
X153355116Y-49835638D01*
X153355116Y-49831160D01*
X153420091Y-49497877D01*
X153692737Y-48099356D01*
X153697683Y-48091895D01*
X153702118Y-48090089D01*
X155244767Y-47808878D01*
X155253518Y-47810765D01*
G37*
%TD.AperFunction*%
%TD*%
%TA.AperFunction,Conductor*%
%TO.N,Net-(D20-A)*%
G36*
X173892396Y-48852042D02*
G01*
X175182056Y-49744011D01*
X175186911Y-49751535D01*
X175187101Y-49753633D01*
X175187101Y-49941366D01*
X175183674Y-49949639D01*
X175182056Y-49950989D01*
X173892396Y-50842957D01*
X173883643Y-50844844D01*
X173879204Y-50843037D01*
X172415901Y-49857202D01*
X172410955Y-49849739D01*
X172412736Y-49840963D01*
X172415902Y-49837797D01*
X173879206Y-48851961D01*
X173887980Y-48850181D01*
X173892396Y-48852042D01*
G37*
%TD.AperFunction*%
%TD*%
%TA.AperFunction,Conductor*%
%TO.N,Net-(D21-A)*%
G36*
X192942396Y-48852042D02*
G01*
X194232056Y-49744011D01*
X194236911Y-49751535D01*
X194237101Y-49753633D01*
X194237101Y-49941366D01*
X194233674Y-49949639D01*
X194232056Y-49950989D01*
X192942396Y-50842957D01*
X192933643Y-50844844D01*
X192929204Y-50843037D01*
X191465901Y-49857202D01*
X191460955Y-49849739D01*
X191462736Y-49840963D01*
X191465902Y-49837797D01*
X192929206Y-48851961D01*
X192937980Y-48850181D01*
X192942396Y-48852042D01*
G37*
%TD.AperFunction*%
%TD*%
%TA.AperFunction,Conductor*%
%TO.N,Net-(D22-A)*%
G36*
X211992396Y-48852042D02*
G01*
X213282056Y-49744011D01*
X213286911Y-49751535D01*
X213287101Y-49753633D01*
X213287101Y-49941366D01*
X213283674Y-49949639D01*
X213282056Y-49950989D01*
X211992396Y-50842957D01*
X211983643Y-50844844D01*
X211979204Y-50843037D01*
X210515901Y-49857202D01*
X210510955Y-49849739D01*
X210512736Y-49840963D01*
X210515902Y-49837797D01*
X211979206Y-48851961D01*
X211987980Y-48850181D01*
X211992396Y-48852042D01*
G37*
%TD.AperFunction*%
%TD*%
%TA.AperFunction,Conductor*%
%TO.N,Net-(D23-A)*%
G36*
X231042396Y-48852042D02*
G01*
X232332056Y-49744011D01*
X232336911Y-49751535D01*
X232337101Y-49753633D01*
X232337101Y-49941366D01*
X232333674Y-49949639D01*
X232332056Y-49950989D01*
X231042396Y-50842957D01*
X231033643Y-50844844D01*
X231029204Y-50843037D01*
X229565901Y-49857202D01*
X229560955Y-49849739D01*
X229562736Y-49840963D01*
X229565902Y-49837797D01*
X231029206Y-48851961D01*
X231037980Y-48850181D01*
X231042396Y-48852042D01*
G37*
%TD.AperFunction*%
%TD*%
%TA.AperFunction,Conductor*%
%TO.N,Net-(D24-A)*%
G36*
X250503518Y-47810765D02*
G01*
X250505136Y-47812115D01*
X250637884Y-47944863D01*
X250641311Y-47953136D01*
X250641121Y-47955234D01*
X250359911Y-49497877D01*
X250355056Y-49505402D01*
X250350640Y-49507263D01*
X248618839Y-49844883D01*
X248610063Y-49843102D01*
X248605116Y-49835638D01*
X248605116Y-49831160D01*
X248670091Y-49497877D01*
X248942737Y-48099356D01*
X248947683Y-48091895D01*
X248952118Y-48090089D01*
X250494767Y-47808878D01*
X250503518Y-47810765D01*
G37*
%TD.AperFunction*%
%TD*%
%TA.AperFunction,Conductor*%
%TO.N,Net-(D25-A)*%
G36*
X269142396Y-48852042D02*
G01*
X270432056Y-49744011D01*
X270436911Y-49751535D01*
X270437101Y-49753633D01*
X270437101Y-49941366D01*
X270433674Y-49949639D01*
X270432056Y-49950989D01*
X269142396Y-50842957D01*
X269133643Y-50844844D01*
X269129204Y-50843037D01*
X267665901Y-49857202D01*
X267660955Y-49849739D01*
X267662736Y-49840963D01*
X267665902Y-49837797D01*
X269129206Y-48851961D01*
X269137980Y-48850181D01*
X269142396Y-48852042D01*
G37*
%TD.AperFunction*%
%TD*%
%TA.AperFunction,Conductor*%
%TO.N,Net-(D26-A)*%
G36*
X288603518Y-47810765D02*
G01*
X288605136Y-47812115D01*
X288737884Y-47944863D01*
X288741311Y-47953136D01*
X288741121Y-47955234D01*
X288459911Y-49497877D01*
X288455056Y-49505402D01*
X288450640Y-49507263D01*
X286718839Y-49844883D01*
X286710063Y-49843102D01*
X286705116Y-49835638D01*
X286705116Y-49831160D01*
X286770091Y-49497877D01*
X287042737Y-48099356D01*
X287047683Y-48091895D01*
X287052118Y-48090089D01*
X288594767Y-47808878D01*
X288603518Y-47810765D01*
G37*
%TD.AperFunction*%
%TD*%
%TA.AperFunction,Conductor*%
%TO.N,Net-(D27-A)*%
G36*
X307653518Y-47810765D02*
G01*
X307655136Y-47812115D01*
X307787884Y-47944863D01*
X307791311Y-47953136D01*
X307791121Y-47955234D01*
X307509911Y-49497877D01*
X307505056Y-49505402D01*
X307500640Y-49507263D01*
X305768839Y-49844883D01*
X305760063Y-49843102D01*
X305755116Y-49835638D01*
X305755116Y-49831160D01*
X305820091Y-49497877D01*
X306092737Y-48099356D01*
X306097683Y-48091895D01*
X306102118Y-48090089D01*
X307644767Y-47808878D01*
X307653518Y-47810765D01*
G37*
%TD.AperFunction*%
%TD*%
%TA.AperFunction,Conductor*%
%TO.N,Net-(D31-A)*%
G36*
X107628518Y-66860765D02*
G01*
X107630136Y-66862115D01*
X107762884Y-66994863D01*
X107766311Y-67003136D01*
X107766121Y-67005234D01*
X107484911Y-68547877D01*
X107480056Y-68555402D01*
X107475640Y-68557263D01*
X105743839Y-68894883D01*
X105735063Y-68893102D01*
X105730116Y-68885638D01*
X105730116Y-68881160D01*
X105795091Y-68547877D01*
X106067737Y-67149356D01*
X106072683Y-67141895D01*
X106077118Y-67140089D01*
X107619767Y-66858878D01*
X107628518Y-66860765D01*
G37*
%TD.AperFunction*%
%TD*%
%TA.AperFunction,Conductor*%
%TO.N,Net-(D32-A)*%
G36*
X111979896Y-86952042D02*
G01*
X113269556Y-87844011D01*
X113274411Y-87851535D01*
X113274601Y-87853633D01*
X113274601Y-88041366D01*
X113271174Y-88049639D01*
X113269556Y-88050989D01*
X111979896Y-88942957D01*
X111971143Y-88944844D01*
X111966704Y-88943037D01*
X110503401Y-87957202D01*
X110498455Y-87949739D01*
X110500236Y-87940963D01*
X110503402Y-87937797D01*
X111966706Y-86951961D01*
X111975480Y-86950181D01*
X111979896Y-86952042D01*
G37*
%TD.AperFunction*%
%TD*%
%TA.AperFunction,Conductor*%
%TO.N,Net-(D33-A)*%
G36*
X126267396Y-67902042D02*
G01*
X127557056Y-68794011D01*
X127561911Y-68801535D01*
X127562101Y-68803633D01*
X127562101Y-68991366D01*
X127558674Y-68999639D01*
X127557056Y-69000989D01*
X126267396Y-69892957D01*
X126258643Y-69894844D01*
X126254204Y-69893037D01*
X124790901Y-68907202D01*
X124785955Y-68899739D01*
X124787736Y-68890963D01*
X124790902Y-68887797D01*
X126254206Y-67901961D01*
X126262980Y-67900181D01*
X126267396Y-67902042D01*
G37*
%TD.AperFunction*%
%TD*%
%TA.AperFunction,Conductor*%
%TO.N,Net-(D34-A)*%
G36*
X131029896Y-86952042D02*
G01*
X132319556Y-87844011D01*
X132324411Y-87851535D01*
X132324601Y-87853633D01*
X132324601Y-88041366D01*
X132321174Y-88049639D01*
X132319556Y-88050989D01*
X131029896Y-88942957D01*
X131021143Y-88944844D01*
X131016704Y-88943037D01*
X129553401Y-87957202D01*
X129548455Y-87949739D01*
X129550236Y-87940963D01*
X129553402Y-87937797D01*
X131016706Y-86951961D01*
X131025480Y-86950181D01*
X131029896Y-86952042D01*
G37*
%TD.AperFunction*%
%TD*%
%TA.AperFunction,Conductor*%
%TO.N,Net-(D35-A)*%
G36*
X145728518Y-66860765D02*
G01*
X145730136Y-66862115D01*
X145862884Y-66994863D01*
X145866311Y-67003136D01*
X145866121Y-67005234D01*
X145584911Y-68547877D01*
X145580056Y-68555402D01*
X145575640Y-68557263D01*
X143843839Y-68894883D01*
X143835063Y-68893102D01*
X143830116Y-68885638D01*
X143830116Y-68881160D01*
X143895091Y-68547877D01*
X144167737Y-67149356D01*
X144172683Y-67141895D01*
X144177118Y-67140089D01*
X145719767Y-66858878D01*
X145728518Y-66860765D01*
G37*
%TD.AperFunction*%
%TD*%
%TA.AperFunction,Conductor*%
%TO.N,Net-(D36-A)*%
G36*
X150079896Y-86952042D02*
G01*
X151369556Y-87844011D01*
X151374411Y-87851535D01*
X151374601Y-87853633D01*
X151374601Y-88041366D01*
X151371174Y-88049639D01*
X151369556Y-88050989D01*
X150079896Y-88942957D01*
X150071143Y-88944844D01*
X150066704Y-88943037D01*
X148603401Y-87957202D01*
X148598455Y-87949739D01*
X148600236Y-87940963D01*
X148603402Y-87937797D01*
X150066706Y-86951961D01*
X150075480Y-86950181D01*
X150079896Y-86952042D01*
G37*
%TD.AperFunction*%
%TD*%
%TA.AperFunction,Conductor*%
%TO.N,Net-(D37-A)*%
G36*
X164778518Y-66860765D02*
G01*
X164780136Y-66862115D01*
X164912884Y-66994863D01*
X164916311Y-67003136D01*
X164916121Y-67005234D01*
X164634911Y-68547877D01*
X164630056Y-68555402D01*
X164625640Y-68557263D01*
X162893839Y-68894883D01*
X162885063Y-68893102D01*
X162880116Y-68885638D01*
X162880116Y-68881160D01*
X162945091Y-68547877D01*
X163217737Y-67149356D01*
X163222683Y-67141895D01*
X163227118Y-67140089D01*
X164769767Y-66858878D01*
X164778518Y-66860765D01*
G37*
%TD.AperFunction*%
%TD*%
%TA.AperFunction,Conductor*%
%TO.N,Net-(D38-A)*%
G36*
X169541018Y-85910765D02*
G01*
X169542636Y-85912115D01*
X169675384Y-86044863D01*
X169678811Y-86053136D01*
X169678621Y-86055234D01*
X169397411Y-87597877D01*
X169392556Y-87605402D01*
X169388140Y-87607263D01*
X167656339Y-87944883D01*
X167647563Y-87943102D01*
X167642616Y-87935638D01*
X167642616Y-87931160D01*
X167707591Y-87597877D01*
X167980237Y-86199356D01*
X167985183Y-86191895D01*
X167989618Y-86190089D01*
X169532267Y-85908878D01*
X169541018Y-85910765D01*
G37*
%TD.AperFunction*%
%TD*%
%TA.AperFunction,Conductor*%
%TO.N,Net-(D39-A)*%
G36*
X183417396Y-67902042D02*
G01*
X184707056Y-68794011D01*
X184711911Y-68801535D01*
X184712101Y-68803633D01*
X184712101Y-68991366D01*
X184708674Y-68999639D01*
X184707056Y-69000989D01*
X183417396Y-69892957D01*
X183408643Y-69894844D01*
X183404204Y-69893037D01*
X181940901Y-68907202D01*
X181935955Y-68899739D01*
X181937736Y-68890963D01*
X181940902Y-68887797D01*
X183404206Y-67901961D01*
X183412980Y-67900181D01*
X183417396Y-67902042D01*
G37*
%TD.AperFunction*%
%TD*%
%TA.AperFunction,Conductor*%
%TO.N,Net-(D40-A)*%
G36*
X188179896Y-86952042D02*
G01*
X189469556Y-87844011D01*
X189474411Y-87851535D01*
X189474601Y-87853633D01*
X189474601Y-88041366D01*
X189471174Y-88049639D01*
X189469556Y-88050989D01*
X188179896Y-88942957D01*
X188171143Y-88944844D01*
X188166704Y-88943037D01*
X186703401Y-87957202D01*
X186698455Y-87949739D01*
X186700236Y-87940963D01*
X186703402Y-87937797D01*
X188166706Y-86951961D01*
X188175480Y-86950181D01*
X188179896Y-86952042D01*
G37*
%TD.AperFunction*%
%TD*%
%TA.AperFunction,Conductor*%
%TO.N,Net-(D41-A)*%
G36*
X202467396Y-67902042D02*
G01*
X203757056Y-68794011D01*
X203761911Y-68801535D01*
X203762101Y-68803633D01*
X203762101Y-68991366D01*
X203758674Y-68999639D01*
X203757056Y-69000989D01*
X202467396Y-69892957D01*
X202458643Y-69894844D01*
X202454204Y-69893037D01*
X200990901Y-68907202D01*
X200985955Y-68899739D01*
X200987736Y-68890963D01*
X200990902Y-68887797D01*
X202454206Y-67901961D01*
X202462980Y-67900181D01*
X202467396Y-67902042D01*
G37*
%TD.AperFunction*%
%TD*%
%TA.AperFunction,Conductor*%
%TO.N,Net-(D42-A)*%
G36*
X207229896Y-86952042D02*
G01*
X208519556Y-87844011D01*
X208524411Y-87851535D01*
X208524601Y-87853633D01*
X208524601Y-88041366D01*
X208521174Y-88049639D01*
X208519556Y-88050989D01*
X207229896Y-88942957D01*
X207221143Y-88944844D01*
X207216704Y-88943037D01*
X205753401Y-87957202D01*
X205748455Y-87949739D01*
X205750236Y-87940963D01*
X205753402Y-87937797D01*
X207216706Y-86951961D01*
X207225480Y-86950181D01*
X207229896Y-86952042D01*
G37*
%TD.AperFunction*%
%TD*%
%TA.AperFunction,Conductor*%
%TO.N,Net-(D43-A)*%
G36*
X221928518Y-66860765D02*
G01*
X221930136Y-66862115D01*
X222062884Y-66994863D01*
X222066311Y-67003136D01*
X222066121Y-67005234D01*
X221784911Y-68547877D01*
X221780056Y-68555402D01*
X221775640Y-68557263D01*
X220043839Y-68894883D01*
X220035063Y-68893102D01*
X220030116Y-68885638D01*
X220030116Y-68881160D01*
X220095091Y-68547877D01*
X220367737Y-67149356D01*
X220372683Y-67141895D01*
X220377118Y-67140089D01*
X221919767Y-66858878D01*
X221928518Y-66860765D01*
G37*
%TD.AperFunction*%
%TD*%
%TA.AperFunction,Conductor*%
%TO.N,Net-(D44-A)*%
G36*
X226279896Y-86952042D02*
G01*
X227569556Y-87844011D01*
X227574411Y-87851535D01*
X227574601Y-87853633D01*
X227574601Y-88041366D01*
X227571174Y-88049639D01*
X227569556Y-88050989D01*
X226279896Y-88942957D01*
X226271143Y-88944844D01*
X226266704Y-88943037D01*
X224803401Y-87957202D01*
X224798455Y-87949739D01*
X224800236Y-87940963D01*
X224803402Y-87937797D01*
X226266706Y-86951961D01*
X226275480Y-86950181D01*
X226279896Y-86952042D01*
G37*
%TD.AperFunction*%
%TD*%
%TA.AperFunction,Conductor*%
%TO.N,Net-(D45-A)*%
G36*
X240567396Y-67902042D02*
G01*
X241857056Y-68794011D01*
X241861911Y-68801535D01*
X241862101Y-68803633D01*
X241862101Y-68991366D01*
X241858674Y-68999639D01*
X241857056Y-69000989D01*
X240567396Y-69892957D01*
X240558643Y-69894844D01*
X240554204Y-69893037D01*
X239090901Y-68907202D01*
X239085955Y-68899739D01*
X239087736Y-68890963D01*
X239090902Y-68887797D01*
X240554206Y-67901961D01*
X240562980Y-67900181D01*
X240567396Y-67902042D01*
G37*
%TD.AperFunction*%
%TD*%
%TA.AperFunction,Conductor*%
%TO.N,Net-(D46-A)*%
G36*
X245329896Y-86952042D02*
G01*
X246619556Y-87844011D01*
X246624411Y-87851535D01*
X246624601Y-87853633D01*
X246624601Y-88041366D01*
X246621174Y-88049639D01*
X246619556Y-88050989D01*
X245329896Y-88942957D01*
X245321143Y-88944844D01*
X245316704Y-88943037D01*
X243853401Y-87957202D01*
X243848455Y-87949739D01*
X243850236Y-87940963D01*
X243853402Y-87937797D01*
X245316706Y-86951961D01*
X245325480Y-86950181D01*
X245329896Y-86952042D01*
G37*
%TD.AperFunction*%
%TD*%
%TA.AperFunction,Conductor*%
%TO.N,Net-(D47-A)*%
G36*
X260028518Y-66860765D02*
G01*
X260030136Y-66862115D01*
X260162884Y-66994863D01*
X260166311Y-67003136D01*
X260166121Y-67005234D01*
X259884911Y-68547877D01*
X259880056Y-68555402D01*
X259875640Y-68557263D01*
X258143839Y-68894883D01*
X258135063Y-68893102D01*
X258130116Y-68885638D01*
X258130116Y-68881160D01*
X258195091Y-68547877D01*
X258467737Y-67149356D01*
X258472683Y-67141895D01*
X258477118Y-67140089D01*
X260019767Y-66858878D01*
X260028518Y-66860765D01*
G37*
%TD.AperFunction*%
%TD*%
%TA.AperFunction,Conductor*%
%TO.N,Net-(D48-A)*%
G36*
X264791018Y-85910765D02*
G01*
X264792636Y-85912115D01*
X264925384Y-86044863D01*
X264928811Y-86053136D01*
X264928621Y-86055234D01*
X264647411Y-87597877D01*
X264642556Y-87605402D01*
X264638140Y-87607263D01*
X262906339Y-87944883D01*
X262897563Y-87943102D01*
X262892616Y-87935638D01*
X262892616Y-87931160D01*
X262957591Y-87597877D01*
X263230237Y-86199356D01*
X263235183Y-86191895D01*
X263239618Y-86190089D01*
X264782267Y-85908878D01*
X264791018Y-85910765D01*
G37*
%TD.AperFunction*%
%TD*%
%TA.AperFunction,Conductor*%
%TO.N,Net-(D49-A)*%
G36*
X278667396Y-67902042D02*
G01*
X279957056Y-68794011D01*
X279961911Y-68801535D01*
X279962101Y-68803633D01*
X279962101Y-68991366D01*
X279958674Y-68999639D01*
X279957056Y-69000989D01*
X278667396Y-69892957D01*
X278658643Y-69894844D01*
X278654204Y-69893037D01*
X277190901Y-68907202D01*
X277185955Y-68899739D01*
X277187736Y-68890963D01*
X277190902Y-68887797D01*
X278654206Y-67901961D01*
X278662980Y-67900181D01*
X278667396Y-67902042D01*
G37*
%TD.AperFunction*%
%TD*%
%TA.AperFunction,Conductor*%
%TO.N,Net-(D50-A)*%
G36*
X283429896Y-86952042D02*
G01*
X284719556Y-87844011D01*
X284724411Y-87851535D01*
X284724601Y-87853633D01*
X284724601Y-88041366D01*
X284721174Y-88049639D01*
X284719556Y-88050989D01*
X283429896Y-88942957D01*
X283421143Y-88944844D01*
X283416704Y-88943037D01*
X281953401Y-87957202D01*
X281948455Y-87949739D01*
X281950236Y-87940963D01*
X281953402Y-87937797D01*
X283416706Y-86951961D01*
X283425480Y-86950181D01*
X283429896Y-86952042D01*
G37*
%TD.AperFunction*%
%TD*%
%TA.AperFunction,Conductor*%
%TO.N,Net-(D51-A)*%
G36*
X297717396Y-67902042D02*
G01*
X299007056Y-68794011D01*
X299011911Y-68801535D01*
X299012101Y-68803633D01*
X299012101Y-68991366D01*
X299008674Y-68999639D01*
X299007056Y-69000989D01*
X297717396Y-69892957D01*
X297708643Y-69894844D01*
X297704204Y-69893037D01*
X296240901Y-68907202D01*
X296235955Y-68899739D01*
X296237736Y-68890963D01*
X296240902Y-68887797D01*
X297704206Y-67901961D01*
X297712980Y-67900181D01*
X297717396Y-67902042D01*
G37*
%TD.AperFunction*%
%TD*%
%TA.AperFunction,Conductor*%
%TO.N,Net-(D52-A)*%
G36*
X302479896Y-86952042D02*
G01*
X303769556Y-87844011D01*
X303774411Y-87851535D01*
X303774601Y-87853633D01*
X303774601Y-88041366D01*
X303771174Y-88049639D01*
X303769556Y-88050989D01*
X302479896Y-88942957D01*
X302471143Y-88944844D01*
X302466704Y-88943037D01*
X301003401Y-87957202D01*
X300998455Y-87949739D01*
X301000236Y-87940963D01*
X301003402Y-87937797D01*
X302466706Y-86951961D01*
X302475480Y-86950181D01*
X302479896Y-86952042D01*
G37*
%TD.AperFunction*%
%TD*%
%TA.AperFunction,Conductor*%
%TO.N,Net-(D53-A)*%
G36*
X316767396Y-67902042D02*
G01*
X318057056Y-68794011D01*
X318061911Y-68801535D01*
X318062101Y-68803633D01*
X318062101Y-68991366D01*
X318058674Y-68999639D01*
X318057056Y-69000989D01*
X316767396Y-69892957D01*
X316758643Y-69894844D01*
X316754204Y-69893037D01*
X315290901Y-68907202D01*
X315285955Y-68899739D01*
X315287736Y-68890963D01*
X315290902Y-68887797D01*
X316754206Y-67901961D01*
X316762980Y-67900181D01*
X316767396Y-67902042D01*
G37*
%TD.AperFunction*%
%TD*%
%TA.AperFunction,Conductor*%
%TO.N,Net-(D59-A)*%
G36*
X121504896Y-106002042D02*
G01*
X122794556Y-106894011D01*
X122799411Y-106901535D01*
X122799601Y-106903633D01*
X122799601Y-107091366D01*
X122796174Y-107099639D01*
X122794556Y-107100989D01*
X121504896Y-107992957D01*
X121496143Y-107994844D01*
X121491704Y-107993037D01*
X120028401Y-107007202D01*
X120023455Y-106999739D01*
X120025236Y-106990963D01*
X120028402Y-106987797D01*
X121491706Y-106001961D01*
X121500480Y-106000181D01*
X121504896Y-106002042D01*
G37*
%TD.AperFunction*%
%TD*%
%TA.AperFunction,Conductor*%
%TO.N,Net-(D61-A)*%
G36*
X140554896Y-106002042D02*
G01*
X141844556Y-106894011D01*
X141849411Y-106901535D01*
X141849601Y-106903633D01*
X141849601Y-107091366D01*
X141846174Y-107099639D01*
X141844556Y-107100989D01*
X140554896Y-107992957D01*
X140546143Y-107994844D01*
X140541704Y-107993037D01*
X139078401Y-107007202D01*
X139073455Y-106999739D01*
X139075236Y-106990963D01*
X139078402Y-106987797D01*
X140541706Y-106001961D01*
X140550480Y-106000181D01*
X140554896Y-106002042D01*
G37*
%TD.AperFunction*%
%TD*%
%TA.AperFunction,Conductor*%
%TO.N,Net-(D63-A)*%
G36*
X160016018Y-104960765D02*
G01*
X160017636Y-104962115D01*
X160150384Y-105094863D01*
X160153811Y-105103136D01*
X160153621Y-105105234D01*
X159872411Y-106647877D01*
X159867556Y-106655402D01*
X159863140Y-106657263D01*
X158131339Y-106994883D01*
X158122563Y-106993102D01*
X158117616Y-106985638D01*
X158117616Y-106981160D01*
X158182591Y-106647877D01*
X158455237Y-105249356D01*
X158460183Y-105241895D01*
X158464618Y-105240089D01*
X160007267Y-104958878D01*
X160016018Y-104960765D01*
G37*
%TD.AperFunction*%
%TD*%
%TA.AperFunction,Conductor*%
%TO.N,Net-(D65-A)*%
G36*
X178654896Y-106002042D02*
G01*
X179944556Y-106894011D01*
X179949411Y-106901535D01*
X179949601Y-106903633D01*
X179949601Y-107091366D01*
X179946174Y-107099639D01*
X179944556Y-107100989D01*
X178654896Y-107992957D01*
X178646143Y-107994844D01*
X178641704Y-107993037D01*
X177178401Y-107007202D01*
X177173455Y-106999739D01*
X177175236Y-106990963D01*
X177178402Y-106987797D01*
X178641706Y-106001961D01*
X178650480Y-106000181D01*
X178654896Y-106002042D01*
G37*
%TD.AperFunction*%
%TD*%
%TA.AperFunction,Conductor*%
%TO.N,Net-(D67-A)*%
G36*
X197704896Y-106002042D02*
G01*
X198994556Y-106894011D01*
X198999411Y-106901535D01*
X198999601Y-106903633D01*
X198999601Y-107091366D01*
X198996174Y-107099639D01*
X198994556Y-107100989D01*
X197704896Y-107992957D01*
X197696143Y-107994844D01*
X197691704Y-107993037D01*
X196228401Y-107007202D01*
X196223455Y-106999739D01*
X196225236Y-106990963D01*
X196228402Y-106987797D01*
X197691706Y-106001961D01*
X197700480Y-106000181D01*
X197704896Y-106002042D01*
G37*
%TD.AperFunction*%
%TD*%
%TA.AperFunction,Conductor*%
%TO.N,Net-(D68-A)*%
G36*
X364392396Y-48852042D02*
G01*
X365682056Y-49744011D01*
X365686911Y-49751535D01*
X365687101Y-49753633D01*
X365687101Y-49941366D01*
X365683674Y-49949639D01*
X365682056Y-49950989D01*
X364392396Y-50842957D01*
X364383643Y-50844844D01*
X364379204Y-50843037D01*
X362915901Y-49857202D01*
X362910955Y-49849739D01*
X362912736Y-49840963D01*
X362915902Y-49837797D01*
X364379206Y-48851961D01*
X364387980Y-48850181D01*
X364392396Y-48852042D01*
G37*
%TD.AperFunction*%
%TD*%
%TA.AperFunction,Conductor*%
%TO.N,Net-(D69-A)*%
G36*
X216754896Y-106002042D02*
G01*
X218044556Y-106894011D01*
X218049411Y-106901535D01*
X218049601Y-106903633D01*
X218049601Y-107091366D01*
X218046174Y-107099639D01*
X218044556Y-107100989D01*
X216754896Y-107992957D01*
X216746143Y-107994844D01*
X216741704Y-107993037D01*
X215278401Y-107007202D01*
X215273455Y-106999739D01*
X215275236Y-106990963D01*
X215278402Y-106987797D01*
X216741706Y-106001961D01*
X216750480Y-106000181D01*
X216754896Y-106002042D01*
G37*
%TD.AperFunction*%
%TD*%
%TA.AperFunction,Conductor*%
%TO.N,Net-(D70-A)*%
G36*
X364392396Y-67902042D02*
G01*
X365682056Y-68794011D01*
X365686911Y-68801535D01*
X365687101Y-68803633D01*
X365687101Y-68991366D01*
X365683674Y-68999639D01*
X365682056Y-69000989D01*
X364392396Y-69892957D01*
X364383643Y-69894844D01*
X364379204Y-69893037D01*
X362915901Y-68907202D01*
X362910955Y-68899739D01*
X362912736Y-68890963D01*
X362915902Y-68887797D01*
X364379206Y-67901961D01*
X364387980Y-67900181D01*
X364392396Y-67902042D01*
G37*
%TD.AperFunction*%
%TD*%
%TA.AperFunction,Conductor*%
%TO.N,Net-(D71-A)*%
G36*
X235804896Y-106002042D02*
G01*
X237094556Y-106894011D01*
X237099411Y-106901535D01*
X237099601Y-106903633D01*
X237099601Y-107091366D01*
X237096174Y-107099639D01*
X237094556Y-107100989D01*
X235804896Y-107992957D01*
X235796143Y-107994844D01*
X235791704Y-107993037D01*
X234328401Y-107007202D01*
X234323455Y-106999739D01*
X234325236Y-106990963D01*
X234328402Y-106987797D01*
X235791706Y-106001961D01*
X235800480Y-106000181D01*
X235804896Y-106002042D01*
G37*
%TD.AperFunction*%
%TD*%
%TA.AperFunction,Conductor*%
%TO.N,Net-(D72-A)*%
G36*
X364387047Y-86942689D02*
G01*
X365681997Y-87826516D01*
X365686898Y-87834011D01*
X365687101Y-87836180D01*
X365687101Y-88023912D01*
X365683674Y-88032185D01*
X365682116Y-88033493D01*
X364397762Y-88933575D01*
X364389020Y-88935517D01*
X364384568Y-88933736D01*
X363025560Y-88030000D01*
X362915959Y-87957115D01*
X362910969Y-87949682D01*
X362912697Y-87940895D01*
X362915841Y-87937712D01*
X364373857Y-86942689D01*
X364382622Y-86940857D01*
X364387047Y-86942689D01*
G37*
%TD.AperFunction*%
%TD*%
%TA.AperFunction,Conductor*%
%TO.N,Net-(D73-A)*%
G36*
X254854896Y-106002042D02*
G01*
X256144556Y-106894011D01*
X256149411Y-106901535D01*
X256149601Y-106903633D01*
X256149601Y-107091366D01*
X256146174Y-107099639D01*
X256144556Y-107100989D01*
X254854896Y-107992957D01*
X254846143Y-107994844D01*
X254841704Y-107993037D01*
X253378401Y-107007202D01*
X253373455Y-106999739D01*
X253375236Y-106990963D01*
X253378402Y-106987797D01*
X254841706Y-106001961D01*
X254850480Y-106000181D01*
X254854896Y-106002042D01*
G37*
%TD.AperFunction*%
%TD*%
%TA.AperFunction,Conductor*%
%TO.N,Net-(D75-A)*%
G36*
X273904896Y-106002042D02*
G01*
X275194556Y-106894011D01*
X275199411Y-106901535D01*
X275199601Y-106903633D01*
X275199601Y-107091366D01*
X275196174Y-107099639D01*
X275194556Y-107100989D01*
X273904896Y-107992957D01*
X273896143Y-107994844D01*
X273891704Y-107993037D01*
X272428401Y-107007202D01*
X272423455Y-106999739D01*
X272425236Y-106990963D01*
X272428402Y-106987797D01*
X273891706Y-106001961D01*
X273900480Y-106000181D01*
X273904896Y-106002042D01*
G37*
%TD.AperFunction*%
%TD*%
%TA.AperFunction,Conductor*%
%TO.N,Net-(D77-A)*%
G36*
X293366018Y-104960765D02*
G01*
X293367636Y-104962115D01*
X293500384Y-105094863D01*
X293503811Y-105103136D01*
X293503621Y-105105234D01*
X293222411Y-106647877D01*
X293217556Y-106655402D01*
X293213140Y-106657263D01*
X291481339Y-106994883D01*
X291472563Y-106993102D01*
X291467616Y-106985638D01*
X291467616Y-106981160D01*
X291532591Y-106647877D01*
X291805237Y-105249356D01*
X291810183Y-105241895D01*
X291814618Y-105240089D01*
X293357267Y-104958878D01*
X293366018Y-104960765D01*
G37*
%TD.AperFunction*%
%TD*%
%TA.AperFunction,Conductor*%
%TO.N,Net-(D80-A)*%
G36*
X326292396Y-125052042D02*
G01*
X327582056Y-125944011D01*
X327586911Y-125951535D01*
X327587101Y-125953633D01*
X327587101Y-126141366D01*
X327583674Y-126149639D01*
X327582056Y-126150989D01*
X326292396Y-127042957D01*
X326283643Y-127044844D01*
X326279204Y-127043037D01*
X324815901Y-126057202D01*
X324810955Y-126049739D01*
X324812736Y-126040963D01*
X324815902Y-126037797D01*
X326279206Y-125051961D01*
X326287980Y-125050181D01*
X326292396Y-125052042D01*
G37*
%TD.AperFunction*%
%TD*%
%TA.AperFunction,Conductor*%
%TO.N,Net-(D81-A)*%
G36*
X345342396Y-106002042D02*
G01*
X346632056Y-106894011D01*
X346636911Y-106901535D01*
X346637101Y-106903633D01*
X346637101Y-107091366D01*
X346633674Y-107099639D01*
X346632056Y-107100989D01*
X345342396Y-107992957D01*
X345333643Y-107994844D01*
X345329204Y-107993037D01*
X343865901Y-107007202D01*
X343860955Y-106999739D01*
X343862736Y-106990963D01*
X343865902Y-106987797D01*
X345329206Y-106001961D01*
X345337980Y-106000181D01*
X345342396Y-106002042D01*
G37*
%TD.AperFunction*%
%TD*%
%TA.AperFunction,Conductor*%
%TO.N,Net-(D82-A)*%
G36*
X345753518Y-124010765D02*
G01*
X345755136Y-124012115D01*
X345887884Y-124144863D01*
X345891311Y-124153136D01*
X345891121Y-124155234D01*
X345609911Y-125697877D01*
X345605056Y-125705402D01*
X345600640Y-125707263D01*
X343868839Y-126044883D01*
X343860063Y-126043102D01*
X343855116Y-126035638D01*
X343855116Y-126031160D01*
X343920091Y-125697877D01*
X344192737Y-124299356D01*
X344197683Y-124291895D01*
X344202118Y-124290089D01*
X345744767Y-124008878D01*
X345753518Y-124010765D01*
G37*
%TD.AperFunction*%
%TD*%
%TA.AperFunction,Conductor*%
%TO.N,Net-(D85-A)*%
G36*
X364392396Y-106002042D02*
G01*
X365682056Y-106894011D01*
X365686911Y-106901535D01*
X365687101Y-106903633D01*
X365687101Y-107091366D01*
X365683674Y-107099639D01*
X365682056Y-107100989D01*
X364392396Y-107992957D01*
X364383643Y-107994844D01*
X364379204Y-107993037D01*
X362915901Y-107007202D01*
X362910955Y-106999739D01*
X362912736Y-106990963D01*
X362915902Y-106987797D01*
X364379206Y-106001961D01*
X364387980Y-106000181D01*
X364392396Y-106002042D01*
G37*
%TD.AperFunction*%
%TD*%
%TA.AperFunction,Conductor*%
%TO.N,Net-(D86-A)*%
G36*
X364392396Y-125052042D02*
G01*
X365682056Y-125944011D01*
X365686911Y-125951535D01*
X365687101Y-125953633D01*
X365687101Y-126141366D01*
X365683674Y-126149639D01*
X365682056Y-126150989D01*
X364392396Y-127042957D01*
X364383643Y-127044844D01*
X364379204Y-127043037D01*
X362915901Y-126057202D01*
X362910955Y-126049739D01*
X362912736Y-126040963D01*
X362915902Y-126037797D01*
X364379206Y-125051961D01*
X364387980Y-125050181D01*
X364392396Y-125052042D01*
G37*
%TD.AperFunction*%
%TD*%
M02*
