%TF.GenerationSoftware,KiCad,Pcbnew,9.0.7*%
%TF.CreationDate,2026-01-24T16:21:03+00:00*%
%TF.ProjectId,pcb,7063622e-6b69-4636-9164-5f7063625858,rev?*%
%TF.SameCoordinates,Original*%
%TF.FileFunction,Paste,Bot*%
%TF.FilePolarity,Positive*%
%FSLAX46Y46*%
G04 Gerber Fmt 4.6, Leading zero omitted, Abs format (unit mm)*
G04 Created by KiCad (PCBNEW 9.0.7) date 2026-01-24 16:21:03*
%MOMM*%
%LPD*%
G01*
G04 APERTURE LIST*
G04 Aperture macros list*
%AMRoundRect*
0 Rectangle with rounded corners*
0 $1 Rounding radius*
0 $2 $3 $4 $5 $6 $7 $8 $9 X,Y pos of 4 corners*
0 Add a 4 corners polygon primitive as box body*
4,1,4,$2,$3,$4,$5,$6,$7,$8,$9,$2,$3,0*
0 Add four circle primitives for the rounded corners*
1,1,$1+$1,$2,$3*
1,1,$1+$1,$4,$5*
1,1,$1+$1,$6,$7*
1,1,$1+$1,$8,$9*
0 Add four rect primitives between the rounded corners*
20,1,$1+$1,$2,$3,$4,$5,0*
20,1,$1+$1,$4,$5,$6,$7,0*
20,1,$1+$1,$6,$7,$8,$9,0*
20,1,$1+$1,$8,$9,$2,$3,0*%
G04 Aperture macros list end*
%ADD10RoundRect,0.250000X-1.025000X-1.000000X1.025000X-1.000000X1.025000X1.000000X-1.025000X1.000000X0*%
G04 APERTURE END LIST*
D10*
%TO.C,SW49*%
X273902500Y-68897500D03*
X286829500Y-66357500D03*
%TD*%
%TO.C,SW77*%
X288190000Y-106997500D03*
X301117000Y-104457500D03*
%TD*%
%TO.C,SW85*%
X359627500Y-106997500D03*
X372554500Y-104457500D03*
%TD*%
%TO.C,SW22*%
X207227500Y-49847500D03*
X220154500Y-47307500D03*
%TD*%
%TO.C,SW8*%
X231040000Y-26035000D03*
X243967000Y-23495000D03*
%TD*%
%TO.C,SW52*%
X297715000Y-87947500D03*
X310642000Y-85407500D03*
%TD*%
%TO.C,SW39*%
X178652500Y-68897500D03*
X191579500Y-66357500D03*
%TD*%
%TO.C,SW25*%
X264377500Y-49847500D03*
X277304500Y-47307500D03*
%TD*%
%TO.C,SW65*%
X173890000Y-106997500D03*
X186817000Y-104457500D03*
%TD*%
%TO.C,SW55*%
X335815000Y-68897500D03*
X348742000Y-66357500D03*
%TD*%
%TO.C,SW41*%
X197702500Y-68897500D03*
X210629500Y-66357500D03*
%TD*%
%TO.C,SW50*%
X278665000Y-87947500D03*
X291592000Y-85407500D03*
%TD*%
%TO.C,SW76*%
X290571250Y-126047500D03*
X303498250Y-123507500D03*
%TD*%
%TO.C,SW79*%
X314383750Y-106997500D03*
X327310750Y-104457500D03*
%TD*%
%TO.C,SW36*%
X145315000Y-87947500D03*
X158242000Y-85407500D03*
%TD*%
%TO.C,SW10*%
X273902500Y-26035000D03*
X286829500Y-23495000D03*
%TD*%
%TO.C,SW82*%
X340577500Y-126047500D03*
X353504500Y-123507500D03*
%TD*%
%TO.C,SW86*%
X359627500Y-126047500D03*
X372554500Y-123507500D03*
%TD*%
%TO.C,SW63*%
X154840000Y-106997500D03*
X167767000Y-104457500D03*
%TD*%
%TO.C,SW2*%
X111977500Y-26035000D03*
X124904500Y-23495000D03*
%TD*%
%TO.C,SW45*%
X235802500Y-68897500D03*
X248729500Y-66357500D03*
%TD*%
%TO.C,SW31*%
X102452500Y-68897500D03*
X115379500Y-66357500D03*
%TD*%
%TO.C,SW40*%
X183415000Y-87947500D03*
X196342000Y-85407500D03*
%TD*%
%TO.C,SW67*%
X192940000Y-106997500D03*
X205867000Y-104457500D03*
%TD*%
%TO.C,SW26*%
X283427500Y-49847500D03*
X296354500Y-47307500D03*
%TD*%
%TO.C,SW7*%
X211990000Y-26035000D03*
X224917000Y-23495000D03*
%TD*%
%TO.C,SW75*%
X269140000Y-106997500D03*
X282067000Y-104457500D03*
%TD*%
%TO.C,SW9*%
X250090000Y-26035000D03*
X263017000Y-23495000D03*
%TD*%
%TO.C,SW57*%
X85783750Y-106997500D03*
X98710750Y-104457500D03*
%TD*%
%TO.C,SW23*%
X226277500Y-49847500D03*
X239204500Y-47307500D03*
%TD*%
%TO.C,SW72*%
X359627500Y-87947500D03*
X372554500Y-85407500D03*
%TD*%
%TO.C,SW58*%
X76258750Y-126047500D03*
X89185750Y-123507500D03*
%TD*%
%TO.C,SW64*%
X195321250Y-126047500D03*
X208248250Y-123507500D03*
%TD*%
%TO.C,SW27*%
X302477500Y-49847500D03*
X315404500Y-47307500D03*
%TD*%
%TO.C,SW61*%
X135790000Y-106997500D03*
X148717000Y-104457500D03*
%TD*%
%TO.C,SW43*%
X216752500Y-68897500D03*
X229679500Y-66357500D03*
%TD*%
%TO.C,SW33*%
X121502500Y-68897500D03*
X134429500Y-66357500D03*
%TD*%
%TO.C,SW28*%
X331052500Y-49847500D03*
X343979500Y-47307500D03*
%TD*%
%TO.C,SW32*%
X107215000Y-87947500D03*
X120142000Y-85407500D03*
%TD*%
%TO.C,SW80*%
X321527500Y-126047500D03*
X334454500Y-123507500D03*
%TD*%
%TO.C,SW59*%
X116740000Y-106997500D03*
X129667000Y-104457500D03*
%TD*%
%TO.C,SW71*%
X231040000Y-106997500D03*
X243967000Y-104457500D03*
%TD*%
%TO.C,SW30*%
X81021250Y-87947500D03*
X93948250Y-85407500D03*
%TD*%
%TO.C,SW18*%
X131027500Y-49847500D03*
X143954500Y-47307500D03*
%TD*%
%TO.C,SW60*%
X100071250Y-126047500D03*
X112998250Y-123507500D03*
%TD*%
%TO.C,SW5*%
X169127500Y-26035000D03*
X182054500Y-23495000D03*
%TD*%
%TO.C,SW17*%
X111977500Y-49847500D03*
X124904500Y-47307500D03*
%TD*%
%TO.C,SW74*%
X266758750Y-126047500D03*
X279685750Y-123507500D03*
%TD*%
%TO.C,SW42*%
X202465000Y-87947500D03*
X215392000Y-85407500D03*
%TD*%
%TO.C,SW53*%
X312002500Y-68897500D03*
X324929500Y-66357500D03*
%TD*%
%TO.C,SW62*%
X123883750Y-126047500D03*
X136810750Y-123507500D03*
%TD*%
%TO.C,SW29*%
X78640000Y-68897500D03*
X91567000Y-66357500D03*
%TD*%
%TO.C,SW11*%
X292952500Y-26035000D03*
X305879500Y-23495000D03*
%TD*%
%TO.C,SW21*%
X188177500Y-49847500D03*
X201104500Y-47307500D03*
%TD*%
%TO.C,SW35*%
X140552500Y-68897500D03*
X153479500Y-66357500D03*
%TD*%
%TO.C,SW24*%
X245327500Y-49847500D03*
X258254500Y-47307500D03*
%TD*%
%TO.C,SW4*%
X150077500Y-26035000D03*
X163004500Y-23495000D03*
%TD*%
%TO.C,SW16*%
X92927500Y-49847500D03*
X105854500Y-47307500D03*
%TD*%
%TO.C,SW38*%
X164365000Y-87947500D03*
X177292000Y-85407500D03*
%TD*%
%TO.C,SW51*%
X292952500Y-68897500D03*
X305879500Y-66357500D03*
%TD*%
%TO.C,SW73*%
X250090000Y-106997500D03*
X263017000Y-104457500D03*
%TD*%
%TO.C,SW69*%
X211990000Y-106997500D03*
X224917000Y-104457500D03*
%TD*%
%TO.C,SW68*%
X359627500Y-49847500D03*
X372554500Y-47307500D03*
%TD*%
%TO.C,SW19*%
X150077500Y-49847500D03*
X163004500Y-47307500D03*
%TD*%
%TO.C,SW46*%
X240565000Y-87947500D03*
X253492000Y-85407500D03*
%TD*%
%TO.C,SW3*%
X131027500Y-26035000D03*
X143954500Y-23495000D03*
%TD*%
%TO.C,SW15*%
X73877500Y-49847500D03*
X86804500Y-47307500D03*
%TD*%
%TO.C,SW47*%
X254852500Y-68897500D03*
X267779500Y-66357500D03*
%TD*%
%TO.C,SW70*%
X359627500Y-68897500D03*
X372554500Y-66357500D03*
%TD*%
%TO.C,SW34*%
X126265000Y-87947500D03*
X139192000Y-85407500D03*
%TD*%
%TO.C,SW44*%
X221515000Y-87947500D03*
X234442000Y-85407500D03*
%TD*%
%TO.C,SW37*%
X159602500Y-68897500D03*
X172529500Y-66357500D03*
%TD*%
%TO.C,SW48*%
X259615000Y-87947500D03*
X272542000Y-85407500D03*
%TD*%
%TO.C,SW6*%
X192940000Y-26035000D03*
X205867000Y-23495000D03*
%TD*%
%TO.C,SW54*%
X328671250Y-87947500D03*
X341598250Y-85407500D03*
%TD*%
%TO.C,SW81*%
X340577500Y-106997500D03*
X353504500Y-104457500D03*
%TD*%
%TO.C,SW13*%
X331052500Y-26035000D03*
X343979500Y-23495000D03*
%TD*%
%TO.C,SW1*%
X73877500Y-26035000D03*
X86804500Y-23495000D03*
%TD*%
%TO.C,SW20*%
X169127500Y-49847500D03*
X182054500Y-47307500D03*
%TD*%
%TO.C,SW12*%
X312002500Y-26035000D03*
X324929500Y-23495000D03*
%TD*%
M02*
