M48
; DRILL file {KiCad 9.0.7} date 2026-01-24T16:21:00+0000
; FORMAT={-:-/ absolute / metric / decimal}
; #@! TF.CreationDate,2026-01-24T16:21:00+00:00
; #@! TF.GenerationSoftware,Kicad,Pcbnew,9.0.7
; #@! TF.FileFunction,NonPlated,1,2,NPTH
FMAT,2
METRIC
; #@! TA.AperFunction,NonPlated,NPTH,ComponentDrill
T1C1.750
; #@! TA.AperFunction,NonPlated,NPTH,ComponentDrill
T2C1.850
; #@! TA.AperFunction,NonPlated,NPTH,ComponentDrill
T3C2.200
; #@! TA.AperFunction,NonPlated,NPTH,ComponentDrill
T4C3.048
; #@! TA.AperFunction,NonPlated,NPTH,ComponentDrill
T5C3.200
; #@! TA.AperFunction,NonPlated,NPTH,ComponentDrill
T6C3.988
; #@! TA.AperFunction,NonPlated,NPTH,ComponentDrill
T7C4.000
%
G90
G05
T1
X75.882Y-28.575
X75.882Y-52.387
X78.264Y-128.588
X80.645Y-71.438
X83.026Y-90.487
X86.042Y-28.575
X86.042Y-52.387
X87.789Y-109.537
X88.424Y-128.588
X90.805Y-71.438
X93.186Y-90.487
X94.932Y-52.387
X97.949Y-109.537
X102.076Y-128.588
X104.457Y-71.438
X105.093Y-52.387
X109.22Y-90.487
X112.236Y-128.588
X113.983Y-28.575
X113.983Y-52.387
X114.617Y-71.438
X118.745Y-109.537
X119.38Y-90.487
X123.507Y-71.438
X124.142Y-28.575
X124.142Y-52.387
X125.889Y-128.588
X128.27Y-90.487
X128.905Y-109.537
X133.032Y-28.575
X133.032Y-52.387
X133.667Y-71.438
X136.049Y-128.588
X137.795Y-109.537
X138.43Y-90.487
X142.558Y-71.438
X143.192Y-28.575
X143.192Y-52.387
X147.32Y-90.487
X147.955Y-109.537
X152.082Y-28.575
X152.082Y-52.387
X152.718Y-71.438
X156.845Y-109.537
X157.48Y-90.487
X161.607Y-71.438
X162.243Y-28.575
X162.243Y-52.387
X166.37Y-90.487
X167.005Y-109.537
X171.132Y-28.575
X171.132Y-52.387
X171.767Y-71.438
X175.895Y-109.537
X176.53Y-90.487
X180.657Y-71.438
X181.292Y-28.575
X181.292Y-52.387
X185.42Y-90.487
X186.055Y-109.537
X190.183Y-52.387
X190.817Y-71.438
X194.945Y-28.575
X194.945Y-109.537
X195.58Y-90.487
X197.326Y-128.588
X199.707Y-71.438
X200.343Y-52.387
X204.47Y-90.487
X205.105Y-28.575
X205.105Y-109.537
X207.486Y-128.588
X209.232Y-52.387
X209.867Y-71.438
X213.995Y-28.575
X213.995Y-109.537
X214.63Y-90.487
X218.757Y-71.438
X219.392Y-52.387
X223.52Y-90.487
X224.155Y-28.575
X224.155Y-109.537
X228.282Y-52.387
X228.917Y-71.438
X233.045Y-28.575
X233.045Y-109.537
X233.68Y-90.487
X237.807Y-71.438
X238.442Y-52.387
X242.57Y-90.487
X243.205Y-28.575
X243.205Y-109.537
X247.332Y-52.387
X247.968Y-71.438
X252.095Y-28.575
X252.095Y-109.537
X252.73Y-90.487
X256.858Y-71.438
X257.493Y-52.387
X261.62Y-90.487
X262.255Y-28.575
X262.255Y-109.537
X266.382Y-52.387
X267.017Y-71.438
X268.764Y-128.588
X271.145Y-109.537
X271.78Y-90.487
X275.907Y-28.575
X275.907Y-71.438
X276.542Y-52.387
X278.924Y-128.588
X280.67Y-90.487
X281.305Y-109.537
X285.433Y-52.387
X286.067Y-28.575
X286.067Y-71.438
X290.195Y-109.537
X290.83Y-90.487
X292.576Y-128.588
X294.957Y-28.575
X294.957Y-71.438
X295.592Y-52.387
X299.72Y-90.487
X300.355Y-109.537
X302.736Y-128.588
X304.482Y-52.387
X305.118Y-28.575
X305.118Y-71.438
X309.88Y-90.487
X314.007Y-28.575
X314.007Y-71.438
X314.642Y-52.387
X316.389Y-109.537
X323.532Y-128.588
X324.167Y-28.575
X324.167Y-71.438
X326.549Y-109.537
X330.676Y-90.487
X333.058Y-28.575
X333.058Y-52.387
X333.692Y-128.588
X337.82Y-71.438
X340.836Y-90.487
X342.582Y-109.537
X342.582Y-128.588
X343.217Y-28.575
X343.217Y-52.387
X347.98Y-71.438
X352.743Y-109.537
X352.743Y-128.588
X361.632Y-52.387
X361.632Y-71.438
X361.632Y-90.487
X361.632Y-109.537
X361.632Y-128.588
X371.792Y-52.387
X371.792Y-71.438
X371.792Y-90.487
X371.792Y-109.537
X371.792Y-128.588
T2
X52.979Y-20.94
X57.829Y-20.94
T3
X52.679Y-17.91
X58.129Y-17.91
T4
X80.931Y-102.552
X104.807Y-102.552
X152.406Y-121.602
X252.406Y-121.602
X323.818Y-83.502
X326.2Y-45.402
X347.694Y-83.502
X350.075Y-45.402
T5
X49.9Y-137.18
X100.32Y-26.02
X178.28Y-125.49
X314.35Y-126.2
X378.82Y-21.51
X378.91Y-139.42
T6
X80.931Y-117.762
X104.807Y-117.762
X152.406Y-136.812
X252.406Y-136.812
X323.818Y-98.712
X326.2Y-60.612
X347.694Y-98.712
X350.075Y-60.612
T7
X80.962Y-28.575
X80.962Y-52.387
X83.344Y-128.588
X85.725Y-71.438
X88.106Y-90.487
X92.869Y-109.537
X100.012Y-52.387
X107.156Y-128.588
X109.537Y-71.438
X114.3Y-90.487
X119.062Y-28.575
X119.062Y-52.387
X123.825Y-109.537
X128.588Y-71.438
X130.969Y-128.588
X133.35Y-90.487
X138.112Y-28.575
X138.112Y-52.387
X142.875Y-109.537
X147.637Y-71.438
X152.4Y-90.487
X157.162Y-28.575
X157.162Y-52.387
X161.925Y-109.537
X166.688Y-71.438
X171.45Y-90.487
X176.213Y-28.575
X176.213Y-52.387
X180.975Y-109.537
X185.737Y-71.438
X190.5Y-90.487
X195.262Y-52.387
X200.025Y-28.575
X200.025Y-109.537
X202.406Y-128.588
X204.787Y-71.438
X209.55Y-90.487
X214.312Y-52.387
X219.075Y-28.575
X219.075Y-109.537
X223.837Y-71.438
X228.6Y-90.487
X233.362Y-52.387
X238.125Y-28.575
X238.125Y-109.537
X242.887Y-71.438
X247.65Y-90.487
X252.412Y-52.387
X257.175Y-28.575
X257.175Y-109.537
X261.938Y-71.438
X266.7Y-90.487
X271.462Y-52.387
X273.844Y-128.588
X276.225Y-109.537
X280.988Y-28.575
X280.988Y-71.438
X285.75Y-90.487
X290.512Y-52.387
X295.275Y-109.537
X297.656Y-128.588
X300.037Y-28.575
X300.037Y-71.438
X304.8Y-90.487
X309.562Y-52.387
X319.087Y-28.575
X319.087Y-71.438
X321.469Y-109.537
X328.613Y-128.588
X335.756Y-90.487
X338.137Y-28.575
X338.137Y-52.387
X342.9Y-71.438
X347.662Y-109.537
X347.662Y-128.588
X366.712Y-52.387
X366.712Y-71.438
X366.712Y-90.487
X366.712Y-109.537
X366.712Y-128.588
M30
