%TF.GenerationSoftware,KiCad,Pcbnew,9.0.7*%
%TF.CreationDate,2026-01-24T16:21:03+00:00*%
%TF.ProjectId,pcb,7063622e-6b69-4636-9164-5f7063625858,rev?*%
%TF.SameCoordinates,Original*%
%TF.FileFunction,Copper,L2,Bot*%
%TF.FilePolarity,Positive*%
%FSLAX46Y46*%
G04 Gerber Fmt 4.6, Leading zero omitted, Abs format (unit mm)*
G04 Created by KiCad (PCBNEW 9.0.7) date 2026-01-24 16:21:03*
%MOMM*%
%LPD*%
G01*
G04 APERTURE LIST*
G04 Aperture macros list*
%AMRoundRect*
0 Rectangle with rounded corners*
0 $1 Rounding radius*
0 $2 $3 $4 $5 $6 $7 $8 $9 X,Y pos of 4 corners*
0 Add a 4 corners polygon primitive as box body*
4,1,4,$2,$3,$4,$5,$6,$7,$8,$9,$2,$3,0*
0 Add four circle primitives for the rounded corners*
1,1,$1+$1,$2,$3*
1,1,$1+$1,$4,$5*
1,1,$1+$1,$6,$7*
1,1,$1+$1,$8,$9*
0 Add four rect primitives between the rounded corners*
20,1,$1+$1,$2,$3,$4,$5,0*
20,1,$1+$1,$4,$5,$6,$7,0*
20,1,$1+$1,$6,$7,$8,$9,0*
20,1,$1+$1,$8,$9,$2,$3,0*%
%AMFreePoly0*
4,1,37,0.603843,0.796157,0.639018,0.796157,0.711114,0.766294,0.766294,0.711114,0.796157,0.639018,0.796157,0.603843,0.800000,0.600000,0.800000,-0.600000,0.796157,-0.603843,0.796157,-0.639018,0.766294,-0.711114,0.711114,-0.766294,0.639018,-0.796157,0.603843,-0.796157,0.600000,-0.800000,0.000000,-0.800000,0.000000,-0.796148,-0.078414,-0.796148,-0.232228,-0.765552,-0.377117,-0.705537,
-0.507515,-0.618408,-0.618408,-0.507515,-0.705537,-0.377117,-0.765552,-0.232228,-0.796148,-0.078414,-0.796148,0.078414,-0.765552,0.232228,-0.705537,0.377117,-0.618408,0.507515,-0.507515,0.618408,-0.377117,0.705537,-0.232228,0.765552,-0.078414,0.796148,0.000000,0.796148,0.000000,0.800000,0.600000,0.800000,0.603843,0.796157,0.603843,0.796157,$1*%
%AMFreePoly1*
4,1,37,0.000000,0.796148,0.078414,0.796148,0.232228,0.765552,0.377117,0.705537,0.507515,0.618408,0.618408,0.507515,0.705537,0.377117,0.765552,0.232228,0.796148,0.078414,0.796148,-0.078414,0.765552,-0.232228,0.705537,-0.377117,0.618408,-0.507515,0.507515,-0.618408,0.377117,-0.705537,0.232228,-0.765552,0.078414,-0.796148,0.000000,-0.796148,0.000000,-0.800000,-0.600000,-0.800000,
-0.603843,-0.796157,-0.639018,-0.796157,-0.711114,-0.766294,-0.766294,-0.711114,-0.796157,-0.639018,-0.796157,-0.603843,-0.800000,-0.600000,-0.800000,0.600000,-0.796157,0.603843,-0.796157,0.639018,-0.766294,0.711114,-0.711114,0.766294,-0.639018,0.796157,-0.603843,0.796157,-0.600000,0.800000,0.000000,0.800000,0.000000,0.796148,0.000000,0.796148,$1*%
G04 Aperture macros list end*
%TA.AperFunction,SMDPad,CuDef*%
%ADD10RoundRect,0.250000X-1.525000X-1.000000X1.525000X-1.000000X1.525000X1.000000X-1.525000X1.000000X0*%
%TD*%
%TA.AperFunction,ComponentPad*%
%ADD11C,3.600000*%
%TD*%
%TA.AperFunction,ComponentPad*%
%ADD12RoundRect,0.200000X-0.600000X-0.600000X0.600000X-0.600000X0.600000X0.600000X-0.600000X0.600000X0*%
%TD*%
%TA.AperFunction,ComponentPad*%
%ADD13C,1.600000*%
%TD*%
%TA.AperFunction,ComponentPad*%
%ADD14FreePoly0,0.000000*%
%TD*%
%TA.AperFunction,ComponentPad*%
%ADD15FreePoly1,0.000000*%
%TD*%
%TA.AperFunction,ComponentPad*%
%ADD16R,1.700000X1.700000*%
%TD*%
%TA.AperFunction,ComponentPad*%
%ADD17C,1.700000*%
%TD*%
%TA.AperFunction,ComponentPad*%
%ADD18R,2.000000X2.000000*%
%TD*%
%TA.AperFunction,ComponentPad*%
%ADD19C,2.000000*%
%TD*%
%TA.AperFunction,ComponentPad*%
%ADD20R,3.200000X2.000000*%
%TD*%
%TA.AperFunction,ComponentPad*%
%ADD21RoundRect,0.250000X-0.550000X-0.550000X0.550000X-0.550000X0.550000X0.550000X-0.550000X0.550000X0*%
%TD*%
%TA.AperFunction,ComponentPad*%
%ADD22O,1.700000X1.700000*%
%TD*%
%TA.AperFunction,ViaPad*%
%ADD23C,0.600000*%
%TD*%
%TA.AperFunction,Conductor*%
%ADD24C,0.200000*%
%TD*%
G04 APERTURE END LIST*
D10*
%TO.P,SW49,1,1*%
%TO.N,Net-(D49-A)*%
X274402500Y-68897500D03*
D11*
X277177500Y-68897500D03*
%TO.P,SW49,2,2*%
%TO.N,c11*%
X283527500Y-66357500D03*
D10*
X286307500Y-66357500D03*
%TD*%
%TO.P,SW77,1,1*%
%TO.N,Net-(D77-A)*%
X288690000Y-106997500D03*
D11*
X291465000Y-106997500D03*
%TO.P,SW77,2,2*%
%TO.N,c11*%
X297815000Y-104457500D03*
D10*
X300595000Y-104457500D03*
%TD*%
D12*
%TO.P,A1,1,GPIO0*%
%TO.N,unconnected-(A1-GPIO0-Pad1)*%
X46513750Y-17780000D03*
D13*
%TO.P,A1,2,GPIO1*%
%TO.N,unconnected-(A1-GPIO1-Pad2)*%
X46513750Y-20320000D03*
D14*
%TO.P,A1,3,GND*%
%TO.N,GND*%
X46513750Y-22860000D03*
D13*
%TO.P,A1,4,GPIO2*%
%TO.N,sda*%
X46513750Y-25400000D03*
%TO.P,A1,5,GPIO3*%
%TO.N,scl*%
X46513750Y-27940000D03*
%TO.P,A1,6,GPIO4*%
%TO.N,a*%
X46513750Y-30480000D03*
%TO.P,A1,7,GPIO5*%
%TO.N,b*%
X46513750Y-33020000D03*
D14*
%TO.P,A1,8,GND*%
%TO.N,GND*%
X46513750Y-35560000D03*
D13*
%TO.P,A1,9,GPIO6*%
%TO.N,unconnected-(A1-GPIO6-Pad9)*%
X46513750Y-38100000D03*
%TO.P,A1,10,GPIO7*%
%TO.N,unconnected-(A1-GPIO7-Pad10)*%
X46513750Y-40640000D03*
%TO.P,A1,11,GPIO8*%
%TO.N,unconnected-(A1-GPIO8-Pad11)*%
X46513750Y-43180000D03*
%TO.P,A1,12,GPIO9*%
%TO.N,unconnected-(A1-GPIO9-Pad12)*%
X46513750Y-45720000D03*
D14*
%TO.P,A1,13,GND*%
%TO.N,GND*%
X46513750Y-48260000D03*
D13*
%TO.P,A1,14,GPIO10*%
%TO.N,unconnected-(A1-GPIO10-Pad14)*%
X46513750Y-50800000D03*
%TO.P,A1,15,GPIO11*%
%TO.N,unconnected-(A1-GPIO11-Pad15)*%
X46513750Y-53340000D03*
%TO.P,A1,16,GPIO12*%
%TO.N,unconnected-(A1-GPIO12-Pad16)*%
X46513750Y-55880000D03*
%TO.P,A1,17,GPIO13*%
%TO.N,unconnected-(A1-GPIO13-Pad17)*%
X46513750Y-58420000D03*
D14*
%TO.P,A1,18,GND*%
%TO.N,GND*%
X46513750Y-60960000D03*
D13*
%TO.P,A1,19,GPIO14*%
%TO.N,unconnected-(A1-GPIO14-Pad19)*%
X46513750Y-63500000D03*
%TO.P,A1,20,GPIO15*%
%TO.N,unconnected-(A1-GPIO15-Pad20)*%
X46513750Y-66040000D03*
%TO.P,A1,21,GPIO16*%
%TO.N,r1*%
X64293750Y-66040000D03*
%TO.P,A1,22,GPIO17*%
%TO.N,r2*%
X64293750Y-63500000D03*
D15*
%TO.P,A1,23,GND*%
%TO.N,GND*%
X64293750Y-60960000D03*
D13*
%TO.P,A1,24,GPIO18*%
%TO.N,r3*%
X64293750Y-58420000D03*
%TO.P,A1,25,GPIO19*%
%TO.N,r4*%
X64293750Y-55880000D03*
%TO.P,A1,26,GPIO20*%
%TO.N,r5*%
X64293750Y-53340000D03*
%TO.P,A1,27,GPIO21*%
%TO.N,r6*%
X64293750Y-50800000D03*
D15*
%TO.P,A1,28,GND*%
%TO.N,GND*%
X64293750Y-48260000D03*
D13*
%TO.P,A1,29,GPIO22*%
%TO.N,reSwitch*%
X64293750Y-45720000D03*
%TO.P,A1,30,RUN*%
%TO.N,unconnected-(A1-RUN-Pad30)*%
X64293750Y-43180000D03*
%TO.P,A1,31,GPIO26_ADC0*%
%TO.N,unconnected-(A1-GPIO26_ADC0-Pad31)*%
X64293750Y-40640000D03*
%TO.P,A1,32,GPIO27_ADC1*%
%TO.N,unconnected-(A1-GPIO27_ADC1-Pad32)*%
X64293750Y-38100000D03*
D15*
%TO.P,A1,33,AGND*%
%TO.N,unconnected-(A1-AGND-Pad33)*%
X64293750Y-35560000D03*
D13*
%TO.P,A1,34,GPIO28_ADC2*%
%TO.N,unconnected-(A1-GPIO28_ADC2-Pad34)*%
X64293750Y-33020000D03*
%TO.P,A1,35,ADC_VREF*%
%TO.N,unconnected-(A1-ADC_VREF-Pad35)*%
X64293750Y-30480000D03*
%TO.P,A1,36,3V3*%
%TO.N,+3.3V*%
X64293750Y-27940000D03*
%TO.P,A1,37,3V3_EN*%
%TO.N,unconnected-(A1-3V3_EN-Pad37)*%
X64293750Y-25400000D03*
D15*
%TO.P,A1,38,GND*%
%TO.N,GND*%
X64293750Y-22860000D03*
D13*
%TO.P,A1,39,VSYS*%
%TO.N,unconnected-(A1-VSYS-Pad39)*%
X64293750Y-20320000D03*
%TO.P,A1,40,VBUS*%
%TO.N,unconnected-(A1-VBUS-Pad40)*%
X64293750Y-17780000D03*
%TD*%
D10*
%TO.P,SW85,1,1*%
%TO.N,Net-(D85-A)*%
X360127500Y-106997500D03*
D11*
X362902500Y-106997500D03*
%TO.P,SW85,2,2*%
%TO.N,c15*%
X369252500Y-104457500D03*
D10*
X372032500Y-104457500D03*
%TD*%
%TO.P,SW22,1,1*%
%TO.N,Net-(D22-A)*%
X207727500Y-49847500D03*
D11*
X210502500Y-49847500D03*
%TO.P,SW22,2,2*%
%TO.N,c8*%
X216852500Y-47307500D03*
D10*
X219632500Y-47307500D03*
%TD*%
%TO.P,SW8,1,1*%
%TO.N,Net-(D8-A)*%
X231540000Y-26035000D03*
D11*
X234315000Y-26035000D03*
%TO.P,SW8,2,2*%
%TO.N,c8*%
X240665000Y-23495000D03*
D10*
X243445000Y-23495000D03*
%TD*%
%TO.P,SW52,1,1*%
%TO.N,Net-(D52-A)*%
X298215000Y-87947500D03*
D11*
X300990000Y-87947500D03*
%TO.P,SW52,2,2*%
%TO.N,c12*%
X307340000Y-85407500D03*
D10*
X310120000Y-85407500D03*
%TD*%
%TO.P,SW39,1,1*%
%TO.N,Net-(D39-A)*%
X179152500Y-68897500D03*
D11*
X181927500Y-68897500D03*
%TO.P,SW39,2,2*%
%TO.N,c6*%
X188277500Y-66357500D03*
D10*
X191057500Y-66357500D03*
%TD*%
%TO.P,SW25,1,1*%
%TO.N,Net-(D25-A)*%
X264877500Y-49847500D03*
D11*
X267652500Y-49847500D03*
%TO.P,SW25,2,2*%
%TO.N,c11*%
X274002500Y-47307500D03*
D10*
X276782500Y-47307500D03*
%TD*%
%TO.P,SW65,1,1*%
%TO.N,Net-(D65-A)*%
X174390000Y-106997500D03*
D11*
X177165000Y-106997500D03*
%TO.P,SW65,2,2*%
%TO.N,c5*%
X183515000Y-104457500D03*
D10*
X186295000Y-104457500D03*
%TD*%
%TO.P,SW55,1,1*%
%TO.N,Net-(D55-A)*%
X336315000Y-68897500D03*
D11*
X339090000Y-68897500D03*
%TO.P,SW55,2,2*%
%TO.N,c14*%
X345440000Y-66357500D03*
D10*
X348220000Y-66357500D03*
%TD*%
%TO.P,SW41,1,1*%
%TO.N,Net-(D41-A)*%
X198202500Y-68897500D03*
D11*
X200977500Y-68897500D03*
%TO.P,SW41,2,2*%
%TO.N,c7*%
X207327500Y-66357500D03*
D10*
X210107500Y-66357500D03*
%TD*%
%TO.P,SW50,1,1*%
%TO.N,Net-(D50-A)*%
X279165000Y-87947500D03*
D11*
X281940000Y-87947500D03*
%TO.P,SW50,2,2*%
%TO.N,c11*%
X288290000Y-85407500D03*
D10*
X291070000Y-85407500D03*
%TD*%
%TO.P,SW76,1,1*%
%TO.N,Net-(D76-A)*%
X291071250Y-126047500D03*
D11*
X293846250Y-126047500D03*
%TO.P,SW76,2,2*%
%TO.N,c10*%
X300196250Y-123507500D03*
D10*
X302976250Y-123507500D03*
%TD*%
%TO.P,SW79,1,1*%
%TO.N,Net-(D79-A)*%
X314883750Y-106997500D03*
D11*
X317658750Y-106997500D03*
%TO.P,SW79,2,2*%
%TO.N,c12*%
X324008750Y-104457500D03*
D10*
X326788750Y-104457500D03*
%TD*%
%TO.P,SW36,1,1*%
%TO.N,Net-(D36-A)*%
X145815000Y-87947500D03*
D11*
X148590000Y-87947500D03*
%TO.P,SW36,2,2*%
%TO.N,c4*%
X154940000Y-85407500D03*
D10*
X157720000Y-85407500D03*
%TD*%
%TO.P,SW10,1,1*%
%TO.N,Net-(D10-A)*%
X274402500Y-26035000D03*
D11*
X277177500Y-26035000D03*
%TO.P,SW10,2,2*%
%TO.N,c10*%
X283527500Y-23495000D03*
D10*
X286307500Y-23495000D03*
%TD*%
%TO.P,SW82,1,1*%
%TO.N,Net-(D82-A)*%
X341077500Y-126047500D03*
D11*
X343852500Y-126047500D03*
%TO.P,SW82,2,2*%
%TO.N,c13*%
X350202500Y-123507500D03*
D10*
X352982500Y-123507500D03*
%TD*%
D16*
%TO.P,J2,1,Pin_1*%
%TO.N,+3.3V*%
X46480000Y-119250000D03*
D17*
%TO.P,J2,2,Pin_2*%
%TO.N,GND*%
X46480000Y-121790000D03*
%TO.P,J2,3,Pin_3*%
%TO.N,+5V*%
X46480000Y-124330000D03*
%TD*%
D18*
%TO.P,SW14,A,A*%
%TO.N,a*%
X355940000Y-25200000D03*
D19*
%TO.P,SW14,B,B*%
%TO.N,b*%
X355940000Y-30200000D03*
%TO.P,SW14,C,C*%
%TO.N,GND*%
X355940000Y-27700000D03*
D20*
%TO.P,SW14,MP*%
%TO.N,N/C*%
X363440000Y-22100000D03*
X363440000Y-33300000D03*
D19*
%TO.P,SW14,S1,S1*%
%TO.N,GND*%
X370440000Y-30200000D03*
%TO.P,SW14,S2,S2*%
%TO.N,reSwitch*%
X370440000Y-25200000D03*
%TD*%
D10*
%TO.P,SW86,1,1*%
%TO.N,Net-(D86-A)*%
X360127500Y-126047500D03*
D11*
X362902500Y-126047500D03*
%TO.P,SW86,2,2*%
%TO.N,c15*%
X369252500Y-123507500D03*
D10*
X372032500Y-123507500D03*
%TD*%
%TO.P,SW63,1,1*%
%TO.N,Net-(D63-A)*%
X155340000Y-106997500D03*
D11*
X158115000Y-106997500D03*
%TO.P,SW63,2,2*%
%TO.N,c4*%
X164465000Y-104457500D03*
D10*
X167245000Y-104457500D03*
%TD*%
%TO.P,SW2,1,1*%
%TO.N,Net-(D2-A)*%
X112477500Y-26035000D03*
D11*
X115252500Y-26035000D03*
%TO.P,SW2,2,2*%
%TO.N,c2*%
X121602500Y-23495000D03*
D10*
X124382500Y-23495000D03*
%TD*%
%TO.P,SW45,1,1*%
%TO.N,Net-(D45-A)*%
X236302500Y-68897500D03*
D11*
X239077500Y-68897500D03*
%TO.P,SW45,2,2*%
%TO.N,c9*%
X245427500Y-66357500D03*
D10*
X248207500Y-66357500D03*
%TD*%
%TO.P,SW31,1,1*%
%TO.N,Net-(D31-A)*%
X102952500Y-68897500D03*
D11*
X105727500Y-68897500D03*
%TO.P,SW31,2,2*%
%TO.N,c2*%
X112077500Y-66357500D03*
D10*
X114857500Y-66357500D03*
%TD*%
%TO.P,SW40,1,1*%
%TO.N,Net-(D40-A)*%
X183915000Y-87947500D03*
D11*
X186690000Y-87947500D03*
%TO.P,SW40,2,2*%
%TO.N,c6*%
X193040000Y-85407500D03*
D10*
X195820000Y-85407500D03*
%TD*%
%TO.P,SW67,1,1*%
%TO.N,Net-(D67-A)*%
X193440000Y-106997500D03*
D11*
X196215000Y-106997500D03*
%TO.P,SW67,2,2*%
%TO.N,c6*%
X202565000Y-104457500D03*
D10*
X205345000Y-104457500D03*
%TD*%
%TO.P,SW26,1,1*%
%TO.N,Net-(D26-A)*%
X283927500Y-49847500D03*
D11*
X286702500Y-49847500D03*
%TO.P,SW26,2,2*%
%TO.N,c12*%
X293052500Y-47307500D03*
D10*
X295832500Y-47307500D03*
%TD*%
%TO.P,SW7,1,1*%
%TO.N,Net-(D7-A)*%
X212490000Y-26035000D03*
D11*
X215265000Y-26035000D03*
%TO.P,SW7,2,2*%
%TO.N,c7*%
X221615000Y-23495000D03*
D10*
X224395000Y-23495000D03*
%TD*%
%TO.P,SW75,1,1*%
%TO.N,Net-(D75-A)*%
X269640000Y-106997500D03*
D11*
X272415000Y-106997500D03*
%TO.P,SW75,2,2*%
%TO.N,c10*%
X278765000Y-104457500D03*
D10*
X281545000Y-104457500D03*
%TD*%
%TO.P,SW9,1,1*%
%TO.N,Net-(D9-A)*%
X250590000Y-26035000D03*
D11*
X253365000Y-26035000D03*
%TO.P,SW9,2,2*%
%TO.N,c9*%
X259715000Y-23495000D03*
D10*
X262495000Y-23495000D03*
%TD*%
%TO.P,SW57,1,1*%
%TO.N,Net-(D57-A)*%
X86283750Y-106997500D03*
D11*
X89058750Y-106997500D03*
%TO.P,SW57,2,2*%
%TO.N,c1*%
X95408750Y-104457500D03*
D10*
X98188750Y-104457500D03*
%TD*%
%TO.P,SW23,1,1*%
%TO.N,Net-(D23-A)*%
X226777500Y-49847500D03*
D11*
X229552500Y-49847500D03*
%TO.P,SW23,2,2*%
%TO.N,c9*%
X235902500Y-47307500D03*
D10*
X238682500Y-47307500D03*
%TD*%
%TO.P,SW72,1,1*%
%TO.N,Net-(D72-A)*%
X360127500Y-87947500D03*
D11*
X362902500Y-87947500D03*
%TO.P,SW72,2,2*%
%TO.N,c15*%
X369252500Y-85407500D03*
D10*
X372032500Y-85407500D03*
%TD*%
%TO.P,SW58,1,1*%
%TO.N,Net-(D58-A)*%
X76758750Y-126047500D03*
D11*
X79533750Y-126047500D03*
%TO.P,SW58,2,2*%
%TO.N,c1*%
X85883750Y-123507500D03*
D10*
X88663750Y-123507500D03*
%TD*%
%TO.P,SW64,1,1*%
%TO.N,Net-(D64-A)*%
X195821250Y-126047500D03*
D11*
X198596250Y-126047500D03*
%TO.P,SW64,2,2*%
%TO.N,c4*%
X204946250Y-123507500D03*
D10*
X207726250Y-123507500D03*
%TD*%
%TO.P,SW27,1,1*%
%TO.N,Net-(D27-A)*%
X302977500Y-49847500D03*
D11*
X305752500Y-49847500D03*
%TO.P,SW27,2,2*%
%TO.N,c13*%
X312102500Y-47307500D03*
D10*
X314882500Y-47307500D03*
%TD*%
%TO.P,SW61,1,1*%
%TO.N,Net-(D61-A)*%
X136290000Y-106997500D03*
D11*
X139065000Y-106997500D03*
%TO.P,SW61,2,2*%
%TO.N,c3*%
X145415000Y-104457500D03*
D10*
X148195000Y-104457500D03*
%TD*%
%TO.P,SW43,1,1*%
%TO.N,Net-(D43-A)*%
X217252500Y-68897500D03*
D11*
X220027500Y-68897500D03*
%TO.P,SW43,2,2*%
%TO.N,c8*%
X226377500Y-66357500D03*
D10*
X229157500Y-66357500D03*
%TD*%
%TO.P,SW33,1,1*%
%TO.N,Net-(D33-A)*%
X122002500Y-68897500D03*
D11*
X124777500Y-68897500D03*
%TO.P,SW33,2,2*%
%TO.N,c3*%
X131127500Y-66357500D03*
D10*
X133907500Y-66357500D03*
%TD*%
%TO.P,SW28,1,1*%
%TO.N,Net-(D28-A)*%
X331552500Y-49847500D03*
D11*
X334327500Y-49847500D03*
%TO.P,SW28,2,2*%
%TO.N,c14*%
X340677500Y-47307500D03*
D10*
X343457500Y-47307500D03*
%TD*%
%TO.P,SW32,1,1*%
%TO.N,Net-(D32-A)*%
X107715000Y-87947500D03*
D11*
X110490000Y-87947500D03*
%TO.P,SW32,2,2*%
%TO.N,c2*%
X116840000Y-85407500D03*
D10*
X119620000Y-85407500D03*
%TD*%
%TO.P,SW80,1,1*%
%TO.N,Net-(D80-A)*%
X322027500Y-126047500D03*
D11*
X324802500Y-126047500D03*
%TO.P,SW80,2,2*%
%TO.N,c12*%
X331152500Y-123507500D03*
D10*
X333932500Y-123507500D03*
%TD*%
%TO.P,SW59,1,1*%
%TO.N,Net-(D59-A)*%
X117240000Y-106997500D03*
D11*
X120015000Y-106997500D03*
%TO.P,SW59,2,2*%
%TO.N,c2*%
X126365000Y-104457500D03*
D10*
X129145000Y-104457500D03*
%TD*%
%TO.P,SW71,1,1*%
%TO.N,Net-(D71-A)*%
X231540000Y-106997500D03*
D11*
X234315000Y-106997500D03*
%TO.P,SW71,2,2*%
%TO.N,c8*%
X240665000Y-104457500D03*
D10*
X243445000Y-104457500D03*
%TD*%
%TO.P,SW30,1,1*%
%TO.N,Net-(D30-A)*%
X81521250Y-87947500D03*
D11*
X84296250Y-87947500D03*
%TO.P,SW30,2,2*%
%TO.N,c1*%
X90646250Y-85407500D03*
D10*
X93426250Y-85407500D03*
%TD*%
%TO.P,SW18,1,1*%
%TO.N,Net-(D18-A)*%
X131527500Y-49847500D03*
D11*
X134302500Y-49847500D03*
%TO.P,SW18,2,2*%
%TO.N,c4*%
X140652500Y-47307500D03*
D10*
X143432500Y-47307500D03*
%TD*%
%TO.P,SW60,1,1*%
%TO.N,Net-(D60-A)*%
X100571250Y-126047500D03*
D11*
X103346250Y-126047500D03*
%TO.P,SW60,2,2*%
%TO.N,c2*%
X109696250Y-123507500D03*
D10*
X112476250Y-123507500D03*
%TD*%
%TO.P,SW5,1,1*%
%TO.N,Net-(D5-A)*%
X169627500Y-26035000D03*
D11*
X172402500Y-26035000D03*
%TO.P,SW5,2,2*%
%TO.N,c5*%
X178752500Y-23495000D03*
D10*
X181532500Y-23495000D03*
%TD*%
%TO.P,SW17,1,1*%
%TO.N,Net-(D17-A)*%
X112477500Y-49847500D03*
D11*
X115252500Y-49847500D03*
%TO.P,SW17,2,2*%
%TO.N,c3*%
X121602500Y-47307500D03*
D10*
X124382500Y-47307500D03*
%TD*%
%TO.P,SW74,1,1*%
%TO.N,Net-(D74-A)*%
X267258750Y-126047500D03*
D11*
X270033750Y-126047500D03*
%TO.P,SW74,2,2*%
%TO.N,c9*%
X276383750Y-123507500D03*
D10*
X279163750Y-123507500D03*
%TD*%
%TO.P,SW42,1,1*%
%TO.N,Net-(D42-A)*%
X202965000Y-87947500D03*
D11*
X205740000Y-87947500D03*
%TO.P,SW42,2,2*%
%TO.N,c7*%
X212090000Y-85407500D03*
D10*
X214870000Y-85407500D03*
%TD*%
%TO.P,SW53,1,1*%
%TO.N,Net-(D53-A)*%
X312502500Y-68897500D03*
D11*
X315277500Y-68897500D03*
%TO.P,SW53,2,2*%
%TO.N,c13*%
X321627500Y-66357500D03*
D10*
X324407500Y-66357500D03*
%TD*%
%TO.P,SW62,1,1*%
%TO.N,Net-(D62-A)*%
X124383750Y-126047500D03*
D11*
X127158750Y-126047500D03*
%TO.P,SW62,2,2*%
%TO.N,c3*%
X133508750Y-123507500D03*
D10*
X136288750Y-123507500D03*
%TD*%
%TO.P,SW29,1,1*%
%TO.N,Net-(D29-A)*%
X79140000Y-68897500D03*
D11*
X81915000Y-68897500D03*
%TO.P,SW29,2,2*%
%TO.N,c1*%
X88265000Y-66357500D03*
D10*
X91045000Y-66357500D03*
%TD*%
%TO.P,SW11,1,1*%
%TO.N,Net-(D11-A)*%
X293452500Y-26035000D03*
D11*
X296227500Y-26035000D03*
%TO.P,SW11,2,2*%
%TO.N,c11*%
X302577500Y-23495000D03*
D10*
X305357500Y-23495000D03*
%TD*%
%TO.P,SW21,1,1*%
%TO.N,Net-(D21-A)*%
X188677500Y-49847500D03*
D11*
X191452500Y-49847500D03*
%TO.P,SW21,2,2*%
%TO.N,c7*%
X197802500Y-47307500D03*
D10*
X200582500Y-47307500D03*
%TD*%
%TO.P,SW35,1,1*%
%TO.N,Net-(D35-A)*%
X141052500Y-68897500D03*
D11*
X143827500Y-68897500D03*
%TO.P,SW35,2,2*%
%TO.N,c4*%
X150177500Y-66357500D03*
D10*
X152957500Y-66357500D03*
%TD*%
D21*
%TO.P,U1,1,GPB0*%
%TO.N,c1*%
X60100000Y-74690000D03*
D13*
%TO.P,U1,2,GPB1*%
%TO.N,c2*%
X60100000Y-77230000D03*
%TO.P,U1,3,GPB2*%
%TO.N,c3*%
X60100000Y-79770000D03*
%TO.P,U1,4,GPB3*%
%TO.N,c4*%
X60100000Y-82310000D03*
%TO.P,U1,5,GPB4*%
%TO.N,c5*%
X60100000Y-84850000D03*
%TO.P,U1,6,GPB5*%
%TO.N,c6*%
X60100000Y-87390000D03*
%TO.P,U1,7,GPB6*%
%TO.N,c7*%
X60100000Y-89930000D03*
%TO.P,U1,8,GPB7*%
%TO.N,c8*%
X60100000Y-92470000D03*
%TO.P,U1,9,VDD*%
%TO.N,+3.3V*%
X60100000Y-95010000D03*
%TO.P,U1,10,VSS*%
%TO.N,GND*%
X60100000Y-97550000D03*
%TO.P,U1,11,NC*%
%TO.N,unconnected-(U1-NC-Pad11)*%
X60100000Y-100090000D03*
%TO.P,U1,12,SCK*%
%TO.N,scl*%
X60100000Y-102630000D03*
%TO.P,U1,13,SDA*%
%TO.N,sda*%
X60100000Y-105170000D03*
%TO.P,U1,14,NC*%
%TO.N,unconnected-(U1-NC-Pad14)*%
X60100000Y-107710000D03*
%TO.P,U1,15,A0*%
%TO.N,unconnected-(U1-A0-Pad15)*%
X67720000Y-107710000D03*
%TO.P,U1,16,A1*%
%TO.N,unconnected-(U1-A1-Pad16)*%
X67720000Y-105170000D03*
%TO.P,U1,17,A2*%
%TO.N,unconnected-(U1-A2-Pad17)*%
X67720000Y-102630000D03*
%TO.P,U1,18,~{RESET}*%
%TO.N,unconnected-(U1-~{RESET}-Pad18)*%
X67720000Y-100090000D03*
%TO.P,U1,19,INTB*%
%TO.N,unconnected-(U1-INTB-Pad19)*%
X67720000Y-97550000D03*
%TO.P,U1,20,INTA*%
%TO.N,unconnected-(U1-INTA-Pad20)*%
X67720000Y-95010000D03*
%TO.P,U1,21,GPA0*%
%TO.N,c9*%
X67720000Y-92470000D03*
%TO.P,U1,22,GPA1*%
%TO.N,c10*%
X67720000Y-89930000D03*
%TO.P,U1,23,GPA2*%
%TO.N,c11*%
X67720000Y-87390000D03*
%TO.P,U1,24,GPA3*%
%TO.N,c12*%
X67720000Y-84850000D03*
%TO.P,U1,25,GPA4*%
%TO.N,c13*%
X67720000Y-82310000D03*
%TO.P,U1,26,GPA5*%
%TO.N,c14*%
X67720000Y-79770000D03*
%TO.P,U1,27,GPA6*%
%TO.N,c15*%
X67720000Y-77230000D03*
%TO.P,U1,28,GPA7*%
%TO.N,unconnected-(U1-GPA7-Pad28)*%
X67720000Y-74690000D03*
%TD*%
D10*
%TO.P,SW24,1,1*%
%TO.N,Net-(D24-A)*%
X245827500Y-49847500D03*
D11*
X248602500Y-49847500D03*
%TO.P,SW24,2,2*%
%TO.N,c10*%
X254952500Y-47307500D03*
D10*
X257732500Y-47307500D03*
%TD*%
%TO.P,SW4,1,1*%
%TO.N,Net-(D4-A)*%
X150577500Y-26035000D03*
D11*
X153352500Y-26035000D03*
%TO.P,SW4,2,2*%
%TO.N,c4*%
X159702500Y-23495000D03*
D10*
X162482500Y-23495000D03*
%TD*%
%TO.P,SW16,1,1*%
%TO.N,Net-(D16-A)*%
X93427500Y-49847500D03*
D11*
X96202500Y-49847500D03*
%TO.P,SW16,2,2*%
%TO.N,c2*%
X102552500Y-47307500D03*
D10*
X105332500Y-47307500D03*
%TD*%
%TO.P,SW38,1,1*%
%TO.N,Net-(D38-A)*%
X164865000Y-87947500D03*
D11*
X167640000Y-87947500D03*
%TO.P,SW38,2,2*%
%TO.N,c5*%
X173990000Y-85407500D03*
D10*
X176770000Y-85407500D03*
%TD*%
%TO.P,SW51,1,1*%
%TO.N,Net-(D51-A)*%
X293452500Y-68897500D03*
D11*
X296227500Y-68897500D03*
%TO.P,SW51,2,2*%
%TO.N,c12*%
X302577500Y-66357500D03*
D10*
X305357500Y-66357500D03*
%TD*%
%TO.P,SW73,1,1*%
%TO.N,Net-(D73-A)*%
X250590000Y-106997500D03*
D11*
X253365000Y-106997500D03*
%TO.P,SW73,2,2*%
%TO.N,c9*%
X259715000Y-104457500D03*
D10*
X262495000Y-104457500D03*
%TD*%
%TO.P,SW69,1,1*%
%TO.N,Net-(D69-A)*%
X212490000Y-106997500D03*
D11*
X215265000Y-106997500D03*
%TO.P,SW69,2,2*%
%TO.N,c7*%
X221615000Y-104457500D03*
D10*
X224395000Y-104457500D03*
%TD*%
%TO.P,SW68,1,1*%
%TO.N,Net-(D68-A)*%
X360127500Y-49847500D03*
D11*
X362902500Y-49847500D03*
%TO.P,SW68,2,2*%
%TO.N,c15*%
X369252500Y-47307500D03*
D10*
X372032500Y-47307500D03*
%TD*%
%TO.P,SW19,1,1*%
%TO.N,Net-(D19-A)*%
X150577500Y-49847500D03*
D11*
X153352500Y-49847500D03*
%TO.P,SW19,2,2*%
%TO.N,c5*%
X159702500Y-47307500D03*
D10*
X162482500Y-47307500D03*
%TD*%
%TO.P,SW46,1,1*%
%TO.N,Net-(D46-A)*%
X241065000Y-87947500D03*
D11*
X243840000Y-87947500D03*
%TO.P,SW46,2,2*%
%TO.N,c9*%
X250190000Y-85407500D03*
D10*
X252970000Y-85407500D03*
%TD*%
%TO.P,SW3,1,1*%
%TO.N,Net-(D3-A)*%
X131527500Y-26035000D03*
D11*
X134302500Y-26035000D03*
%TO.P,SW3,2,2*%
%TO.N,c3*%
X140652500Y-23495000D03*
D10*
X143432500Y-23495000D03*
%TD*%
%TO.P,SW15,1,1*%
%TO.N,Net-(D15-A)*%
X74377500Y-49847500D03*
D11*
X77152500Y-49847500D03*
%TO.P,SW15,2,2*%
%TO.N,c1*%
X83502500Y-47307500D03*
D10*
X86282500Y-47307500D03*
%TD*%
%TO.P,SW47,1,1*%
%TO.N,Net-(D47-A)*%
X255352500Y-68897500D03*
D11*
X258127500Y-68897500D03*
%TO.P,SW47,2,2*%
%TO.N,c10*%
X264477500Y-66357500D03*
D10*
X267257500Y-66357500D03*
%TD*%
%TO.P,SW70,1,1*%
%TO.N,Net-(D70-A)*%
X360127500Y-68897500D03*
D11*
X362902500Y-68897500D03*
%TO.P,SW70,2,2*%
%TO.N,c15*%
X369252500Y-66357500D03*
D10*
X372032500Y-66357500D03*
%TD*%
D16*
%TO.P,J1,1,Pin_1*%
%TO.N,GND*%
X45650000Y-74470000D03*
D22*
%TO.P,J1,2,Pin_2*%
%TO.N,+3.3V*%
X48190000Y-74470000D03*
%TO.P,J1,3,Pin_3*%
%TO.N,scl*%
X50730000Y-74470000D03*
%TO.P,J1,4,Pin_4*%
%TO.N,sda*%
X53270000Y-74470000D03*
%TD*%
D10*
%TO.P,SW34,1,1*%
%TO.N,Net-(D34-A)*%
X126765000Y-87947500D03*
D11*
X129540000Y-87947500D03*
%TO.P,SW34,2,2*%
%TO.N,c3*%
X135890000Y-85407500D03*
D10*
X138670000Y-85407500D03*
%TD*%
%TO.P,SW44,1,1*%
%TO.N,Net-(D44-A)*%
X222015000Y-87947500D03*
D11*
X224790000Y-87947500D03*
%TO.P,SW44,2,2*%
%TO.N,c8*%
X231140000Y-85407500D03*
D10*
X233920000Y-85407500D03*
%TD*%
%TO.P,SW37,1,1*%
%TO.N,Net-(D37-A)*%
X160102500Y-68897500D03*
D11*
X162877500Y-68897500D03*
%TO.P,SW37,2,2*%
%TO.N,c5*%
X169227500Y-66357500D03*
D10*
X172007500Y-66357500D03*
%TD*%
%TO.P,SW48,1,1*%
%TO.N,Net-(D48-A)*%
X260115000Y-87947500D03*
D11*
X262890000Y-87947500D03*
%TO.P,SW48,2,2*%
%TO.N,c10*%
X269240000Y-85407500D03*
D10*
X272020000Y-85407500D03*
%TD*%
%TO.P,SW6,1,1*%
%TO.N,Net-(D6-A)*%
X193440000Y-26035000D03*
D11*
X196215000Y-26035000D03*
%TO.P,SW6,2,2*%
%TO.N,c6*%
X202565000Y-23495000D03*
D10*
X205345000Y-23495000D03*
%TD*%
%TO.P,SW54,1,1*%
%TO.N,Net-(D54-A)*%
X329171250Y-87947500D03*
D11*
X331946250Y-87947500D03*
%TO.P,SW54,2,2*%
%TO.N,c13*%
X338296250Y-85407500D03*
D10*
X341076250Y-85407500D03*
%TD*%
%TO.P,SW81,1,1*%
%TO.N,Net-(D81-A)*%
X341077500Y-106997500D03*
D11*
X343852500Y-106997500D03*
%TO.P,SW81,2,2*%
%TO.N,c13*%
X350202500Y-104457500D03*
D10*
X352982500Y-104457500D03*
%TD*%
%TO.P,SW13,1,1*%
%TO.N,Net-(D13-A)*%
X331552500Y-26035000D03*
D11*
X334327500Y-26035000D03*
%TO.P,SW13,2,2*%
%TO.N,c13*%
X340677500Y-23495000D03*
D10*
X343457500Y-23495000D03*
%TD*%
%TO.P,SW1,1,1*%
%TO.N,Net-(D1-A)*%
X74377500Y-26035000D03*
D11*
X77152500Y-26035000D03*
%TO.P,SW1,2,2*%
%TO.N,c1*%
X83502500Y-23495000D03*
D10*
X86282500Y-23495000D03*
%TD*%
%TO.P,SW20,1,1*%
%TO.N,Net-(D20-A)*%
X169627500Y-49847500D03*
D11*
X172402500Y-49847500D03*
%TO.P,SW20,2,2*%
%TO.N,c6*%
X178752500Y-47307500D03*
D10*
X181532500Y-47307500D03*
%TD*%
%TO.P,SW12,1,1*%
%TO.N,Net-(D12-A)*%
X312502500Y-26035000D03*
D11*
X315277500Y-26035000D03*
%TO.P,SW12,2,2*%
%TO.N,c12*%
X321627500Y-23495000D03*
D10*
X324407500Y-23495000D03*
%TD*%
D23*
%TO.N,r1*%
X62772615Y-33832615D03*
X62240000Y-29610000D03*
%TO.N,GND*%
X363760000Y-63700000D03*
X366820000Y-58600000D03*
X366880000Y-115750000D03*
X371120000Y-63210000D03*
X377330000Y-38930000D03*
X342110000Y-36550000D03*
X344220000Y-36050000D03*
X368170000Y-80620000D03*
X378800000Y-42650000D03*
X366829265Y-93670735D03*
X366780000Y-96720000D03*
X369670000Y-63210000D03*
X83380000Y-140900000D03*
X366540000Y-78970000D03*
X83760000Y-137300000D03*
X367100000Y-112520000D03*
%TO.N,Net-(D15-A)*%
X82500000Y-43830000D03*
%TO.N,r2*%
X79540000Y-41870000D03*
X82600000Y-41870000D03*
%TO.N,r3*%
X86070000Y-58030000D03*
X97310000Y-61090000D03*
X323220000Y-62050000D03*
X327830000Y-63940000D03*
X355390000Y-63610000D03*
X355670000Y-61510000D03*
X71330000Y-53320000D03*
X364900000Y-64030000D03*
X364850000Y-61710000D03*
X95190000Y-58220000D03*
%TO.N,Net-(D29-A)*%
X83100000Y-63750000D03*
X86840000Y-63870000D03*
%TO.N,Net-(D30-A)*%
X84970000Y-82570000D03*
X88260000Y-84610000D03*
%TO.N,r4*%
X101490000Y-80040000D03*
X362840000Y-80350000D03*
X362950000Y-82790000D03*
X68050000Y-53810000D03*
X85910000Y-68500000D03*
X102190000Y-73230000D03*
%TO.N,r5*%
X332460000Y-99060000D03*
X85340000Y-80740000D03*
X353780000Y-101780000D03*
X320880000Y-98040000D03*
X365580000Y-99250000D03*
X354920000Y-99000000D03*
X89870000Y-100200000D03*
X83520000Y-93810000D03*
X69130000Y-52260000D03*
X365470000Y-101700000D03*
X349360000Y-101610000D03*
X344250000Y-99570000D03*
%TO.N,Net-(D57-A)*%
X111660000Y-102400000D03*
X110180000Y-99280000D03*
%TO.N,r6*%
X367940000Y-120540000D03*
X71351472Y-77830000D03*
X72200000Y-60060000D03*
X73160000Y-51597500D03*
X110210000Y-116620000D03*
X101360000Y-116390000D03*
X75940000Y-55920000D03*
X75310000Y-67890000D03*
X368470000Y-117930000D03*
X74520000Y-78780000D03*
%TO.N,Net-(D58-A)*%
X94070000Y-121350000D03*
X92710000Y-119190000D03*
%TO.N,c10*%
X148700000Y-58250000D03*
X157510000Y-58820000D03*
X90940000Y-53560000D03*
X172733204Y-82227500D03*
X264200000Y-82400000D03*
X111060000Y-58340000D03*
X129880000Y-58340000D03*
X138100000Y-58660000D03*
X115420000Y-58340000D03*
X86300000Y-54380000D03*
%TO.N,c11*%
X260210000Y-61950000D03*
X88556251Y-96446528D03*
X260660000Y-55660000D03*
X266730000Y-55660000D03*
%TO.N,c12*%
X70300000Y-125270000D03*
%TO.N,c13*%
X323180000Y-60660000D03*
%TO.N,c14*%
X365410000Y-78840000D03*
X87120000Y-79430000D03*
%TO.N,c15*%
X353900000Y-79020000D03*
X81860000Y-76620000D03*
%TO.N,Net-(e2-DOUT)*%
X128010000Y-34450000D03*
X118940000Y-34410000D03*
%TO.N,+3.3V*%
X42620000Y-82680000D03*
X47140000Y-80860000D03*
%TO.N,reSwitch*%
X67960000Y-27340000D03*
X70920000Y-22540000D03*
%TO.N,a*%
X370880000Y-133410000D03*
X382330000Y-44340000D03*
%TO.N,b*%
X368530000Y-139093750D03*
X42020000Y-33310000D03*
%TO.N,+5V*%
X81120000Y-130338500D03*
X90410000Y-56150000D03*
X93790000Y-30340000D03*
X99180000Y-113210000D03*
X91560000Y-121320000D03*
X95060000Y-74880000D03*
X95649143Y-84119722D03*
X53100000Y-130860000D03*
X96490000Y-91980000D03*
X97650000Y-101490000D03*
X90500000Y-73560000D03*
X92050000Y-39150000D03*
%TD*%
D24*
%TO.N,r1*%
X62772615Y-33832615D02*
X62772615Y-30142615D01*
X62772615Y-30142615D02*
X62240000Y-29610000D01*
%TO.N,GND*%
X83380000Y-137680000D02*
X83760000Y-137300000D01*
X83380000Y-140900000D02*
X83380000Y-137680000D01*
X377330000Y-41180000D02*
X378800000Y-42650000D01*
X366600000Y-78910000D02*
X366540000Y-78970000D01*
X367100000Y-115530000D02*
X366880000Y-115750000D01*
X377330000Y-38930000D02*
X377330000Y-41180000D01*
X344220000Y-36050000D02*
X342610000Y-36050000D01*
X342610000Y-36050000D02*
X342110000Y-36550000D01*
X363760000Y-63700000D02*
X363760000Y-61660000D01*
X367290000Y-79740000D02*
X367290000Y-78910000D01*
X368170000Y-80620000D02*
X367290000Y-79740000D01*
X366829265Y-96670735D02*
X366780000Y-96720000D01*
X366829265Y-93670735D02*
X366829265Y-96670735D01*
X371120000Y-63210000D02*
X369670000Y-63210000D01*
X363760000Y-61660000D02*
X366820000Y-58600000D01*
X367100000Y-112520000D02*
X367100000Y-115530000D01*
X367290000Y-78910000D02*
X366600000Y-78910000D01*
%TO.N,Net-(D15-A)*%
X82500000Y-43830000D02*
X82390000Y-43940000D01*
X82390000Y-43940000D02*
X82390000Y-44610000D01*
X82390000Y-44610000D02*
X77152500Y-49847500D01*
%TO.N,r2*%
X82430000Y-42040000D02*
X82600000Y-41870000D01*
X79710000Y-42040000D02*
X82430000Y-42040000D01*
X79540000Y-41870000D02*
X79710000Y-42040000D01*
%TO.N,r3*%
X76780000Y-58770000D02*
X85330000Y-58770000D01*
X95190000Y-58220000D02*
X97310000Y-60340000D01*
X325110000Y-63940000D02*
X327830000Y-63940000D01*
X355670000Y-63330000D02*
X355670000Y-61510000D01*
X97310000Y-60340000D02*
X97310000Y-61090000D01*
X355390000Y-63610000D02*
X355670000Y-63330000D01*
X71330000Y-53320000D02*
X76780000Y-58770000D01*
X364850000Y-61710000D02*
X364850000Y-63980000D01*
X323220000Y-62050000D02*
X325110000Y-63940000D01*
X327830000Y-63940000D02*
X327870000Y-63980000D01*
X85330000Y-58770000D02*
X86070000Y-58030000D01*
X364850000Y-63980000D02*
X364900000Y-64030000D01*
%TO.N,Net-(D29-A)*%
X86790000Y-63920000D02*
X86840000Y-63870000D01*
X83100000Y-63750000D02*
X83270000Y-63920000D01*
X83270000Y-63920000D02*
X86790000Y-63920000D01*
%TO.N,Net-(D30-A)*%
X84970000Y-82570000D02*
X85140000Y-82400000D01*
X86050000Y-82400000D02*
X88260000Y-84610000D01*
X85140000Y-82400000D02*
X86050000Y-82400000D01*
%TO.N,r4*%
X102190000Y-73230000D02*
X102190000Y-79340000D01*
X362840000Y-80350000D02*
X362780000Y-80410000D01*
X85252536Y-68500000D02*
X85910000Y-68500000D01*
X362780000Y-82620000D02*
X362950000Y-82790000D01*
X68050000Y-53810000D02*
X70562536Y-53810000D01*
X102190000Y-79340000D02*
X101490000Y-80040000D01*
X70562536Y-53810000D02*
X85252536Y-68500000D01*
X362780000Y-80410000D02*
X362780000Y-82620000D01*
%TO.N,r5*%
X365580000Y-101590000D02*
X365470000Y-101700000D01*
X353780000Y-100140000D02*
X354920000Y-99000000D01*
X83520000Y-93850000D02*
X89870000Y-100200000D01*
X322552400Y-96367600D02*
X329767600Y-96367600D01*
X85280000Y-78829000D02*
X87368943Y-78829000D01*
X69130000Y-52260000D02*
X68750057Y-52260000D01*
X86659943Y-80740000D02*
X85340000Y-80740000D01*
X348450000Y-102520000D02*
X349360000Y-101610000D01*
X83520000Y-93810000D02*
X83520000Y-93850000D01*
X353780000Y-101780000D02*
X353780000Y-100140000D01*
X320880000Y-98040000D02*
X322552400Y-96367600D01*
X67449000Y-53561057D02*
X67449000Y-60998000D01*
X329767600Y-96367600D02*
X332460000Y-99060000D01*
X67449000Y-60998000D02*
X85280000Y-78829000D01*
X344250000Y-99570000D02*
X345160000Y-100480000D01*
X345160000Y-100480000D02*
X345160000Y-102520000D01*
X87368943Y-78829000D02*
X87721000Y-79181057D01*
X365580000Y-99250000D02*
X365580000Y-101590000D01*
X345160000Y-102520000D02*
X348450000Y-102520000D01*
X87721000Y-79678943D02*
X86659943Y-80740000D01*
X87721000Y-79181057D02*
X87721000Y-79678943D01*
X68750057Y-52260000D02*
X67449000Y-53561057D01*
%TO.N,Net-(D57-A)*%
X110180000Y-99280000D02*
X111540000Y-100640000D01*
X111540000Y-102290000D02*
X111650000Y-102400000D01*
X111540000Y-100640000D02*
X111540000Y-102290000D01*
X111650000Y-102400000D02*
X111660000Y-102400000D01*
%TO.N,r6*%
X72200000Y-60060000D02*
X75310000Y-63170000D01*
X109007600Y-115417600D02*
X110210000Y-116620000D01*
X73160000Y-53140000D02*
X75940000Y-55920000D01*
X75310000Y-63170000D02*
X75310000Y-67890000D01*
X368470000Y-117930000D02*
X367940000Y-118460000D01*
X72301472Y-78780000D02*
X74520000Y-78780000D01*
X367940000Y-118460000D02*
X367940000Y-120540000D01*
X71351472Y-77830000D02*
X72301472Y-78780000D01*
X73160000Y-51597500D02*
X73160000Y-53140000D01*
X101360000Y-116390000D02*
X102332400Y-115417600D01*
X102332400Y-115417600D02*
X109007600Y-115417600D01*
%TO.N,Net-(D58-A)*%
X92990000Y-121350000D02*
X94070000Y-121350000D01*
X92710000Y-121070000D02*
X92990000Y-121350000D01*
X92710000Y-119190000D02*
X92710000Y-121070000D01*
%TO.N,c1*%
X95770000Y-104820000D02*
X94240076Y-104820000D01*
X85920000Y-113140076D02*
X85920000Y-123543750D01*
X83502500Y-47307500D02*
X88265000Y-52070000D01*
X88530000Y-83450000D02*
X91000000Y-85920000D01*
X88265000Y-52070000D02*
X88265000Y-66357500D01*
X91000000Y-100050000D02*
X95770000Y-104820000D01*
X94240076Y-104820000D02*
X85920000Y-113140076D01*
X65399750Y-69390250D02*
X60100000Y-74690000D01*
X88265000Y-66357500D02*
X88397500Y-66357500D01*
X83502500Y-29359816D02*
X65399750Y-47462566D01*
X85920000Y-123543750D02*
X85883750Y-123507500D01*
X91000000Y-85920000D02*
X91000000Y-100050000D01*
X83502500Y-23495000D02*
X83502500Y-29359816D01*
X88530000Y-66490000D02*
X88530000Y-83450000D01*
X83502500Y-23495000D02*
X83502500Y-47307500D01*
X88397500Y-66357500D02*
X88530000Y-66490000D01*
X65399750Y-47462566D02*
X65399750Y-69390250D01*
%TO.N,c2*%
X112077500Y-80197500D02*
X126470000Y-94590000D01*
X125547684Y-104490000D02*
X109280000Y-120757684D01*
X63187750Y-47450406D02*
X63187750Y-69716090D01*
X120817684Y-23495000D02*
X102552500Y-41760184D01*
X78611500Y-27601184D02*
X78611500Y-33294372D01*
X126470000Y-104490000D02*
X125547684Y-104490000D01*
X102552500Y-41760184D02*
X102552500Y-47307500D01*
X119501500Y-21394000D02*
X82632237Y-21394000D01*
X79988684Y-26224000D02*
X78611500Y-27601184D01*
X109280000Y-120757684D02*
X109280000Y-123091250D01*
X63187750Y-69716090D02*
X58999000Y-73904840D01*
X121602500Y-23495000D02*
X119501500Y-21394000D01*
X112077500Y-66357500D02*
X112077500Y-80197500D01*
X112077500Y-56832500D02*
X112077500Y-66357500D01*
X64751872Y-47154000D02*
X63484156Y-47154000D01*
X78611500Y-33294372D02*
X64751872Y-47154000D01*
X82632237Y-21394000D02*
X79988684Y-24037553D01*
X126470000Y-94590000D02*
X126470000Y-104490000D01*
X58999000Y-76129000D02*
X60100000Y-77230000D01*
X109280000Y-123091250D02*
X109696250Y-123507500D01*
X102552500Y-47307500D02*
X112077500Y-56832500D01*
X79988684Y-24037553D02*
X79988684Y-26224000D01*
X58999000Y-73904840D02*
X58999000Y-76129000D01*
X63484156Y-47154000D02*
X63187750Y-47450406D01*
X121602500Y-23495000D02*
X120817684Y-23495000D01*
%TO.N,c3*%
X140652500Y-23495000D02*
X138150500Y-20993000D01*
X78159612Y-33128272D02*
X66668884Y-44619000D01*
X138150500Y-20993000D02*
X76108340Y-20993000D01*
X133508750Y-123507500D02*
X145510000Y-111506250D01*
X76108340Y-20993000D02*
X72301500Y-24799840D01*
X131270000Y-80760000D02*
X131270000Y-56940000D01*
X121490000Y-41872684D02*
X139752684Y-23610000D01*
X66668884Y-44619000D02*
X63837700Y-44619000D01*
X139752684Y-23610000D02*
X140537500Y-23610000D01*
X145510000Y-95000000D02*
X131270000Y-80760000D01*
X72301500Y-27270160D02*
X78159612Y-33128272D01*
X58598000Y-73738740D02*
X58598000Y-78268000D01*
X63837700Y-44619000D02*
X62786750Y-45669950D01*
X121490000Y-47160000D02*
X121490000Y-41872684D01*
X140537500Y-23610000D02*
X140652500Y-23495000D01*
X58598000Y-78268000D02*
X60100000Y-79770000D01*
X72301500Y-24799840D02*
X72301500Y-27270160D01*
X62786750Y-45669950D02*
X62786750Y-69549990D01*
X62786750Y-69549990D02*
X58598000Y-73738740D01*
X145510000Y-111506250D02*
X145510000Y-95000000D01*
X131270000Y-56940000D02*
X121490000Y-47160000D01*
%TO.N,c4*%
X48202750Y-63291731D02*
X57845586Y-72934567D01*
X48202750Y-42473950D02*
X48202750Y-63291731D01*
X141902316Y-47160000D02*
X139740000Y-47160000D01*
X70996800Y-20592000D02*
X64749800Y-26839000D01*
X204946250Y-123306250D02*
X204946250Y-123507500D01*
X156799500Y-20592000D02*
X70996800Y-20592000D01*
X159702500Y-23495000D02*
X156799500Y-20592000D01*
X57845586Y-72934567D02*
X57845586Y-80055586D01*
X150110000Y-79550000D02*
X155170000Y-84610000D01*
X155170000Y-84610000D02*
X155170000Y-94970000D01*
X183430000Y-123230000D02*
X204870000Y-123230000D01*
X139740000Y-47160000D02*
X150110000Y-57530000D01*
X204870000Y-123230000D02*
X204946250Y-123306250D01*
X159702500Y-23495000D02*
X159702500Y-29359816D01*
X57845586Y-80055586D02*
X60100000Y-82310000D01*
X155170000Y-94970000D02*
X183430000Y-123230000D01*
X150110000Y-57530000D02*
X150110000Y-79550000D01*
X63837700Y-26839000D02*
X48202750Y-42473950D01*
X64749800Y-26839000D02*
X63837700Y-26839000D01*
X159702500Y-29359816D02*
X141902316Y-47160000D01*
%TO.N,c5*%
X47801750Y-40334950D02*
X47801750Y-63457831D01*
X68857800Y-20191000D02*
X64749800Y-24299000D01*
X168360000Y-66470000D02*
X168533826Y-66470000D01*
X160592316Y-47520000D02*
X159760000Y-47520000D01*
X175448500Y-20191000D02*
X68857800Y-20191000D01*
X63837700Y-24299000D02*
X47801750Y-40334950D01*
X64749800Y-24299000D02*
X63837700Y-24299000D01*
X178752500Y-23495000D02*
X175448500Y-20191000D01*
X47801750Y-63457831D02*
X57444586Y-73100667D01*
X57444586Y-82194586D02*
X60100000Y-84850000D01*
X178752500Y-23495000D02*
X178752500Y-29359816D01*
X159760000Y-57870000D02*
X168360000Y-66470000D01*
X57444586Y-73100667D02*
X57444586Y-82194586D01*
X168533826Y-66470000D02*
X173890000Y-71826174D01*
X173890000Y-71826174D02*
X173890000Y-85670000D01*
X173890000Y-85670000D02*
X173890000Y-95910000D01*
X178752500Y-29359816D02*
X160592316Y-47520000D01*
X173890000Y-95910000D02*
X183080000Y-105100000D01*
X159760000Y-47520000D02*
X159760000Y-57870000D01*
%TO.N,c6*%
X192970000Y-70950000D02*
X192970000Y-86490000D01*
X202565000Y-23495000D02*
X202565000Y-29359816D01*
X201920000Y-95093674D02*
X201920000Y-105100000D01*
X198860000Y-19790000D02*
X66715872Y-19790000D01*
X201920000Y-105100000D02*
X202562500Y-104457500D01*
X49341000Y-73993240D02*
X49341000Y-76631000D01*
X193316326Y-86490000D02*
X201920000Y-95093674D01*
X66715872Y-19790000D02*
X64751872Y-21754000D01*
X49341000Y-76631000D02*
X60100000Y-87390000D01*
X184524816Y-47400000D02*
X178840000Y-47400000D01*
X202565000Y-29359816D02*
X184524816Y-47400000D01*
X64751872Y-21754000D02*
X63484156Y-21754000D01*
X192970000Y-86490000D02*
X193316326Y-86490000D01*
X43189000Y-27167700D02*
X43189000Y-67841240D01*
X63484156Y-21754000D02*
X60939156Y-24299000D01*
X202562500Y-104457500D02*
X202565000Y-104457500D01*
X178840000Y-47400000D02*
X178840000Y-56820000D01*
X43189000Y-67841240D02*
X49341000Y-73993240D01*
X178840000Y-56820000D02*
X192970000Y-70950000D01*
X202565000Y-23495000D02*
X198860000Y-19790000D01*
X46057700Y-24299000D02*
X43189000Y-27167700D01*
X60939156Y-24299000D02*
X46057700Y-24299000D01*
%TO.N,c7*%
X197560000Y-47040000D02*
X197560000Y-46765184D01*
X60100000Y-89930000D02*
X47039000Y-76869000D01*
X47323344Y-21754000D02*
X49238938Y-23669594D01*
X206280000Y-65300000D02*
X206280000Y-55760000D01*
X63837700Y-19219000D02*
X217339000Y-19219000D01*
X42788000Y-68007340D02*
X42788000Y-25021628D01*
X47039000Y-76869000D02*
X47039000Y-72258340D01*
X59387106Y-23669594D02*
X63837700Y-19219000D01*
X197560000Y-46765184D02*
X220945184Y-23380000D01*
X220945184Y-23380000D02*
X221000000Y-23380000D01*
X49238938Y-23669594D02*
X59387106Y-23669594D01*
X206280000Y-55760000D02*
X197560000Y-47040000D01*
X42788000Y-25021628D02*
X46055628Y-21754000D01*
X212280000Y-95122500D02*
X212280000Y-84610000D01*
X221615000Y-104457500D02*
X212280000Y-95122500D01*
X217339000Y-19219000D02*
X221615000Y-23495000D01*
X46055628Y-21754000D02*
X47323344Y-21754000D01*
X212280000Y-71300000D02*
X206280000Y-65300000D01*
X47039000Y-72258340D02*
X42788000Y-68007340D01*
X212280000Y-84610000D02*
X212280000Y-71300000D01*
%TO.N,c8*%
X226155160Y-106008500D02*
X223035263Y-106008500D01*
X227290000Y-68470000D02*
X225650000Y-66830000D01*
X68821000Y-94215950D02*
X68176050Y-93571000D01*
X117022570Y-122272340D02*
X113686410Y-125608500D01*
X68176050Y-93571000D02*
X61201000Y-93571000D01*
X61201000Y-93571000D02*
X60100000Y-92470000D01*
X132638487Y-125608500D02*
X129302327Y-122272340D01*
X172790000Y-124610000D02*
X138364750Y-124610000D01*
X221678184Y-58097976D02*
X211867660Y-67908500D01*
X239880184Y-23495000D02*
X240665000Y-23495000D01*
X226471000Y-103222340D02*
X226471000Y-105692660D01*
X68821000Y-109416013D02*
X68821000Y-94215950D01*
X183263900Y-123631000D02*
X181042900Y-121410000D01*
X204075987Y-125608500D02*
X202098487Y-123631000D01*
X93210070Y-122272340D02*
X89873910Y-125608500D01*
X202098487Y-123631000D02*
X183263900Y-123631000D01*
X89873910Y-125608500D02*
X85013487Y-125608500D01*
X216230000Y-47170000D02*
X216230000Y-47145184D01*
X240665000Y-23495000D02*
X230768840Y-23495000D01*
X129302327Y-122272340D02*
X117022570Y-122272340D01*
X231300000Y-85320000D02*
X227290000Y-81310000D01*
X216946000Y-72986840D02*
X216946000Y-93697340D01*
X216230000Y-47145184D02*
X239880184Y-23495000D01*
X216946000Y-93697340D02*
X226471000Y-103222340D01*
X226914840Y-27349000D02*
X221678184Y-27349000D01*
X226471000Y-105692660D02*
X226155160Y-106008500D01*
X113686410Y-125608500D02*
X108825987Y-125608500D01*
X138048910Y-125058500D02*
X134929013Y-125058500D01*
X222485263Y-106558500D02*
X222485263Y-112059647D01*
X221678184Y-27349000D02*
X221678184Y-58097976D01*
X175990000Y-121410000D02*
X172790000Y-124610000D01*
X227290000Y-81310000D02*
X227290000Y-68470000D01*
X208936410Y-125608500D02*
X204075987Y-125608500D01*
X225650000Y-66830000D02*
X225650000Y-56590000D01*
X108825987Y-125608500D02*
X105489827Y-122272340D01*
X85013487Y-125608500D02*
X68821000Y-109416013D01*
X231300000Y-95092500D02*
X231300000Y-85320000D01*
X105489827Y-122272340D02*
X93210070Y-122272340D01*
X211867660Y-67908500D02*
X216946000Y-72986840D01*
X225650000Y-56590000D02*
X216230000Y-47170000D01*
X223035263Y-106008500D02*
X222485263Y-106558500D01*
X138364750Y-124610000D02*
X138364750Y-124742660D01*
X138364750Y-124742660D02*
X138048910Y-125058500D01*
X134929013Y-125058500D02*
X134379013Y-125608500D01*
X222485263Y-112059647D02*
X208936410Y-125608500D01*
X230768840Y-23495000D02*
X226914840Y-27349000D01*
X240665000Y-104457500D02*
X231300000Y-95092500D01*
X134379013Y-125608500D02*
X132638487Y-125608500D01*
X181042900Y-121410000D02*
X175990000Y-121410000D01*
%TO.N,c9*%
X259910000Y-104870000D02*
X276040000Y-121000000D01*
X240476000Y-55017426D02*
X232560263Y-62933163D01*
X245190000Y-56580000D02*
X245190000Y-66830000D01*
X259910000Y-95800000D02*
X259910000Y-104870000D01*
X66619000Y-91369000D02*
X67720000Y-92470000D01*
X232560263Y-62933163D02*
X232560263Y-80736603D01*
X276040000Y-121000000D02*
X276040000Y-123240000D01*
X236292477Y-103056240D02*
X229674520Y-103056240D01*
X58999000Y-92013950D02*
X59643950Y-91369000D01*
X245521000Y-103222340D02*
X245521000Y-105692660D01*
X235890000Y-47280000D02*
X245190000Y-56580000D01*
X66619000Y-108166050D02*
X66619000Y-99633950D01*
X132472387Y-126009500D02*
X129136227Y-122673340D01*
X245521000Y-105692660D02*
X244655160Y-106558500D01*
X229674520Y-103056240D02*
X226321260Y-106409500D01*
X235996000Y-93697340D02*
X245521000Y-103222340D01*
X105323727Y-122673340D02*
X93376170Y-122673340D01*
X240476000Y-27601184D02*
X240476000Y-55017426D01*
X197834076Y-129813500D02*
X163386500Y-129813500D01*
X239794737Y-106558500D02*
X236292477Y-103056240D01*
X58999000Y-92926050D02*
X58999000Y-92013950D01*
X259715000Y-23495000D02*
X258930184Y-23495000D01*
X222886263Y-112225747D02*
X209102510Y-126009500D01*
X223201363Y-106409500D02*
X222886263Y-106724600D01*
X259715000Y-23495000D02*
X247566826Y-23495000D01*
X108659887Y-126009500D02*
X105323727Y-122673340D01*
X158829500Y-126009500D02*
X132472387Y-126009500D01*
X117188670Y-122673340D02*
X113852510Y-126009500D01*
X59643950Y-93571000D02*
X58999000Y-92926050D01*
X244655160Y-106558500D02*
X239794737Y-106558500D01*
X226321260Y-106409500D02*
X223201363Y-106409500D01*
X245190000Y-66830000D02*
X249780000Y-71420000D01*
X247566826Y-23495000D02*
X243712826Y-27349000D01*
X249780000Y-85670000D02*
X259910000Y-95800000D01*
X209102510Y-126009500D02*
X201638076Y-126009500D01*
X201638076Y-126009500D02*
X197834076Y-129813500D01*
X84462450Y-126009500D02*
X66619000Y-108166050D01*
X232560263Y-80736603D02*
X235996000Y-84172340D01*
X163386500Y-129813500D02*
X163010000Y-130190000D01*
X129136227Y-122673340D02*
X117188670Y-122673340D01*
X113852510Y-126009500D02*
X108659887Y-126009500D01*
X235996000Y-84172340D02*
X235996000Y-93697340D01*
X59643950Y-91369000D02*
X66619000Y-91369000D01*
X90040010Y-126009500D02*
X84462450Y-126009500D01*
X222886263Y-106724600D02*
X222886263Y-112225747D01*
X240728184Y-27349000D02*
X240476000Y-27601184D01*
X163010000Y-130190000D02*
X158829500Y-126009500D01*
X93376170Y-122673340D02*
X90040010Y-126009500D01*
X60556050Y-93571000D02*
X59643950Y-93571000D01*
X249780000Y-71420000D02*
X249780000Y-85670000D01*
X66619000Y-99633950D02*
X60556050Y-93571000D01*
X243712826Y-27349000D02*
X240728184Y-27349000D01*
X258930184Y-23495000D02*
X235890000Y-46535184D01*
X235890000Y-46535184D02*
X235890000Y-47280000D01*
%TO.N,c10*%
X266210000Y-82200000D02*
X265210000Y-81200000D01*
X87864000Y-52236100D02*
X87864000Y-52816000D01*
X138100000Y-58660000D02*
X148290000Y-58660000D01*
X300196250Y-123507500D02*
X297157500Y-123507500D01*
X87864000Y-58136057D02*
X87864000Y-52236100D01*
X173070000Y-79410000D02*
X173070000Y-81890704D01*
X87864000Y-52816000D02*
X86300000Y-54380000D01*
X265210000Y-81200000D02*
X265210000Y-66360000D01*
X173070000Y-81890704D02*
X172733204Y-82227500D01*
X88129000Y-81969000D02*
X88129000Y-69628943D01*
X67720000Y-89930000D02*
X75681000Y-81969000D01*
X278400000Y-94390000D02*
X269210000Y-85200000D01*
X148290000Y-58660000D02*
X148700000Y-58250000D01*
X88129000Y-69628943D02*
X82499000Y-63998943D01*
X259067684Y-47170000D02*
X282617684Y-23620000D01*
X82499000Y-63501057D02*
X87864000Y-58136057D01*
X173070000Y-74473826D02*
X173070000Y-79410000D01*
X266010000Y-82400000D02*
X266210000Y-82200000D01*
X264200000Y-82400000D02*
X266010000Y-82400000D01*
X157510000Y-58913826D02*
X173070000Y-74473826D01*
X282617684Y-23620000D02*
X282640000Y-23620000D01*
X265210000Y-66360000D02*
X265210000Y-58240000D01*
X297157500Y-123507500D02*
X278400000Y-104750000D01*
X75681000Y-81969000D02*
X88129000Y-81969000D01*
X254140000Y-47170000D02*
X259067684Y-47170000D01*
X94378600Y-56998600D02*
X109718600Y-56998600D01*
X115420000Y-58340000D02*
X129880000Y-58340000D01*
X109718600Y-56998600D02*
X111060000Y-58340000D01*
X90940000Y-53560000D02*
X94378600Y-56998600D01*
X82499000Y-63998943D02*
X82499000Y-63501057D01*
X269210000Y-85200000D02*
X266210000Y-82200000D01*
X265210000Y-58240000D02*
X254140000Y-47170000D01*
X278400000Y-104750000D02*
X278400000Y-94390000D01*
X157510000Y-58820000D02*
X157510000Y-58913826D01*
%TO.N,c11*%
X302577500Y-23495000D02*
X301792684Y-23495000D01*
X87251452Y-96446528D02*
X88556251Y-96446528D01*
X67720000Y-87390000D02*
X66619000Y-88491000D01*
X266730000Y-55660000D02*
X261630000Y-50560000D01*
X278587684Y-46700000D02*
X274280000Y-46700000D01*
X262637500Y-47307500D02*
X274002500Y-47307500D01*
X283700000Y-66830000D02*
X287820000Y-70950000D01*
X283700000Y-56120000D02*
X283700000Y-66830000D01*
X297830000Y-95560000D02*
X297830000Y-104630000D01*
X261630000Y-50560000D02*
X261630000Y-47660000D01*
X67263950Y-91031000D02*
X81835924Y-91031000D01*
X301792684Y-23495000D02*
X278587684Y-46700000D01*
X81835924Y-91031000D02*
X87251452Y-96446528D01*
X260210000Y-56110000D02*
X260660000Y-55660000D01*
X287820000Y-70950000D02*
X287820000Y-85550000D01*
X274280000Y-46700000D02*
X283700000Y-56120000D01*
X262310000Y-46980000D02*
X262637500Y-47307500D01*
X287820000Y-85550000D02*
X297830000Y-95560000D01*
X261630000Y-47660000D02*
X262310000Y-46980000D01*
X66619000Y-88491000D02*
X66619000Y-90386050D01*
X260210000Y-61950000D02*
X260210000Y-56110000D01*
X66619000Y-90386050D02*
X67263950Y-91031000D01*
%TO.N,c12*%
X75968500Y-130938500D02*
X274817566Y-130938500D01*
X307340000Y-122454910D02*
X307340000Y-85407500D01*
X281021500Y-125058500D02*
X289581450Y-116498550D01*
X307250000Y-85670000D02*
X302890000Y-81310000D01*
X331152500Y-111222500D02*
X324090000Y-104160000D01*
X304057316Y-46930000D02*
X321850000Y-29137316D01*
X304186410Y-125608500D02*
X307340000Y-122454910D01*
X274817566Y-130938500D02*
X280697566Y-125058500D01*
X280697566Y-125058500D02*
X281021500Y-125058500D01*
X70300000Y-125270000D02*
X75968500Y-130938500D01*
X331152500Y-123507500D02*
X331152500Y-111222500D01*
X302890000Y-81310000D02*
X302890000Y-66010000D01*
X324090000Y-102510000D02*
X307250000Y-85670000D01*
X298691400Y-125608500D02*
X304186410Y-125608500D01*
X289581450Y-116498550D02*
X298691400Y-125608500D01*
X324090000Y-104160000D02*
X324090000Y-102510000D01*
X302890000Y-66010000D02*
X302890000Y-56700000D01*
X302890000Y-56700000D02*
X293120000Y-46930000D01*
X321850000Y-29137316D02*
X321850000Y-23620000D01*
X293120000Y-46930000D02*
X304057316Y-46930000D01*
%TO.N,c13*%
X311960000Y-47640000D02*
X321140000Y-56820000D01*
X350202500Y-106012500D02*
X350202500Y-123507500D01*
X321140000Y-67070000D02*
X321687000Y-67070000D01*
X350039150Y-105290850D02*
X349760000Y-105570000D01*
X315966326Y-47400000D02*
X311840000Y-47400000D01*
X339871326Y-23495000D02*
X315966326Y-47400000D01*
X337870000Y-85790000D02*
X338087939Y-85790000D01*
X321627500Y-62212500D02*
X321627500Y-66357500D01*
X311960000Y-47520000D02*
X311960000Y-47640000D01*
X321687000Y-67070000D02*
X337870000Y-83253000D01*
X337870000Y-83253000D02*
X337870000Y-85790000D01*
X321140000Y-56820000D02*
X321140000Y-67070000D01*
X340677500Y-23495000D02*
X339871326Y-23495000D01*
X349760000Y-105570000D02*
X350202500Y-106012500D01*
X350039150Y-97741211D02*
X350039150Y-105290850D01*
X323180000Y-60660000D02*
X321627500Y-62212500D01*
X311840000Y-47400000D02*
X311960000Y-47520000D01*
X338087939Y-85790000D02*
X350039150Y-97741211D01*
%TO.N,c14*%
X67720000Y-79770000D02*
X86780000Y-79770000D01*
X352927500Y-66357500D02*
X345440000Y-66357500D01*
X86780000Y-79770000D02*
X87120000Y-79430000D01*
X345440000Y-52070000D02*
X345440000Y-66357500D01*
X365410000Y-78840000D02*
X352927500Y-66357500D01*
X340677500Y-47307500D02*
X345440000Y-52070000D01*
%TO.N,c15*%
X369252500Y-105042500D02*
X368720000Y-104510000D01*
X368830000Y-85550000D02*
X369070000Y-85310000D01*
X369070000Y-85790000D02*
X368830000Y-85550000D01*
X369070000Y-85310000D02*
X369070000Y-48460000D01*
X370010000Y-47520000D02*
X369797500Y-47307500D01*
X368720000Y-104510000D02*
X369070000Y-104160000D01*
X369070000Y-104160000D02*
X369070000Y-85790000D01*
X369252500Y-123507500D02*
X369252500Y-105042500D01*
X369070000Y-48460000D02*
X370010000Y-47520000D01*
X353900000Y-79020000D02*
X360287500Y-85407500D01*
X360287500Y-85407500D02*
X369252500Y-85407500D01*
X67720000Y-77230000D02*
X81250000Y-77230000D01*
X81250000Y-77230000D02*
X81860000Y-76620000D01*
X369797500Y-47307500D02*
X369252500Y-47307500D01*
%TO.N,Net-(e2-DOUT)*%
X127970000Y-34410000D02*
X128010000Y-34450000D01*
X118940000Y-34410000D02*
X127970000Y-34410000D01*
%TO.N,scl*%
X43680000Y-27940000D02*
X46513750Y-27940000D01*
X43590000Y-28030000D02*
X43680000Y-27940000D01*
X50730000Y-74470000D02*
X43590000Y-67330000D01*
X43590000Y-67330000D02*
X43590000Y-28030000D01*
%TO.N,sda*%
X47614750Y-28396050D02*
X47614750Y-26501000D01*
X45407750Y-66607750D02*
X45407750Y-29690950D01*
X46969800Y-29041000D02*
X47614750Y-28396050D01*
X46057700Y-29041000D02*
X46969800Y-29041000D01*
X45407750Y-29690950D02*
X46057700Y-29041000D01*
X47614750Y-26501000D02*
X46513750Y-25400000D01*
X53270000Y-74470000D02*
X45407750Y-66607750D01*
%TO.N,+3.3V*%
X45320000Y-82680000D02*
X47140000Y-80860000D01*
X42620000Y-82680000D02*
X45320000Y-82680000D01*
%TO.N,reSwitch*%
X70920000Y-24380000D02*
X67960000Y-27340000D01*
X70920000Y-22540000D02*
X70920000Y-24380000D01*
%TO.N,a*%
X370880000Y-133410000D02*
X370880000Y-133170000D01*
X381864250Y-44340000D02*
X380200000Y-46004250D01*
X370880000Y-133170000D02*
X380200000Y-123850000D01*
X382330000Y-44340000D02*
X381864250Y-44340000D01*
X380200000Y-123850000D02*
X380200000Y-46004250D01*
%TO.N,b*%
X361976250Y-132540000D02*
X42020000Y-132540000D01*
X42020000Y-132540000D02*
X42020000Y-33310000D01*
X368530000Y-139093750D02*
X361976250Y-132540000D01*
%TO.N,+5V*%
X97650000Y-93140000D02*
X96490000Y-91980000D01*
X95649143Y-84119722D02*
X95060000Y-83530579D01*
X97840057Y-113210000D02*
X99180000Y-113210000D01*
X92050000Y-39150000D02*
X92050000Y-32080000D01*
X91560000Y-119490057D02*
X97840057Y-113210000D01*
X92050000Y-32080000D02*
X93790000Y-30340000D01*
X93130000Y-58870000D02*
X93130000Y-70930000D01*
X93130000Y-70930000D02*
X90500000Y-73560000D01*
X95060000Y-83530579D02*
X95060000Y-74880000D01*
X97650000Y-101490000D02*
X97650000Y-93140000D01*
X59291000Y-124669000D02*
X72069090Y-124669000D01*
X90410000Y-56150000D02*
X93130000Y-58870000D01*
X53100000Y-130860000D02*
X59291000Y-124669000D01*
X91560000Y-121320000D02*
X91560000Y-119490057D01*
X77738590Y-130338500D02*
X81120000Y-130338500D01*
X72069090Y-124669000D02*
X77738590Y-130338500D01*
%TD*%
%TA.AperFunction,Conductor*%
%TO.N,Net-(D15-A)*%
G36*
X79053518Y-47810765D02*
G01*
X79055136Y-47812115D01*
X79187884Y-47944863D01*
X79191311Y-47953136D01*
X79191121Y-47955234D01*
X78909911Y-49497877D01*
X78905056Y-49505402D01*
X78900640Y-49507263D01*
X77168839Y-49844883D01*
X77160063Y-49843102D01*
X77155116Y-49835638D01*
X77155116Y-49831160D01*
X77220091Y-49497877D01*
X77492737Y-48099356D01*
X77497683Y-48091895D01*
X77502118Y-48090089D01*
X79044767Y-47808878D01*
X79053518Y-47810765D01*
G37*
%TD.AperFunction*%
%TD*%
%TA.AperFunction,Conductor*%
%TO.N,c1*%
G36*
X84946435Y-46856695D02*
G01*
X86261119Y-47300746D01*
X86267861Y-47306640D01*
X86268460Y-47315575D01*
X86264025Y-47321457D01*
X84588454Y-48478935D01*
X84579699Y-48480818D01*
X84573839Y-48477879D01*
X83982330Y-47928123D01*
X83978603Y-47919981D01*
X83981725Y-47911588D01*
X83981995Y-47911308D01*
X84114862Y-47778441D01*
X84503573Y-46719139D01*
X84509639Y-46712555D01*
X84518300Y-46712087D01*
X84946435Y-46856695D01*
G37*
%TD.AperFunction*%
%TD*%
%TA.AperFunction,Conductor*%
%TO.N,c2*%
G36*
X103996435Y-46856695D02*
G01*
X105311119Y-47300746D01*
X105317861Y-47306640D01*
X105318460Y-47315575D01*
X105314025Y-47321457D01*
X103638454Y-48478935D01*
X103629699Y-48480818D01*
X103623839Y-48477879D01*
X103032330Y-47928123D01*
X103028603Y-47919981D01*
X103031725Y-47911588D01*
X103031995Y-47911308D01*
X103164862Y-47778441D01*
X103553573Y-46719139D01*
X103559639Y-46712555D01*
X103568300Y-46712087D01*
X103996435Y-46856695D01*
G37*
%TD.AperFunction*%
%TD*%
%TA.AperFunction,Conductor*%
%TO.N,c3*%
G36*
X138672499Y-85418802D02*
G01*
X138674044Y-85421965D01*
X139057274Y-86645795D01*
X139056476Y-86654714D01*
X139049605Y-86660456D01*
X139049076Y-86660609D01*
X137672815Y-87021396D01*
X137539781Y-87154431D01*
X137531508Y-87157858D01*
X137523235Y-87154431D01*
X137523124Y-87154319D01*
X136977869Y-86594186D01*
X136974554Y-86585868D01*
X136978092Y-86577641D01*
X136979586Y-86576411D01*
X138656222Y-85415840D01*
X138664973Y-85413950D01*
X138672499Y-85418802D01*
G37*
%TD.AperFunction*%
%TD*%
%TA.AperFunction,Conductor*%
%TO.N,c3*%
G36*
X124384978Y-47318817D02*
G01*
X124386529Y-47321996D01*
X124767757Y-48545752D01*
X124766945Y-48554670D01*
X124760066Y-48560403D01*
X124759500Y-48560563D01*
X123385316Y-48913895D01*
X123385315Y-48913897D01*
X123252226Y-49046986D01*
X123243953Y-49050413D01*
X123235680Y-49046986D01*
X123235663Y-49046969D01*
X122690497Y-48494188D01*
X122687128Y-48485892D01*
X122690612Y-48477643D01*
X122692161Y-48476359D01*
X124368700Y-47315855D01*
X124377452Y-47313965D01*
X124384978Y-47318817D01*
G37*
%TD.AperFunction*%
%TD*%
%TA.AperFunction,Conductor*%
%TO.N,c4*%
G36*
X141683522Y-46217193D02*
G01*
X143415940Y-47296559D01*
X143421150Y-47303842D01*
X143419683Y-47312676D01*
X143415075Y-47316909D01*
X141664894Y-48210767D01*
X141655967Y-48211478D01*
X141651493Y-48208810D01*
X140661121Y-47263456D01*
X140657503Y-47255265D01*
X140657500Y-47254993D01*
X140657500Y-47065487D01*
X140660927Y-47057214D01*
X140661713Y-47056496D01*
X141669855Y-46218126D01*
X141678406Y-46215472D01*
X141683522Y-46217193D01*
G37*
%TD.AperFunction*%
%TD*%
%TA.AperFunction,Conductor*%
%TO.N,c4*%
G36*
X165482547Y-103898369D02*
G01*
X165628873Y-103944830D01*
X167222972Y-104450988D01*
X167229819Y-104456756D01*
X167230581Y-104465679D01*
X167226080Y-104471764D01*
X165552576Y-105627815D01*
X165543821Y-105629698D01*
X165536495Y-105625114D01*
X165135627Y-105079199D01*
X165133493Y-105070502D01*
X165136783Y-105064003D01*
X165271104Y-104929683D01*
X165467516Y-103907312D01*
X165472442Y-103899835D01*
X165481213Y-103898030D01*
X165482547Y-103898369D01*
G37*
%TD.AperFunction*%
%TD*%
%TA.AperFunction,Conductor*%
%TO.N,c4*%
G36*
X143648375Y-45286846D02*
G01*
X143782625Y-45421097D01*
X143782636Y-45421107D01*
X144610518Y-46049594D01*
X144615036Y-46057326D01*
X144612763Y-46065987D01*
X144611923Y-46066975D01*
X143441898Y-47297578D01*
X143433714Y-47301212D01*
X143425357Y-47297995D01*
X143423675Y-47295992D01*
X142606692Y-46066720D01*
X142604966Y-46057933D01*
X142609430Y-46050872D01*
X143633099Y-45285746D01*
X143641776Y-45283539D01*
X143648375Y-45286846D01*
G37*
%TD.AperFunction*%
%TD*%
%TA.AperFunction,Conductor*%
%TO.N,c6*%
G36*
X189294124Y-65780702D02*
G01*
X191035789Y-66350868D01*
X191042586Y-66356698D01*
X191043268Y-66365627D01*
X191038799Y-66371613D01*
X189364194Y-67528424D01*
X189355439Y-67530307D01*
X189348841Y-67526618D01*
X188857096Y-66979353D01*
X188854116Y-66970909D01*
X188857525Y-66963261D01*
X188991104Y-66829683D01*
X189279231Y-65788704D01*
X189284740Y-65781648D01*
X189293627Y-65780552D01*
X189294124Y-65780702D01*
G37*
%TD.AperFunction*%
%TD*%
%TA.AperFunction,Conductor*%
%TO.N,c7*%
G36*
X200585005Y-47318798D02*
G01*
X200586549Y-47321955D01*
X200970445Y-48545810D01*
X200969651Y-48554730D01*
X200962783Y-48560476D01*
X200962266Y-48560625D01*
X199585316Y-48923896D01*
X199452299Y-49056913D01*
X199444026Y-49060340D01*
X199435753Y-49056913D01*
X199435625Y-49056783D01*
X198951694Y-48557500D01*
X198890326Y-48494185D01*
X198887029Y-48485860D01*
X198890585Y-48477642D01*
X198892069Y-48476423D01*
X200568728Y-47315836D01*
X200577479Y-47313946D01*
X200585005Y-47318798D01*
G37*
%TD.AperFunction*%
%TD*%
%TA.AperFunction,Conductor*%
%TO.N,c7*%
G36*
X210110045Y-66368770D02*
G01*
X210111578Y-66371895D01*
X210499433Y-67595895D01*
X210498666Y-67604817D01*
X210491814Y-67610582D01*
X210491370Y-67610714D01*
X209303295Y-67936051D01*
X209110317Y-67988896D01*
X209110316Y-67988896D01*
X209110314Y-67988897D01*
X208977406Y-68121806D01*
X208969133Y-68125233D01*
X208960860Y-68121806D01*
X208960629Y-68121568D01*
X208415078Y-67544178D01*
X208411887Y-67535811D01*
X208415547Y-67527639D01*
X208416911Y-67526532D01*
X210093768Y-66365808D01*
X210102519Y-66363918D01*
X210110045Y-66368770D01*
G37*
%TD.AperFunction*%
%TD*%
%TA.AperFunction,Conductor*%
%TO.N,c9*%
G36*
X238661055Y-47300769D02*
G01*
X238667807Y-47306651D01*
X238668423Y-47315585D01*
X238663981Y-47321487D01*
X236988553Y-48478867D01*
X236979798Y-48480750D01*
X236973832Y-48477711D01*
X236398360Y-47929371D01*
X236394734Y-47921183D01*
X236397961Y-47912830D01*
X236398118Y-47912668D01*
X236531104Y-47779683D01*
X236903668Y-46722885D01*
X236909649Y-46716224D01*
X236918425Y-46715685D01*
X238661055Y-47300769D01*
G37*
%TD.AperFunction*%
%TD*%
%TA.AperFunction,Conductor*%
%TO.N,c10*%
G36*
X272022181Y-85418689D02*
G01*
X272023400Y-85421536D01*
X272364262Y-86644865D01*
X272363181Y-86653754D01*
X272356131Y-86659276D01*
X272354829Y-86659560D01*
X271022817Y-86871396D01*
X271022815Y-86871397D01*
X270889185Y-87005027D01*
X270880912Y-87008454D01*
X270873152Y-87005509D01*
X270266924Y-86468133D01*
X270263007Y-86460082D01*
X270265931Y-86451618D01*
X270268695Y-86449329D01*
X272006143Y-85414623D01*
X272015004Y-85413335D01*
X272022181Y-85418689D01*
G37*
%TD.AperFunction*%
%TD*%
%TA.AperFunction,Conductor*%
%TO.N,c10*%
G36*
X260147149Y-45955639D02*
G01*
X260147559Y-45956030D01*
X260279117Y-46087588D01*
X260282544Y-46095861D01*
X260281108Y-46101478D01*
X259511285Y-47508185D01*
X259504307Y-47513797D01*
X259499667Y-47514189D01*
X257744311Y-47309665D01*
X257736490Y-47305304D01*
X257734044Y-47296690D01*
X257734173Y-47295848D01*
X257970945Y-46066527D01*
X257975875Y-46059052D01*
X257981866Y-46057055D01*
X260138721Y-45952617D01*
X260147149Y-45955639D01*
G37*
%TD.AperFunction*%
%TD*%
%TA.AperFunction,Conductor*%
%TO.N,c10*%
G36*
X255982250Y-46223620D02*
G01*
X257715903Y-47296609D01*
X257721135Y-47303877D01*
X257719695Y-47312715D01*
X257715096Y-47316963D01*
X255964889Y-48216958D01*
X255955965Y-48217694D01*
X255951477Y-48215032D01*
X254961138Y-47273458D01*
X254957504Y-47265274D01*
X254957500Y-47264979D01*
X254957500Y-47075468D01*
X254960927Y-47067195D01*
X254961695Y-47066492D01*
X255968588Y-46224593D01*
X255977133Y-46221915D01*
X255982250Y-46223620D01*
G37*
%TD.AperFunction*%
%TD*%
%TA.AperFunction,Conductor*%
%TO.N,c13*%
G36*
X313114866Y-46370027D02*
G01*
X314865193Y-47297796D01*
X314870898Y-47304699D01*
X314870052Y-47313613D01*
X314865737Y-47318165D01*
X313126532Y-48362498D01*
X313117675Y-48363819D01*
X313112897Y-48361352D01*
X312111588Y-47503502D01*
X312107535Y-47495517D01*
X312107500Y-47494617D01*
X312107500Y-47305082D01*
X312110927Y-47296809D01*
X312111197Y-47296547D01*
X313101406Y-46371813D01*
X313109789Y-46368673D01*
X313114866Y-46370027D01*
G37*
%TD.AperFunction*%
%TD*%
%TA.AperFunction,Conductor*%
%TO.N,c13*%
G36*
X317297114Y-45934254D02*
G01*
X317297606Y-45934719D01*
X317429137Y-46066250D01*
X317432564Y-46074523D01*
X317431144Y-46080109D01*
X316661251Y-47496903D01*
X316654290Y-47502536D01*
X316649690Y-47502947D01*
X314894287Y-47309583D01*
X314886439Y-47305271D01*
X314883938Y-47296672D01*
X314884056Y-47295864D01*
X315109524Y-46066535D01*
X315114387Y-46059018D01*
X315120353Y-46056968D01*
X317288657Y-45931312D01*
X317297114Y-45934254D01*
G37*
%TD.AperFunction*%
%TD*%
M02*
