M48
; DRILL file {KiCad 9.0.7} date 2026-01-24T16:21:00+0000
; FORMAT={-:-/ absolute / metric / decimal}
; #@! TF.CreationDate,2026-01-24T16:21:00+00:00
; #@! TF.GenerationSoftware,Kicad,Pcbnew,9.0.7
; #@! TF.FileFunction,Plated,1,2,PTH
FMAT,2
METRIC
; #@! TA.AperFunction,Plated,PTH,ViaDrill
T1C0.300
; #@! TA.AperFunction,Plated,PTH,ComponentDrill
T2C0.800
; #@! TA.AperFunction,Plated,PTH,ComponentDrill
T3C1.000
; #@! TA.AperFunction,Plated,PTH,ComponentDrill
T4C1.500
; #@! TA.AperFunction,Plated,PTH,ComponentDrill
T5C3.050
%
G90
G05
T1
X42.02Y-33.31
X42.62Y-82.68
X47.14Y-80.86
X53.1Y-130.86
X62.24Y-29.61
X62.773Y-33.833
X67.96Y-27.34
X68.05Y-53.81
X69.13Y-52.26
X70.3Y-125.27
X70.92Y-22.54
X71.33Y-53.32
X71.351Y-77.83
X72.2Y-60.06
X73.16Y-51.597
X74.52Y-78.78
X75.31Y-67.89
X75.94Y-55.92
X79.54Y-41.87
X81.12Y-130.338
X81.86Y-76.62
X82.5Y-43.83
X82.6Y-41.87
X83.1Y-63.75
X83.38Y-140.9
X83.52Y-93.81
X83.76Y-137.3
X84.97Y-82.57
X85.34Y-80.74
X85.91Y-68.5
X86.07Y-58.03
X86.3Y-54.38
X86.84Y-63.87
X87.12Y-79.43
X88.26Y-84.61
X88.556Y-96.447
X89.87Y-100.2
X90.41Y-56.15
X90.5Y-73.56
X90.94Y-53.56
X91.56Y-121.32
X92.05Y-39.15
X92.71Y-119.19
X93.79Y-30.34
X94.07Y-121.35
X95.06Y-74.88
X95.19Y-58.22
X95.649Y-84.12
X96.49Y-91.98
X97.31Y-61.09
X97.65Y-101.49
X99.18Y-113.21
X101.36Y-116.39
X101.49Y-80.04
X102.19Y-73.23
X110.18Y-99.28
X110.21Y-116.62
X111.06Y-58.34
X111.66Y-102.4
X115.42Y-58.34
X118.94Y-34.41
X128.01Y-34.45
X129.88Y-58.34
X138.1Y-58.66
X148.7Y-58.25
X157.51Y-58.82
X172.733Y-82.227
X260.21Y-61.95
X260.66Y-55.66
X264.2Y-82.4
X266.73Y-55.66
X320.88Y-98.04
X323.18Y-60.66
X323.22Y-62.05
X327.83Y-63.94
X332.46Y-99.06
X342.11Y-36.55
X344.22Y-36.05
X344.25Y-99.57
X349.36Y-101.61
X353.78Y-101.78
X353.9Y-79.02
X354.92Y-99.0
X355.39Y-63.61
X355.67Y-61.51
X362.84Y-80.35
X362.95Y-82.79
X363.76Y-63.7
X364.85Y-61.71
X364.9Y-64.03
X365.41Y-78.84
X365.47Y-101.7
X365.58Y-99.25
X366.54Y-78.97
X366.78Y-96.72
X366.82Y-58.6
X366.829Y-93.671
X366.88Y-115.75
X367.1Y-112.52
X367.94Y-120.54
X368.17Y-80.62
X368.47Y-117.93
X368.53Y-139.094
X369.67Y-63.21
X370.88Y-133.41
X371.12Y-63.21
X377.33Y-38.93
X378.8Y-42.65
X382.33Y-44.34
T2
X60.1Y-74.69
X60.1Y-77.23
X60.1Y-79.77
X60.1Y-82.31
X60.1Y-84.85
X60.1Y-87.39
X60.1Y-89.93
X60.1Y-92.47
X60.1Y-95.01
X60.1Y-97.55
X60.1Y-100.09
X60.1Y-102.63
X60.1Y-105.17
X60.1Y-107.71
X67.72Y-74.69
X67.72Y-77.23
X67.72Y-79.77
X67.72Y-82.31
X67.72Y-84.85
X67.72Y-87.39
X67.72Y-89.93
X67.72Y-92.47
X67.72Y-95.01
X67.72Y-97.55
X67.72Y-100.09
X67.72Y-102.63
X67.72Y-105.17
X67.72Y-107.71
T3
X45.65Y-74.47
X46.48Y-119.25
X46.48Y-121.79
X46.48Y-124.33
X46.514Y-17.78
X46.514Y-20.32
X46.514Y-22.86
X46.514Y-25.4
X46.514Y-27.94
X46.514Y-30.48
X46.514Y-33.02
X46.514Y-35.56
X46.514Y-38.1
X46.514Y-40.64
X46.514Y-43.18
X46.514Y-45.72
X46.514Y-48.26
X46.514Y-50.8
X46.514Y-53.34
X46.514Y-55.88
X46.514Y-58.42
X46.514Y-60.96
X46.514Y-63.5
X46.514Y-66.04
X48.19Y-74.47
X50.73Y-74.47
X53.27Y-74.47
X64.294Y-17.78
X64.294Y-20.32
X64.294Y-22.86
X64.294Y-25.4
X64.294Y-27.94
X64.294Y-30.48
X64.294Y-33.02
X64.294Y-35.56
X64.294Y-38.1
X64.294Y-40.64
X64.294Y-43.18
X64.294Y-45.72
X64.294Y-48.26
X64.294Y-50.8
X64.294Y-53.34
X64.294Y-55.88
X64.294Y-58.42
X64.294Y-60.96
X64.294Y-63.5
X64.294Y-66.04
X355.94Y-25.2
X355.94Y-27.7
X355.94Y-30.2
X370.44Y-25.2
X370.44Y-30.2
T5
X77.153Y-26.035
X77.153Y-49.847
X79.534Y-126.047
X81.915Y-68.897
X83.502Y-23.495
X83.502Y-47.307
X84.296Y-87.947
X85.884Y-123.507
X88.265Y-66.358
X89.059Y-106.997
X90.646Y-85.407
X95.409Y-104.457
X96.203Y-49.847
X102.552Y-47.307
X103.346Y-126.047
X105.727Y-68.897
X109.696Y-123.507
X110.49Y-87.947
X112.078Y-66.358
X115.252Y-26.035
X115.252Y-49.847
X116.84Y-85.407
X120.015Y-106.997
X121.602Y-23.495
X121.602Y-47.307
X124.777Y-68.897
X126.365Y-104.457
X127.159Y-126.047
X129.54Y-87.947
X131.127Y-66.358
X133.509Y-123.507
X134.302Y-26.035
X134.302Y-49.847
X135.89Y-85.407
X139.065Y-106.997
X140.653Y-23.495
X140.653Y-47.307
X143.827Y-68.897
X145.415Y-104.457
X148.59Y-87.947
X150.177Y-66.358
X153.352Y-26.035
X153.352Y-49.847
X154.94Y-85.407
X158.115Y-106.997
X159.702Y-23.495
X159.702Y-47.307
X162.877Y-68.897
X164.465Y-104.457
X167.64Y-87.947
X169.227Y-66.358
X172.403Y-26.035
X172.403Y-49.847
X173.99Y-85.407
X177.165Y-106.997
X178.752Y-23.495
X178.752Y-47.307
X181.927Y-68.897
X183.515Y-104.457
X186.69Y-87.947
X188.278Y-66.358
X191.452Y-49.847
X193.04Y-85.407
X196.215Y-26.035
X196.215Y-106.997
X197.802Y-47.307
X198.596Y-126.047
X200.977Y-68.897
X202.565Y-23.495
X202.565Y-104.457
X204.946Y-123.507
X205.74Y-87.947
X207.327Y-66.358
X210.502Y-49.847
X212.09Y-85.407
X215.265Y-26.035
X215.265Y-106.997
X216.852Y-47.307
X220.028Y-68.897
X221.615Y-23.495
X221.615Y-104.457
X224.79Y-87.947
X226.377Y-66.358
X229.552Y-49.847
X231.14Y-85.407
X234.315Y-26.035
X234.315Y-106.997
X235.903Y-47.307
X239.077Y-68.897
X240.665Y-23.495
X240.665Y-104.457
X243.84Y-87.947
X245.427Y-66.358
X248.602Y-49.847
X250.19Y-85.407
X253.365Y-26.035
X253.365Y-106.997
X254.952Y-47.307
X258.127Y-68.897
X259.715Y-23.495
X259.715Y-104.457
X262.89Y-87.947
X264.477Y-66.358
X267.652Y-49.847
X269.24Y-85.407
X270.034Y-126.047
X272.415Y-106.997
X274.002Y-47.307
X276.384Y-123.507
X277.178Y-26.035
X277.178Y-68.897
X278.765Y-104.457
X281.94Y-87.947
X283.527Y-23.495
X283.527Y-66.358
X286.702Y-49.847
X288.29Y-85.407
X291.465Y-106.997
X293.053Y-47.307
X293.846Y-126.047
X296.227Y-26.035
X296.227Y-68.897
X297.815Y-104.457
X300.196Y-123.507
X300.99Y-87.947
X302.577Y-23.495
X302.577Y-66.358
X305.752Y-49.847
X307.34Y-85.407
X312.102Y-47.307
X315.277Y-26.035
X315.277Y-68.897
X317.659Y-106.997
X321.627Y-23.495
X321.627Y-66.358
X324.009Y-104.457
X324.803Y-126.047
X331.152Y-123.507
X331.946Y-87.947
X334.327Y-26.035
X334.327Y-49.847
X338.296Y-85.407
X339.09Y-68.897
X340.678Y-23.495
X340.678Y-47.307
X343.852Y-106.997
X343.852Y-126.047
X345.44Y-66.358
X350.202Y-104.457
X350.202Y-123.507
X362.902Y-49.847
X362.902Y-68.897
X362.902Y-87.947
X362.902Y-106.997
X362.902Y-126.047
X369.252Y-47.307
X369.252Y-66.358
X369.252Y-85.407
X369.252Y-104.457
X369.252Y-123.507
T4
G00X362.79Y-22.1
M15
G01X364.09Y-22.1
M16
G05
G00X362.79Y-33.3
M15
G01X364.09Y-33.3
M16
G05
M30
